<mxfile host="app.diagrams.net" agent="Mozilla/5.0 (Macintosh; Intel Mac OS X 10_15_7) AppleWebKit/537.36 (KHTML, like Gecko) Chrome/131.0.0.0 Safari/537.36" version="25.0.3" pages="9">
  <diagram name="MPC TSS" id="_NhQ68Ce09rdGa0aBCM7">
    <mxGraphModel dx="2522" dy="4687" grid="1" gridSize="10" guides="1" tooltips="1" connect="1" arrows="1" fold="1" page="1" pageScale="1" pageWidth="1169" pageHeight="827" math="0" shadow="1">
      <root>
        <mxCell id="0" />
        <mxCell id="1" parent="0" />
        <mxCell id="thYXyoPydOWhGMwMgY5e-137" value="Relayer 1" style="rounded=1;whiteSpace=wrap;html=1;" parent="1" vertex="1">
          <mxGeometry x="342" y="-1420" width="120" height="40" as="geometry" />
        </mxCell>
        <mxCell id="thYXyoPydOWhGMwMgY5e-129" value="" style="rounded=1;whiteSpace=wrap;html=1;fillColor=#99FFCC;" parent="1" vertex="1">
          <mxGeometry x="85" y="-2077" width="90" height="40" as="geometry" />
        </mxCell>
        <mxCell id="thYXyoPydOWhGMwMgY5e-79" value="Relayer node 1" style="rounded=1;whiteSpace=wrap;html=1;" parent="1" vertex="1">
          <mxGeometry x="60" y="-2810" width="120" height="40" as="geometry" />
        </mxCell>
        <mxCell id="thYXyoPydOWhGMwMgY5e-78" value="Relayer node 1" style="rounded=1;whiteSpace=wrap;html=1;" parent="1" vertex="1">
          <mxGeometry x="50" y="-2820" width="120" height="40" as="geometry" />
        </mxCell>
        <mxCell id="thYXyoPydOWhGMwMgY5e-51" value="" style="edgeStyle=orthogonalEdgeStyle;rounded=0;orthogonalLoop=1;jettySize=auto;html=1;" parent="1" source="thYXyoPydOWhGMwMgY5e-48" target="thYXyoPydOWhGMwMgY5e-50" edge="1">
          <mxGeometry relative="1" as="geometry" />
        </mxCell>
        <mxCell id="thYXyoPydOWhGMwMgY5e-52" value="génère une valeur&amp;nbsp;&lt;div&gt;secrète aléatoire&lt;/div&gt;" style="edgeLabel;html=1;align=center;verticalAlign=middle;resizable=0;points=[];" parent="thYXyoPydOWhGMwMgY5e-51" vertex="1" connectable="0">
          <mxGeometry x="-0.0333" y="1" relative="1" as="geometry">
            <mxPoint as="offset" />
          </mxGeometry>
        </mxCell>
        <mxCell id="thYXyoPydOWhGMwMgY5e-48" value="Relayer node 1..n" style="rounded=1;whiteSpace=wrap;html=1;" parent="1" vertex="1">
          <mxGeometry x="40" y="-2830" width="120" height="40" as="geometry" />
        </mxCell>
        <mxCell id="thYXyoPydOWhGMwMgY5e-63" value="" style="edgeStyle=orthogonalEdgeStyle;rounded=0;orthogonalLoop=1;jettySize=auto;html=1;" parent="1" source="thYXyoPydOWhGMwMgY5e-50" target="thYXyoPydOWhGMwMgY5e-62" edge="1">
          <mxGeometry relative="1" as="geometry" />
        </mxCell>
        <mxCell id="thYXyoPydOWhGMwMgY5e-64" value="calcul d&#39;un fragment de clé&amp;nbsp;&lt;div&gt;publique à partir du secret&lt;/div&gt;" style="edgeLabel;html=1;align=center;verticalAlign=middle;resizable=0;points=[];" parent="thYXyoPydOWhGMwMgY5e-63" vertex="1" connectable="0">
          <mxGeometry x="-0.3178" relative="1" as="geometry">
            <mxPoint x="23" as="offset" />
          </mxGeometry>
        </mxCell>
        <mxCell id="thYXyoPydOWhGMwMgY5e-50" value="secret" style="rounded=1;whiteSpace=wrap;html=1;" parent="1" vertex="1">
          <mxGeometry x="320" y="-2830" width="70" height="40" as="geometry" />
        </mxCell>
        <mxCell id="thYXyoPydOWhGMwMgY5e-76" value="" style="edgeStyle=orthogonalEdgeStyle;rounded=0;orthogonalLoop=1;jettySize=auto;html=1;" parent="1" source="thYXyoPydOWhGMwMgY5e-62" target="thYXyoPydOWhGMwMgY5e-75" edge="1">
          <mxGeometry relative="1" as="geometry" />
        </mxCell>
        <mxCell id="thYXyoPydOWhGMwMgY5e-77" value="partage du fragment de&amp;nbsp;&lt;div&gt;&amp;nbsp;la clé publique&lt;/div&gt;" style="edgeLabel;html=1;align=center;verticalAlign=middle;resizable=0;points=[];" parent="thYXyoPydOWhGMwMgY5e-76" vertex="1" connectable="0">
          <mxGeometry x="-0.2312" relative="1" as="geometry">
            <mxPoint as="offset" />
          </mxGeometry>
        </mxCell>
        <mxCell id="thYXyoPydOWhGMwMgY5e-62" value="fragment de clé publique 1" style="rounded=1;whiteSpace=wrap;html=1;" parent="1" vertex="1">
          <mxGeometry x="605" y="-2830" width="130" height="40" as="geometry" />
        </mxCell>
        <mxCell id="thYXyoPydOWhGMwMgY5e-73" value="&lt;h3 style=&quot;font-size: 24px;&quot;&gt;&lt;strong style=&quot;&quot;&gt;&lt;font style=&quot;font-size: 24px;&quot;&gt;Schéma de Seuil : T-of-N&lt;/font&gt;&lt;/strong&gt;&lt;/h3&gt;&lt;h3 style=&quot;font-size: 12px;&quot;&gt;&lt;font style=&quot;font-size: 12px;&quot;&gt;&lt;span style=&quot;font-weight: normal;&quot;&gt;Le schéma utilisé pour distribuer la clé privée est souvent appelé un schéma de seuil, par exemple &lt;/span&gt;&lt;strong style=&quot;&quot;&gt;T-of-N&lt;/strong&gt;&lt;span style=&quot;font-weight: normal;&quot;&gt; :&lt;/span&gt;&lt;/font&gt;&lt;/h3&gt;&lt;h1 style=&quot;margin-top: 0px; font-size: 12px;&quot;&gt;&lt;ul style=&quot;&quot;&gt;&lt;li style=&quot;&quot;&gt;&lt;font style=&quot;font-size: 12px;&quot;&gt;&lt;strong style=&quot;&quot;&gt;N&lt;/strong&gt; est le nombre total de participants (relayers ou nœuds).&lt;/font&gt;&lt;/li&gt;&lt;li style=&quot;&quot;&gt;&lt;font style=&quot;font-size: 12px;&quot;&gt;&lt;strong style=&quot;&quot;&gt;T&lt;/strong&gt; est le nombre minimum de participants nécessaires pour signer une transaction.&lt;/font&gt;&lt;/li&gt;&lt;/ul&gt;&lt;div&gt;&lt;span style=&quot;font-weight: normal;&quot;&gt;Cela signifie que la clé privée est divisée en N fragments et il faut au moins T participants pour générer une signature ou réaliser une opération nécessitant cette clé. Tant que T fragments sont réunis, la signature peut être produite, mais personne ne possède jamais la clé privée complète.&lt;/span&gt;&lt;br&gt;&lt;/div&gt;&lt;div&gt;&lt;span style=&quot;font-weight: normal;&quot;&gt;&lt;br&gt;&lt;/span&gt;&lt;/div&gt;&lt;/h1&gt;&lt;h1 style=&quot;margin-top: 0px;&quot;&gt;Quand la clé privée est-elle générée ?&lt;br&gt;&lt;/h1&gt;&lt;h1 style=&quot;margin-top: 0px; font-size: 12px;&quot;&gt;&lt;p&gt;&lt;span style=&quot;font-weight: normal;&quot;&gt;La clé privée est généralement générée&amp;nbsp;&lt;/span&gt;&lt;/p&gt;&lt;p&gt;&lt;/p&gt;&lt;ul&gt;&lt;li&gt;&lt;span style=&quot;font-weight: normal;&quot;&gt;au&amp;nbsp;déploiement initial du système de bridge relayer,&amp;nbsp;&lt;/span&gt;&lt;/li&gt;&lt;li&gt;&lt;span style=&quot;font-weight: normal;&quot;&gt;lors de l&#39;intégration de nouveaux relayers&amp;nbsp;au réseau.&amp;nbsp;&lt;/span&gt;&lt;/li&gt;&lt;/ul&gt;&lt;div&gt;&lt;br style=&quot;font-weight: 400;&quot;&gt;&lt;/div&gt;&lt;/h1&gt;" style="text;html=1;whiteSpace=wrap;overflow=hidden;rounded=0;fontSize=11;labelBackgroundColor=default;verticalAlign=top;" parent="1" vertex="1">
          <mxGeometry x="20" y="-3280" width="600" height="320" as="geometry" />
        </mxCell>
        <mxCell id="thYXyoPydOWhGMwMgY5e-74" value="&lt;span style=&quot;color: rgb(0, 0, 0); font-family: Helvetica; font-size: 11px; font-style: normal; font-variant-ligatures: normal; font-variant-caps: normal; font-weight: 400; letter-spacing: normal; orphans: 2; text-align: center; text-indent: 0px; text-transform: none; widows: 2; word-spacing: 0px; -webkit-text-stroke-width: 0px; white-space: nowrap; text-decoration-thickness: initial; text-decoration-style: initial; text-decoration-color: initial; float: none; display: inline !important;&quot;&gt;génération de clé distribuée&amp;nbsp;&lt;/span&gt;&lt;span style=&quot;font-size: 11px; text-wrap: nowrap;&quot;&gt;(DKG)&lt;/span&gt;" style="text;html=1;align=center;verticalAlign=middle;whiteSpace=wrap;rounded=0;labelBackgroundColor=default;" parent="1" vertex="1">
          <mxGeometry x="150" y="-2860" width="190" height="30" as="geometry" />
        </mxCell>
        <mxCell id="thYXyoPydOWhGMwMgY5e-75" value="Relayer node n" style="rounded=1;whiteSpace=wrap;html=1;" parent="1" vertex="1">
          <mxGeometry x="605" y="-2710" width="130" height="40" as="geometry" />
        </mxCell>
        <mxCell id="thYXyoPydOWhGMwMgY5e-84" value="" style="edgeStyle=orthogonalEdgeStyle;rounded=0;orthogonalLoop=1;jettySize=auto;html=1;exitX=0.75;exitY=0;exitDx=0;exitDy=0;entryX=0.25;entryY=0;entryDx=0;entryDy=0;" parent="1" source="thYXyoPydOWhGMwMgY5e-80" target="thYXyoPydOWhGMwMgY5e-83" edge="1">
          <mxGeometry relative="1" as="geometry" />
        </mxCell>
        <mxCell id="thYXyoPydOWhGMwMgY5e-87" value="envoie une version chiffrée de&amp;nbsp;&lt;div&gt;sa contribution&lt;/div&gt;" style="edgeLabel;html=1;align=center;verticalAlign=middle;resizable=0;points=[];" parent="thYXyoPydOWhGMwMgY5e-84" vertex="1" connectable="0">
          <mxGeometry x="-0.5383" y="3" relative="1" as="geometry">
            <mxPoint x="82" y="43" as="offset" />
          </mxGeometry>
        </mxCell>
        <mxCell id="thYXyoPydOWhGMwMgY5e-99" value="1 vers 2" style="edgeLabel;html=1;align=center;verticalAlign=middle;resizable=0;points=[];" parent="thYXyoPydOWhGMwMgY5e-84" vertex="1" connectable="0">
          <mxGeometry x="-0.5717" y="3" relative="1" as="geometry">
            <mxPoint x="7" as="offset" />
          </mxGeometry>
        </mxCell>
        <mxCell id="thYXyoPydOWhGMwMgY5e-96" style="edgeStyle=orthogonalEdgeStyle;rounded=0;orthogonalLoop=1;jettySize=auto;html=1;" parent="1" source="thYXyoPydOWhGMwMgY5e-80" target="thYXyoPydOWhGMwMgY5e-95" edge="1">
          <mxGeometry relative="1" as="geometry" />
        </mxCell>
        <mxCell id="thYXyoPydOWhGMwMgY5e-97" value="Validation de fragment envoyés" style="edgeLabel;html=1;align=center;verticalAlign=middle;resizable=0;points=[];" parent="thYXyoPydOWhGMwMgY5e-96" vertex="1" connectable="0">
          <mxGeometry x="0.1448" y="1" relative="1" as="geometry">
            <mxPoint x="9" y="17" as="offset" />
          </mxGeometry>
        </mxCell>
        <mxCell id="thYXyoPydOWhGMwMgY5e-104" style="edgeStyle=orthogonalEdgeStyle;rounded=0;orthogonalLoop=1;jettySize=auto;html=1;entryX=0.25;entryY=0;entryDx=0;entryDy=0;exitX=0.75;exitY=0;exitDx=0;exitDy=0;" parent="1" source="thYXyoPydOWhGMwMgY5e-80" target="thYXyoPydOWhGMwMgY5e-85" edge="1">
          <mxGeometry relative="1" as="geometry">
            <Array as="points">
              <mxPoint x="108" y="-2570" />
              <mxPoint x="665" y="-2570" />
            </Array>
          </mxGeometry>
        </mxCell>
        <mxCell id="thYXyoPydOWhGMwMgY5e-105" value="1 vers n" style="edgeLabel;html=1;align=center;verticalAlign=middle;resizable=0;points=[];" parent="thYXyoPydOWhGMwMgY5e-104" vertex="1" connectable="0">
          <mxGeometry x="-0.0599" y="3" relative="1" as="geometry">
            <mxPoint x="-222" as="offset" />
          </mxGeometry>
        </mxCell>
        <mxCell id="thYXyoPydOWhGMwMgY5e-80" value="Relayer node 1" style="rounded=1;whiteSpace=wrap;html=1;" parent="1" vertex="1">
          <mxGeometry x="40" y="-2530" width="90" height="40" as="geometry" />
        </mxCell>
        <mxCell id="thYXyoPydOWhGMwMgY5e-81" value="1. Initialisation du protocole ou ajout d&#39;un nouveau node relayer" style="rounded=1;whiteSpace=wrap;html=1;fontSize=14;gradientColor=#E6E6E6;strokeColor=#E6E6E6;" parent="1" vertex="1">
          <mxGeometry x="30" y="-2900" width="720" height="30" as="geometry" />
        </mxCell>
        <mxCell id="thYXyoPydOWhGMwMgY5e-82" value="2. Échange et validation des partages" style="rounded=1;whiteSpace=wrap;html=1;fontSize=14;gradientColor=#E6E6E6;strokeColor=#E6E6E6;" parent="1" vertex="1">
          <mxGeometry x="30" y="-2630" width="720" height="30" as="geometry" />
        </mxCell>
        <mxCell id="thYXyoPydOWhGMwMgY5e-86" value="" style="edgeStyle=orthogonalEdgeStyle;rounded=0;orthogonalLoop=1;jettySize=auto;html=1;exitX=0.75;exitY=0;exitDx=0;exitDy=0;entryX=0.25;entryY=0;entryDx=0;entryDy=0;" parent="1" source="thYXyoPydOWhGMwMgY5e-83" target="thYXyoPydOWhGMwMgY5e-85" edge="1">
          <mxGeometry relative="1" as="geometry" />
        </mxCell>
        <mxCell id="thYXyoPydOWhGMwMgY5e-88" value="envoie une version chiffrée de&amp;nbsp;&lt;div&gt;sa contribution&lt;/div&gt;" style="edgeLabel;html=1;align=center;verticalAlign=middle;resizable=0;points=[];" parent="thYXyoPydOWhGMwMgY5e-86" vertex="1" connectable="0">
          <mxGeometry x="-0.0786" y="3" relative="1" as="geometry">
            <mxPoint x="16" y="43" as="offset" />
          </mxGeometry>
        </mxCell>
        <mxCell id="thYXyoPydOWhGMwMgY5e-102" value="2 vers n" style="edgeLabel;html=1;align=center;verticalAlign=middle;resizable=0;points=[];" parent="thYXyoPydOWhGMwMgY5e-86" vertex="1" connectable="0">
          <mxGeometry x="-0.0493" y="1" relative="1" as="geometry">
            <mxPoint x="-78" as="offset" />
          </mxGeometry>
        </mxCell>
        <mxCell id="thYXyoPydOWhGMwMgY5e-90" value="" style="edgeStyle=orthogonalEdgeStyle;rounded=0;orthogonalLoop=1;jettySize=auto;html=1;" parent="1" source="thYXyoPydOWhGMwMgY5e-83" target="thYXyoPydOWhGMwMgY5e-89" edge="1">
          <mxGeometry relative="1" as="geometry" />
        </mxCell>
        <mxCell id="thYXyoPydOWhGMwMgY5e-91" value="Validation de fragment envoyés" style="edgeLabel;html=1;align=center;verticalAlign=middle;resizable=0;points=[];" parent="thYXyoPydOWhGMwMgY5e-90" vertex="1" connectable="0">
          <mxGeometry x="-0.4187" y="2" relative="1" as="geometry">
            <mxPoint x="-2" y="47" as="offset" />
          </mxGeometry>
        </mxCell>
        <mxCell id="thYXyoPydOWhGMwMgY5e-98" style="edgeStyle=orthogonalEdgeStyle;rounded=0;orthogonalLoop=1;jettySize=auto;html=1;entryX=0.75;entryY=1;entryDx=0;entryDy=0;exitX=0.25;exitY=1;exitDx=0;exitDy=0;" parent="1" source="thYXyoPydOWhGMwMgY5e-83" target="thYXyoPydOWhGMwMgY5e-80" edge="1">
          <mxGeometry relative="1" as="geometry" />
        </mxCell>
        <mxCell id="thYXyoPydOWhGMwMgY5e-100" value="2 vers 1" style="edgeLabel;html=1;align=center;verticalAlign=middle;resizable=0;points=[];" parent="thYXyoPydOWhGMwMgY5e-98" vertex="1" connectable="0">
          <mxGeometry x="-0.014" relative="1" as="geometry">
            <mxPoint x="83" as="offset" />
          </mxGeometry>
        </mxCell>
        <mxCell id="thYXyoPydOWhGMwMgY5e-83" value="Relayer node 2" style="rounded=1;whiteSpace=wrap;html=1;" parent="1" vertex="1">
          <mxGeometry x="330" y="-2530" width="90" height="40" as="geometry" />
        </mxCell>
        <mxCell id="thYXyoPydOWhGMwMgY5e-93" style="edgeStyle=orthogonalEdgeStyle;rounded=0;orthogonalLoop=1;jettySize=auto;html=1;" parent="1" source="thYXyoPydOWhGMwMgY5e-85" target="thYXyoPydOWhGMwMgY5e-92" edge="1">
          <mxGeometry relative="1" as="geometry" />
        </mxCell>
        <mxCell id="thYXyoPydOWhGMwMgY5e-94" value="Validation de fragment envoyés" style="edgeLabel;html=1;align=center;verticalAlign=middle;resizable=0;points=[];" parent="thYXyoPydOWhGMwMgY5e-93" vertex="1" connectable="0">
          <mxGeometry x="-0.0583" relative="1" as="geometry">
            <mxPoint y="26" as="offset" />
          </mxGeometry>
        </mxCell>
        <mxCell id="thYXyoPydOWhGMwMgY5e-101" style="edgeStyle=orthogonalEdgeStyle;rounded=0;orthogonalLoop=1;jettySize=auto;html=1;entryX=0.75;entryY=1;entryDx=0;entryDy=0;exitX=0.25;exitY=1;exitDx=0;exitDy=0;" parent="1" source="thYXyoPydOWhGMwMgY5e-85" target="thYXyoPydOWhGMwMgY5e-83" edge="1">
          <mxGeometry relative="1" as="geometry" />
        </mxCell>
        <mxCell id="thYXyoPydOWhGMwMgY5e-103" value="n vers 2" style="edgeLabel;html=1;align=center;verticalAlign=middle;resizable=0;points=[];" parent="thYXyoPydOWhGMwMgY5e-101" vertex="1" connectable="0">
          <mxGeometry x="-0.0808" y="2" relative="1" as="geometry">
            <mxPoint x="77" as="offset" />
          </mxGeometry>
        </mxCell>
        <mxCell id="thYXyoPydOWhGMwMgY5e-106" style="edgeStyle=orthogonalEdgeStyle;rounded=0;orthogonalLoop=1;jettySize=auto;html=1;entryX=0.75;entryY=1;entryDx=0;entryDy=0;exitX=0.25;exitY=1;exitDx=0;exitDy=0;" parent="1" source="thYXyoPydOWhGMwMgY5e-85" target="thYXyoPydOWhGMwMgY5e-80" edge="1">
          <mxGeometry relative="1" as="geometry">
            <Array as="points">
              <mxPoint x="665" y="-2450" />
              <mxPoint x="108" y="-2450" />
            </Array>
          </mxGeometry>
        </mxCell>
        <mxCell id="thYXyoPydOWhGMwMgY5e-107" value="n vers 1" style="edgeLabel;html=1;align=center;verticalAlign=middle;resizable=0;points=[];" parent="thYXyoPydOWhGMwMgY5e-106" vertex="1" connectable="0">
          <mxGeometry x="-0.0128" y="2" relative="1" as="geometry">
            <mxPoint x="245" as="offset" />
          </mxGeometry>
        </mxCell>
        <mxCell id="thYXyoPydOWhGMwMgY5e-85" value="Relayer node ..n" style="rounded=1;whiteSpace=wrap;html=1;" parent="1" vertex="1">
          <mxGeometry x="640" y="-2530" width="100" height="40" as="geometry" />
        </mxCell>
        <mxCell id="thYXyoPydOWhGMwMgY5e-89" value="Fragment validé de 1 et n" style="rounded=1;whiteSpace=wrap;html=1;fillColor=#99FFCC;" parent="1" vertex="1">
          <mxGeometry x="330" y="-2380" width="90" height="40" as="geometry" />
        </mxCell>
        <mxCell id="thYXyoPydOWhGMwMgY5e-92" value="Fragment validé&lt;div&gt;de 1 et 2&lt;/div&gt;" style="rounded=1;whiteSpace=wrap;html=1;fillColor=#99FFCC;" parent="1" vertex="1">
          <mxGeometry x="645" y="-2380" width="90" height="40" as="geometry" />
        </mxCell>
        <mxCell id="thYXyoPydOWhGMwMgY5e-95" value="Fragment validé&lt;div&gt;de 2 et n&lt;/div&gt;" style="rounded=1;whiteSpace=wrap;html=1;fillColor=#99FFCC;" parent="1" vertex="1">
          <mxGeometry x="40" y="-2380" width="90" height="40" as="geometry" />
        </mxCell>
        <mxCell id="thYXyoPydOWhGMwMgY5e-109" value="&lt;li&gt;&lt;strong&gt;Chaque participant choisit une valeur secrète aléatoire&lt;/strong&gt;. Ce secret est utilisé pour générer une partie de la clé distribuée.&lt;/li&gt;&lt;li&gt;&lt;strong&gt;Ils calculent une contribution partielle&lt;/strong&gt; à partir de leur secret. Cette contribution est souvent une valeur publique qui peut être partagée avec les autres participants sans révéler le secret sous-jacent.&lt;/li&gt;" style="text;html=1;align=left;verticalAlign=top;whiteSpace=wrap;rounded=0;labelBackgroundColor=default;" parent="1" vertex="1">
          <mxGeometry x="40" y="-2760" width="525" height="90" as="geometry" />
        </mxCell>
        <mxCell id="thYXyoPydOWhGMwMgY5e-110" value="3. Calculs des fragments de la clé" style="rounded=1;whiteSpace=wrap;html=1;fontSize=14;gradientColor=#E6E6E6;strokeColor=#E6E6E6;" parent="1" vertex="1">
          <mxGeometry x="30" y="-2160" width="720" height="30" as="geometry" />
        </mxCell>
        <mxCell id="thYXyoPydOWhGMwMgY5e-115" value="" style="edgeStyle=orthogonalEdgeStyle;rounded=0;orthogonalLoop=1;jettySize=auto;html=1;" parent="1" source="thYXyoPydOWhGMwMgY5e-111" target="thYXyoPydOWhGMwMgY5e-114" edge="1">
          <mxGeometry relative="1" as="geometry" />
        </mxCell>
        <mxCell id="thYXyoPydOWhGMwMgY5e-116" value="calcul son propre&amp;nbsp;&lt;div&gt;fragment de la clé privée&lt;/div&gt;" style="edgeLabel;html=1;align=center;verticalAlign=middle;resizable=0;points=[];" parent="thYXyoPydOWhGMwMgY5e-115" vertex="1" connectable="0">
          <mxGeometry x="-0.3844" y="2" relative="1" as="geometry">
            <mxPoint x="27" y="2" as="offset" />
          </mxGeometry>
        </mxCell>
        <mxCell id="thYXyoPydOWhGMwMgY5e-111" value="Relayer node 1" style="rounded=1;whiteSpace=wrap;html=1;" parent="1" vertex="1">
          <mxGeometry x="230" y="-2087" width="90" height="40" as="geometry" />
        </mxCell>
        <mxCell id="thYXyoPydOWhGMwMgY5e-118" style="edgeStyle=orthogonalEdgeStyle;rounded=0;orthogonalLoop=1;jettySize=auto;html=1;" parent="1" source="thYXyoPydOWhGMwMgY5e-112" target="thYXyoPydOWhGMwMgY5e-111" edge="1">
          <mxGeometry relative="1" as="geometry" />
        </mxCell>
        <mxCell id="thYXyoPydOWhGMwMgY5e-112" value="Fragment reçus et validés&lt;div&gt;des n nodes&lt;/div&gt;" style="rounded=1;whiteSpace=wrap;html=1;fillColor=#99FFCC;" parent="1" vertex="1">
          <mxGeometry x="75" y="-2087" width="90" height="40" as="geometry" />
        </mxCell>
        <mxCell id="thYXyoPydOWhGMwMgY5e-114" value="fragment de clé&lt;div&gt;privée&lt;/div&gt;" style="rounded=1;whiteSpace=wrap;html=1;fillColor=#FF99CC;" parent="1" vertex="1">
          <mxGeometry x="490" y="-2087" width="90" height="40" as="geometry" />
        </mxCell>
        <mxCell id="thYXyoPydOWhGMwMgY5e-117" value="&lt;li&gt;&lt;strong&gt;Combinaison des fragments&lt;/strong&gt; : Chaque participant utilise les données reçues des autres pour calculer un fragment local de la clé.&lt;/li&gt;&lt;li&gt;&lt;strong&gt;Fragment de la clé privée&lt;/strong&gt; : Ce fragment est une partie de la clé privée. Seul un nombre suffisant de fragments (au moins T) pourra être utilisé pour signer des transactions ou reconstituer une signature.&lt;/li&gt;" style="text;html=1;align=left;verticalAlign=top;whiteSpace=wrap;rounded=0;labelBackgroundColor=default;" parent="1" vertex="1">
          <mxGeometry x="80" y="-2010" width="525" height="90" as="geometry" />
        </mxCell>
        <mxCell id="thYXyoPydOWhGMwMgY5e-119" value="4. Sécurité et validation" style="rounded=1;whiteSpace=wrap;html=1;fontSize=14;gradientColor=#E6E6E6;strokeColor=#E6E6E6;" parent="1" vertex="1">
          <mxGeometry x="31" y="-1830" width="719" height="30" as="geometry" />
        </mxCell>
        <mxCell id="thYXyoPydOWhGMwMgY5e-120" value="&lt;li&gt;&lt;strong&gt;Chaque relayer envoie une version chiffrée&lt;/strong&gt; de sa contribution aux autres relayers. Cela signifie que les autres participants peuvent utiliser ces données sans connaître les secrets individuels.&lt;br&gt;&lt;/li&gt;&lt;li&gt;&lt;strong&gt;Chaque participant reçoit les contributions des autres&lt;/strong&gt;. Avec ces contributions, chaque relayer est capable de valider que les autres relayers ont bien envoyé des fragments valides.&lt;/li&gt;" style="text;html=1;align=left;verticalAlign=top;whiteSpace=wrap;rounded=0;labelBackgroundColor=default;" parent="1" vertex="1">
          <mxGeometry x="30" y="-2290" width="525" height="73" as="geometry" />
        </mxCell>
        <mxCell id="thYXyoPydOWhGMwMgY5e-122" value="&lt;li&gt;Les fragments générés par chaque participant sont corrects et conformes.&lt;br&gt;&lt;/li&gt;&lt;li&gt;Les fragments peuvent être combinés pour créer des signatures valides, mais personne ne peut reconstituer la clé privée complète à partir d&#39;un fragment seul.&lt;/li&gt;" style="text;html=1;align=left;verticalAlign=top;whiteSpace=wrap;rounded=0;labelBackgroundColor=default;" parent="1" vertex="1">
          <mxGeometry x="90" y="-1660" width="525" height="50" as="geometry" />
        </mxCell>
        <mxCell id="thYXyoPydOWhGMwMgY5e-125" value="" style="edgeStyle=orthogonalEdgeStyle;rounded=0;orthogonalLoop=1;jettySize=auto;html=1;" parent="1" source="thYXyoPydOWhGMwMgY5e-123" target="thYXyoPydOWhGMwMgY5e-124" edge="1">
          <mxGeometry relative="1" as="geometry" />
        </mxCell>
        <mxCell id="thYXyoPydOWhGMwMgY5e-123" value="fragment de clé&lt;div&gt;privée&lt;/div&gt;" style="rounded=1;whiteSpace=wrap;html=1;fillColor=#FF99CC;" parent="1" vertex="1">
          <mxGeometry x="75" y="-1760" width="90" height="40" as="geometry" />
        </mxCell>
        <mxCell id="thYXyoPydOWhGMwMgY5e-127" value="" style="edgeStyle=orthogonalEdgeStyle;rounded=0;orthogonalLoop=1;jettySize=auto;html=1;" parent="1" source="thYXyoPydOWhGMwMgY5e-124" target="thYXyoPydOWhGMwMgY5e-126" edge="1">
          <mxGeometry relative="1" as="geometry" />
        </mxCell>
        <mxCell id="thYXyoPydOWhGMwMgY5e-128" value="validation des fragments&lt;div&gt;via mécanisme cryptographique&lt;/div&gt;" style="edgeLabel;html=1;align=center;verticalAlign=middle;resizable=0;points=[];" parent="thYXyoPydOWhGMwMgY5e-127" vertex="1" connectable="0">
          <mxGeometry x="-0.2587" y="-2" relative="1" as="geometry">
            <mxPoint x="33" y="-2" as="offset" />
          </mxGeometry>
        </mxCell>
        <mxCell id="thYXyoPydOWhGMwMgY5e-124" value="Relayer 1" style="rounded=1;whiteSpace=wrap;html=1;" parent="1" vertex="1">
          <mxGeometry x="230" y="-1760" width="90" height="40" as="geometry" />
        </mxCell>
        <mxCell id="thYXyoPydOWhGMwMgY5e-126" value="fragment validé et sécurisé" style="rounded=1;whiteSpace=wrap;html=1;" parent="1" vertex="1">
          <mxGeometry x="560" y="-1760" width="90" height="40" as="geometry" />
        </mxCell>
        <mxCell id="thYXyoPydOWhGMwMgY5e-130" value="Protocole de Génération de Clé Distribuée (DKG)" style="rounded=1;whiteSpace=wrap;html=1;fontSize=17;gradientColor=#CCCCFF;strokeColor=#E6E6E6;" parent="1" vertex="1">
          <mxGeometry x="20" y="-2950" width="750" height="40" as="geometry" />
        </mxCell>
        <mxCell id="thYXyoPydOWhGMwMgY5e-131" value="Utilisation de la Clé Privée Distribuée : Signature Distribuée" style="rounded=1;whiteSpace=wrap;html=1;fontSize=17;gradientColor=#CCCCFF;strokeColor=#E6E6E6;" parent="1" vertex="1">
          <mxGeometry x="20" y="-1570" width="750" height="40" as="geometry" />
        </mxCell>
        <mxCell id="thYXyoPydOWhGMwMgY5e-134" value="" style="edgeStyle=orthogonalEdgeStyle;rounded=0;orthogonalLoop=1;jettySize=auto;html=1;" parent="1" source="thYXyoPydOWhGMwMgY5e-132" target="thYXyoPydOWhGMwMgY5e-133" edge="1">
          <mxGeometry relative="1" as="geometry" />
        </mxCell>
        <mxCell id="thYXyoPydOWhGMwMgY5e-136" value="Signer la transaction&amp;nbsp;&lt;div&gt;par T des N relayers&lt;/div&gt;" style="edgeLabel;html=1;align=center;verticalAlign=middle;resizable=0;points=[];" parent="thYXyoPydOWhGMwMgY5e-134" vertex="1" connectable="0">
          <mxGeometry x="-0.1167" y="-1" relative="1" as="geometry">
            <mxPoint as="offset" />
          </mxGeometry>
        </mxCell>
        <mxCell id="thYXyoPydOWhGMwMgY5e-132" value="Transaction à signer" style="rounded=1;whiteSpace=wrap;html=1;" parent="1" vertex="1">
          <mxGeometry x="60" y="-1430" width="120" height="40" as="geometry" />
        </mxCell>
        <mxCell id="thYXyoPydOWhGMwMgY5e-139" value="" style="edgeStyle=orthogonalEdgeStyle;rounded=0;orthogonalLoop=1;jettySize=auto;html=1;" parent="1" source="thYXyoPydOWhGMwMgY5e-133" target="thYXyoPydOWhGMwMgY5e-138" edge="1">
          <mxGeometry relative="1" as="geometry" />
        </mxCell>
        <mxCell id="thYXyoPydOWhGMwMgY5e-140" value="Signer la Tx via fragment&amp;nbsp;&lt;div&gt;de clé privée&lt;/div&gt;" style="edgeLabel;html=1;align=center;verticalAlign=middle;resizable=0;points=[];" parent="thYXyoPydOWhGMwMgY5e-139" vertex="1" connectable="0">
          <mxGeometry x="-0.2178" y="2" relative="1" as="geometry">
            <mxPoint x="17" y="2" as="offset" />
          </mxGeometry>
        </mxCell>
        <mxCell id="thYXyoPydOWhGMwMgY5e-133" value="Relayer 1" style="rounded=1;whiteSpace=wrap;html=1;" parent="1" vertex="1">
          <mxGeometry x="335" y="-1430" width="120" height="40" as="geometry" />
        </mxCell>
        <mxCell id="thYXyoPydOWhGMwMgY5e-135" value="1, Processus de Signature via MPC+TSS" style="rounded=1;whiteSpace=wrap;html=1;fontSize=14;gradientColor=#E6E6E6;strokeColor=#E6E6E6;" parent="1" vertex="1">
          <mxGeometry x="35.5" y="-1510" width="719" height="30" as="geometry" />
        </mxCell>
        <mxCell id="thYXyoPydOWhGMwMgY5e-144" value="" style="edgeStyle=orthogonalEdgeStyle;rounded=0;orthogonalLoop=1;jettySize=auto;html=1;" parent="1" source="thYXyoPydOWhGMwMgY5e-138" target="thYXyoPydOWhGMwMgY5e-143" edge="1">
          <mxGeometry relative="1" as="geometry">
            <Array as="points">
              <mxPoint x="690" y="-1350" />
              <mxPoint x="690" y="-1350" />
            </Array>
          </mxGeometry>
        </mxCell>
        <mxCell id="thYXyoPydOWhGMwMgY5e-145" value="partage des Tx signée" style="edgeLabel;html=1;align=center;verticalAlign=middle;resizable=0;points=[];" parent="thYXyoPydOWhGMwMgY5e-144" vertex="1" connectable="0">
          <mxGeometry x="-0.3417" relative="1" as="geometry">
            <mxPoint as="offset" />
          </mxGeometry>
        </mxCell>
        <mxCell id="thYXyoPydOWhGMwMgY5e-138" value="Tx signée partiellement" style="rounded=1;whiteSpace=wrap;html=1;" parent="1" vertex="1">
          <mxGeometry x="630" y="-1430" width="120" height="40" as="geometry" />
        </mxCell>
        <mxCell id="thYXyoPydOWhGMwMgY5e-147" value="" style="edgeStyle=orthogonalEdgeStyle;rounded=0;orthogonalLoop=1;jettySize=auto;html=1;" parent="1" source="thYXyoPydOWhGMwMgY5e-143" target="thYXyoPydOWhGMwMgY5e-146" edge="1">
          <mxGeometry relative="1" as="geometry" />
        </mxCell>
        <mxCell id="thYXyoPydOWhGMwMgY5e-148" value="reconstitution des&lt;div&gt;fragments de la Tx signée&lt;/div&gt;" style="edgeLabel;html=1;align=center;verticalAlign=middle;resizable=0;points=[];" parent="thYXyoPydOWhGMwMgY5e-147" vertex="1" connectable="0">
          <mxGeometry x="-0.0038" y="-1" relative="1" as="geometry">
            <mxPoint as="offset" />
          </mxGeometry>
        </mxCell>
        <mxCell id="thYXyoPydOWhGMwMgY5e-143" value="Relayer ..n" style="rounded=1;whiteSpace=wrap;html=1;" parent="1" vertex="1">
          <mxGeometry x="630" y="-1310" width="120" height="40" as="geometry" />
        </mxCell>
        <mxCell id="thYXyoPydOWhGMwMgY5e-146" value="Tx signée reconstituée" style="rounded=1;whiteSpace=wrap;html=1;gradientColor=#CCFF99;strokeColor=#E6E6E6;" parent="1" vertex="1">
          <mxGeometry x="335" y="-1310" width="120" height="40" as="geometry" />
        </mxCell>
        <mxCell id="thYXyoPydOWhGMwMgY5e-149" value="&lt;li&gt;&lt;strong&gt;Demande de signature&lt;/strong&gt; : Une transaction est soumise, et le réseau de relayers doit la signer.&lt;/li&gt;&lt;li&gt;&lt;strong&gt;Signature distribuée via MPC&lt;/strong&gt; : Chaque relayer utilise son fragment de la clé privée pour calculer une contribution partielle à la signature.&lt;ul&gt;&lt;li&gt;&lt;strong&gt;Aucune clé privée complète n&#39;est jamais reconstituée&lt;/strong&gt;. Chaque relayer contribue seulement avec son propre fragment.&lt;/li&gt;&lt;/ul&gt;&lt;/li&gt;&lt;li&gt;&lt;strong&gt;Combinaison des contributions&lt;/strong&gt; : Les contributions des &lt;strong&gt;T participants&lt;/strong&gt; sont combinées pour produire une &lt;strong&gt;signature valide&lt;/strong&gt; sur la transaction.&lt;ul&gt;&lt;li&gt;Cette signature est identique à celle qu&#39;aurait produite une clé privée complète, mais elle est générée de manière distribuée.&lt;/li&gt;&lt;/ul&gt;&lt;/li&gt;" style="text;html=1;align=left;verticalAlign=top;whiteSpace=wrap;rounded=0;labelBackgroundColor=default;" parent="1" vertex="1">
          <mxGeometry x="50" y="-1240" width="710" height="170" as="geometry" />
        </mxCell>
        <mxCell id="thYXyoPydOWhGMwMgY5e-150" value="&lt;strong style=&quot;font-size: 16px;&quot;&gt;MPC&lt;/strong&gt; est utilisé pour la génération et la gestion distribuée des clés privées&lt;div style=&quot;font-size: 16px;&quot;&gt;&lt;br style=&quot;font-size: 16px;&quot;&gt;&lt;/div&gt;&lt;div style=&quot;font-size: 16px;&quot;&gt;&lt;strong style=&quot;font-size: 16px;&quot;&gt;TSS&lt;/strong&gt; est spécifiquement orienté vers la &lt;strong style=&quot;font-size: 16px;&quot;&gt;création de signatures&lt;/strong&gt; sécurisées et distribuées&lt;br style=&quot;font-size: 16px;&quot;&gt;&lt;/div&gt;" style="text;html=1;align=left;verticalAlign=top;whiteSpace=wrap;rounded=0;labelBackgroundColor=default;fontSize=16;" parent="1" vertex="1">
          <mxGeometry x="31" y="-1010" width="489" height="70" as="geometry" />
        </mxCell>
      </root>
    </mxGraphModel>
  </diagram>
  <diagram id="USY-s4bwg46s1qRToUk8" name="network p2p arch">
    <mxGraphModel dx="4136" dy="1622" grid="1" gridSize="10" guides="1" tooltips="1" connect="1" arrows="1" fold="1" page="1" pageScale="1" pageWidth="1169" pageHeight="827" math="0" shadow="0">
      <root>
        <mxCell id="0" />
        <mxCell id="1" parent="0" />
        <mxCell id="ICaWzB2LusAWYeYSK3EQ-18" value="Validator node" style="rounded=1;whiteSpace=wrap;html=1;strokeColor=#3333FF;shadow=1;" parent="1" vertex="1">
          <mxGeometry x="250" y="1230" width="120" height="60" as="geometry" />
        </mxCell>
        <mxCell id="WKKQ7slUlsZvzBeE3rAa-1" value="&lt;b&gt;&lt;font style=&quot;font-size: 16px;&quot;&gt;Transport&lt;/font&gt;&lt;/b&gt;&lt;br&gt;&lt;br&gt;&lt;ul&gt;&lt;li&gt;&lt;b&gt;TCP&lt;/b&gt; : Recommandé pour les réseaux de blockchain où la fiabilité des données et la compatibilité avec les systèmes sont prioritaires. TCP est stable et bien supporté, parfait pour des réseaux blockchain classiques avec des nœuds complets.&lt;/li&gt;&lt;ul&gt;&lt;li&gt;&lt;b style=&quot;background-color: initial;&quot;&gt;Avantages&lt;/b&gt;&lt;span style=&quot;background-color: initial;&quot;&gt;&amp;nbsp;&lt;/span&gt;&lt;span style=&quot;background-color: initial;&quot;&gt;:&amp;nbsp;&lt;/span&gt;&lt;/li&gt;&lt;ul&gt;&lt;li&gt;&lt;b style=&quot;background-color: initial;&quot;&gt;Fiabilité des transmissions&lt;/b&gt;&lt;span style=&quot;background-color: initial;&quot;&gt;&amp;nbsp;&lt;/span&gt;&lt;span style=&quot;background-color: initial;&quot;&gt;: TCP garantit que toutes les transactions et blocs sont reçus dans le bon ordre, ce qui est essentiel pour la synchronisation des blocs et la cohérence des données entre les nœuds.&lt;/span&gt;&lt;/li&gt;&lt;li&gt;&lt;b&gt;&lt;span style=&quot;white-space: pre;&quot;&gt;&#x9;&lt;/span&gt;Compatibilité élevée&lt;/b&gt;&amp;nbsp;: C’est le protocole de base supporté par tous les systèmes d’exploitation et les équipements réseau.&lt;/li&gt;&lt;/ul&gt;&lt;li&gt;&lt;span style=&quot;background-color: initial;&quot;&gt;&lt;b&gt;Inconvénients&lt;/b&gt;&amp;nbsp;:&amp;nbsp;&lt;/span&gt;&lt;/li&gt;&lt;ul&gt;&lt;li&gt;&lt;b&gt;Latence&lt;/b&gt;&amp;nbsp;: TCP introduit une certaine latence en raison de ses mécanismes de contrôle des paquets et de vérification d’intégrité.&lt;/li&gt;&lt;li&gt;&lt;b&gt;Ralentissement&lt;/b&gt;&amp;nbsp;en cas de congestion réseau : TCP réduit son débit pour gérer les pertes de paquets, ce qui peut poser problème pour la rapidité de la propagation des blocs.&lt;/li&gt;&lt;/ul&gt;&lt;li&gt;&lt;span style=&quot;background-color: initial;&quot;&gt;&lt;b&gt;Recommandation&lt;/b&gt;&amp;nbsp;: TCP est un excellent choix pour un réseau de blockchain classique, notamment pour les nœuds complets où la fiabilité et la séquence des données sont plus critiques que la latence. Les blockchains comme Bitcoin utilisent principalement TCP pour sa robustesse.&lt;/span&gt;&lt;/li&gt;&lt;/ul&gt;&lt;/ul&gt;&lt;ul&gt;&lt;li&gt;&lt;b&gt;QUIC&lt;/b&gt; : Convient pour les blockchains à haute performance nécessitant des transmissions rapides et fiables. Pour des blockchains modernes orientées vers la performance, comme celles traitant de nombreuses transactions à grande vitesse, QUIC pourrait offrir des gains importants en latence et en efficacité.&lt;/li&gt;&lt;ul&gt;&lt;li&gt;&lt;b&gt;Avantages&lt;/b&gt; :&amp;nbsp;&lt;/li&gt;&lt;ul&gt;&lt;li&gt;&lt;b&gt;Faible latence&lt;/b&gt; : QUIC a été conçu pour être rapide, avec des temps de connexion et de transmission plus faibles que TCP.&lt;/li&gt;&lt;li&gt;&lt;b&gt;Fiabilité&lt;/b&gt; : QUIC apporte la fiabilité de TCP tout en utilisant UDP, ce qui signifie qu’il peut être plus résilient aux pertes de paquets sans induire de délais significatifs.&lt;/li&gt;&lt;li&gt;&lt;b&gt;Multiplexage&lt;/b&gt; : Permet plusieurs flux indépendants dans une seule connexion, ce qui peut être utile pour synchroniser différents types de données (transactions, blocs) sans attente.&lt;/li&gt;&lt;/ul&gt;&lt;li&gt;&lt;span style=&quot;background-color: initial;&quot;&gt;&lt;b&gt;Inconvénients&lt;/b&gt; :&amp;nbsp;&lt;/span&gt;&lt;/li&gt;&lt;ul&gt;&lt;li&gt;&lt;b&gt;Support limité&lt;/b&gt; : Bien que QUIC gagne en popularité, tous les équipements réseau et systèmes n’ont pas encore adopté ce protocole, ce qui peut poser des problèmes d’interopérabilité.&amp;nbsp;&lt;/li&gt;&lt;li&gt;&lt;b&gt;Complexité d’implémentation&lt;/b&gt; : Mettre en œuvre QUIC peut être plus compliqué pour les nouveaux projets, en particulier pour assurer sa compatibilité avec des nœuds variés.&amp;nbsp;&lt;/li&gt;&lt;/ul&gt;&lt;li&gt;&lt;span style=&quot;background-color: initial;&quot;&gt;&lt;b&gt;Recommandation&lt;/b&gt; : QUIC est bien adapté pour les réseaux de blockchain modernes nécessitant des performances élevées, particulièrement pour les blockchains orientées vers des transactions rapides. Son faible temps de latence et sa capacité de multiplexage en font un bon choix pour les systèmes blockchain à grande échelle ou à forte charge.&lt;/span&gt;&lt;/li&gt;&lt;/ul&gt;&lt;/ul&gt;" style="text;html=1;whiteSpace=wrap;overflow=hidden;rounded=0;" parent="1" vertex="1">
          <mxGeometry x="1810" y="250" width="450" height="840" as="geometry" />
        </mxCell>
        <mxCell id="WKKQ7slUlsZvzBeE3rAa-2" value="&lt;b style=&quot;font-size: 16px;&quot;&gt;&lt;font style=&quot;font-size: 16px;&quot;&gt;Routage - publish/subscribe&lt;/font&gt;&lt;/b&gt;&lt;div style=&quot;&quot;&gt;&lt;ul style=&quot;&quot;&gt;&lt;li style=&quot;font-size: 12px;&quot;&gt;&lt;b&gt;gossipsub :&amp;nbsp;&lt;/b&gt;&lt;/li&gt;&lt;ul style=&quot;font-size: 12px;&quot;&gt;&lt;li&gt;&lt;/li&gt;&lt;li style=&quot;&quot;&gt;&lt;strong style=&quot;font-weight: bold;&quot;&gt;Fonctionnement :&lt;/strong&gt; GossipSub améliore FloodSub en introduisant des concepts de gossip (bavardage), un protocole par lequel les nœuds échangent périodiquement des informations sur les messages qu’ils ont reçus sans les transmettre directement. Les messages ne sont donc transmis qu’aux pairs qui n’en disposent pas encore, limitant ainsi les duplications inutiles.&lt;/li&gt;&lt;li style=&quot;&quot;&gt;&lt;b&gt;Avantages&lt;/b&gt; : GossipSub réduit significativement l’utilisation de la bande passante, optimise les transmissions, et est plus résistant aux attaques Sybil (falsification de nœuds) ou aux attaques de censure.&lt;/li&gt;&lt;li style=&quot;&quot;&gt;&lt;b&gt;Inconvénients&lt;/b&gt; : Le protocole est plus complexe et requiert une certaine coordination entre nœuds pour fonctionner efficacement, ce qui peut ajouter une légère latence.&lt;/li&gt;&lt;li style=&quot;&quot;&gt;&lt;b&gt;Cas d’utilisation&lt;/b&gt; : GossipSub est privilégié dans les environnements distribués large échelle, comme IPFS ou certaines blockchains (par exemple, Ethereum 2.0) où la fiabilité et la bande passante sont critiques.&lt;/li&gt;&lt;li&gt;&lt;b&gt;Utilité&lt;/b&gt; : Protocol de référence pour les réseaux de grande envergure, adapté pour la production et les applications exigeantes.&lt;/li&gt;&lt;li&gt;&lt;b&gt;Performance&lt;/b&gt; : Optimise l’utilisation de la bande passante et offre une résistance aux défaillances et attaques Sybil. Il comprend un mécanisme de &quot;gossip&quot; pour échanger des métadonnées au lieu des messages entiers, et un mode &quot;mesh&quot; pour gérer efficacement les sous-réseaux d&#39;abonnés.&lt;/li&gt;&lt;li&gt;&lt;b&gt;Cas d’usage&lt;/b&gt; : Utilisé dans les blockchains (Ethereum 2.0, Filecoin, IPFS) et les réseaux P2P décentralisés, il assure une propagation robuste et efficace.&lt;/li&gt;&lt;/ul&gt;&lt;li style=&quot;&quot;&gt;&lt;h3&gt;&lt;strong&gt;&lt;font style=&quot;font-size: 12px;&quot;&gt;FloodSub&lt;/font&gt;&lt;/strong&gt;&lt;/h3&gt;&lt;ul&gt;&lt;li&gt;&lt;strong&gt;Fonctionnement :&lt;/strong&gt; FloodSub est un protocole de routage simple où les messages sont envoyés à tous les pairs connectés dans le réseau. Lorsqu&#39;un nœud publie un message, celui-ci est directement diffusé (&quot;flooded&quot;) à tous les pairs abonnés sans optimisation.&lt;/li&gt;&lt;li&gt;&lt;strong&gt;Avantages :&lt;/strong&gt; FloodSub est très simple à implémenter et assure une propagation rapide des messages dans des réseaux de petite taille ou peu denses.&lt;/li&gt;&lt;li&gt;&lt;strong&gt;Inconvénients :&lt;/strong&gt; Dans des réseaux larges, FloodSub devient très coûteux en bande passante et en ressources, car les messages sont dupliqués sur plusieurs chemins, générant des redondances importantes.&lt;/li&gt;&lt;li&gt;&lt;strong&gt;Cas d’utilisation :&lt;/strong&gt; FloodSub peut être utilisé dans de petits réseaux ou pour des tests de prototypage, mais il n&#39;est pas adapté pour des réseaux larges ou des environnements de production.&lt;/li&gt;&lt;li&gt;&lt;strong&gt;Utilité&lt;/strong&gt; : Pour une diffusion rapide mais peu optimisée des messages, particulièrement dans de petits réseaux.&lt;/li&gt;&lt;li&gt;&lt;strong&gt;Performance&lt;/strong&gt; : Économe en ressources CPU mais très consommateur de bande passante dans des réseaux de grande taille.&lt;/li&gt;&lt;li&gt;&lt;strong&gt;Cas d&#39;usage&lt;/strong&gt; : Test de prototype et petits réseaux ou pour des applications nécessitant une distribution immédiate des messages sans logique de gestion complexe.&lt;/li&gt;&lt;/ul&gt;&lt;/li&gt;&lt;/ul&gt;&lt;/div&gt;" style="text;html=1;whiteSpace=wrap;overflow=hidden;rounded=0;" parent="1" vertex="1">
          <mxGeometry x="2338" y="120" width="470" height="840" as="geometry" />
        </mxCell>
        <mxCell id="WKKQ7slUlsZvzBeE3rAa-4" value="&lt;b style=&quot;font-size: 16px;&quot;&gt;Secure Communication&lt;br&gt;&lt;/b&gt;&lt;font style=&quot;font-size: 12px;&quot;&gt;&lt;b&gt;&lt;br&gt;&lt;/b&gt;&lt;/font&gt;&lt;div style=&quot;&quot;&gt;&lt;b&gt;Noise&lt;/b&gt; :&amp;nbsp;&lt;span style=&quot;background-color: initial;&quot;&gt;Flexible, performant, bien adapté aux environnements décentralisés.&amp;nbsp;&lt;/span&gt;&lt;/div&gt;" style="text;html=1;whiteSpace=wrap;overflow=hidden;rounded=0;" parent="1" vertex="1">
          <mxGeometry x="1810" y="120" width="460" height="80" as="geometry" />
        </mxCell>
        <mxCell id="WKKQ7slUlsZvzBeE3rAa-5" value="&lt;font style=&quot;&quot;&gt;&lt;b style=&quot;&quot;&gt;&lt;span style=&quot;font-size: 16px;&quot;&gt;Discovery - Protocole de découverte de pairs&lt;/span&gt;&lt;/b&gt;&lt;/font&gt;&lt;div&gt;&lt;font style=&quot;&quot;&gt;&lt;b style=&quot;&quot;&gt;&lt;span style=&quot;font-size: 16px;&quot;&gt;&lt;br&gt;&lt;/span&gt;&lt;/b&gt;&lt;/font&gt;&lt;/div&gt;&lt;div&gt;&lt;ul&gt;&lt;li&gt;&lt;font style=&quot;&quot;&gt;&lt;b style=&quot;&quot;&gt;&lt;font style=&quot;font-size: 12px;&quot;&gt;kademlia - kad DHT :&amp;nbsp;&lt;/font&gt;&lt;/b&gt;&lt;/font&gt;Kademlia est un protocole de table de hachage distribuée (DHT) qui permet aux nœuds d&#39;un réseau de découvrir d&#39;autres pairs en utilisant un espace d&#39;identifiants (hash) organisé en arbre binaire. Chaque nœud stocke des informations sur un sous-ensemble de pairs, et la DHT permet la recherche de pairs de manière efficace en O(log n) en se basant sur la distance de l&#39;identifiant. Kad DHT est adapté aux réseaux P2P distribués où les nœuds peuvent être dispersés de manière large et géographique, comme les réseaux de partage de fichiers, blockchain ou les applications nécessitant une recherche distribuée de pairs.&amp;nbsp;&lt;/li&gt;&lt;ul&gt;&lt;li&gt;&lt;font style=&quot;&quot;&gt;&lt;b&gt;Avantages&lt;/b&gt;:&lt;/font&gt;&lt;/li&gt;&lt;ul&gt;&lt;li&gt;&lt;font style=&quot;&quot;&gt;&lt;/font&gt;&lt;/li&gt;&lt;li&gt;&lt;font style=&quot;&quot;&gt;Efficace pour la découverte de pairs sur des réseaux de grande envergure.&lt;/font&gt;&lt;/li&gt;&lt;li&gt;&lt;font style=&quot;&quot;&gt;Fiable même dans des réseaux très dynamiques où les nœuds se connectent et se déconnectent fréquemment.&lt;/font&gt;&lt;/li&gt;&lt;li&gt;&lt;font style=&quot;&quot;&gt;Aucune dépendance centralisée ; il est totalement décentralisé.&lt;/font&gt;&lt;/li&gt;&lt;/ul&gt;&lt;li&gt;&lt;b&gt;Inconvénients&lt;/b&gt;:&lt;/li&gt;&lt;li&gt;&lt;ul&gt;&lt;li&gt;Complexité supplémentaire dans l&#39;implémentation et la gestion des tables de routage.&lt;/li&gt;&lt;li&gt;Peut introduire une latence dans la découverte de pairs, surtout lorsque le réseau est très large.&lt;/li&gt;&lt;/ul&gt;&lt;/li&gt;&lt;/ul&gt;&lt;li&gt;&lt;b&gt;mDNS&lt;/b&gt;&amp;nbsp;:&amp;nbsp;&lt;span style=&quot;background-color: initial;&quot;&gt;idéal pour les environnements de réseau local (LAN) où les nœuds sont physiquement proches, comme un réseau domestique ou un petit réseau d&#39;entreprise.&lt;/span&gt;&lt;/li&gt;&lt;ul&gt;&lt;li&gt;&lt;span style=&quot;background-color: initial;&quot;&gt;&lt;b&gt;Inconvénient&lt;/b&gt; :&amp;nbsp;&lt;/span&gt;&lt;ul&gt;&lt;li&gt;Limité aux réseaux locaux ; il ne fonctionne pas bien (voire pas du tout) à travers Internet.&lt;/li&gt;&lt;li&gt;Ne convient pas aux réseaux plus larges et dispersés géographiquement.&lt;/li&gt;&lt;/ul&gt;&lt;/li&gt;&lt;/ul&gt;&lt;li&gt;&lt;b&gt;rendezvous&lt;/b&gt; :&amp;nbsp;&lt;span style=&quot;background-color: initial;&quot;&gt;utilisé pour les réseaux distribués où les nœuds ne sont pas forcément sur le même LAN, par exemple, pour des réseaux globaux où les pairs sont répartis sur Internet.&lt;/span&gt;&lt;/li&gt;&lt;ul&gt;&lt;li&gt;&lt;span style=&quot;background-color: initial;&quot;&gt;&lt;b&gt;Inconvénient&lt;/b&gt;:&amp;nbsp;&lt;/span&gt;&lt;/li&gt;&lt;ul&gt;&lt;li&gt;Dépendance envers des serveurs de rendezvous.&lt;/li&gt;&lt;/ul&gt;&lt;/ul&gt;&lt;/ul&gt;&lt;/div&gt;&lt;div style=&quot;&quot;&gt;&lt;span style=&quot;background-color: initial;&quot;&gt;&lt;span style=&quot;white-space: pre;&quot;&gt;&#x9;&lt;/span&gt;&lt;br&gt;&lt;/span&gt;&lt;/div&gt;" style="text;html=1;whiteSpace=wrap;overflow=hidden;rounded=0;" parent="1" vertex="1">
          <mxGeometry x="1225" y="600" width="460" height="590" as="geometry" />
        </mxCell>
        <mxCell id="WKKQ7slUlsZvzBeE3rAa-6" value="&lt;h1 style=&quot;margin-top: 0px; font-size: 16px;&quot;&gt;&lt;font style=&quot;font-size: 16px;&quot;&gt;Peer routing&amp;nbsp;&lt;/font&gt;&lt;/h1&gt;&lt;ul&gt;&lt;li&gt;&lt;span style=&quot;background-color: initial;&quot;&gt;&lt;b&gt;Kademlia&lt;/b&gt;&amp;nbsp; :&amp;nbsp;&lt;/span&gt;Le &lt;em&gt;peer routing&lt;/em&gt; désigne la capacité de trouver des chemins ou des routes vers d&#39;autres pairs spécifiques sur le réseau. En tant que protocole de &lt;em&gt;peer routing&lt;/em&gt;, Kademlia permet à un nœud de déterminer les pairs les plus proches d&#39;une clé donnée. Ceci est particulièrement utile pour :&lt;/li&gt;&lt;ul&gt;&lt;li&gt;&lt;strong&gt;Résoudre des adresses de pairs&lt;/strong&gt; : si un nœud A cherche à communiquer avec un nœud B dont il connaît l&#39;ID mais pas l&#39;adresse, le protocole Kademlia permet de trouver un chemin vers B en demandant aux nœuds les plus proches de l&#39;ID de B de fournir l&#39;information.&lt;/li&gt;&lt;li&gt;&lt;strong&gt;Acheminer des messages ou des requêtes&lt;/strong&gt; : le réseau peut ainsi être utilisé pour transmettre des requêtes ou des messages de manière décentralisée, en sautant d&#39;un nœud à l&#39;autre jusqu&#39;à atteindre la destination.&lt;/li&gt;&lt;/ul&gt;&lt;/ul&gt;" style="text;html=1;whiteSpace=wrap;overflow=hidden;rounded=0;" parent="1" vertex="1">
          <mxGeometry x="1225" y="373" width="470" height="220" as="geometry" />
        </mxCell>
        <mxCell id="WKKQ7slUlsZvzBeE3rAa-7" value="&lt;h1 style=&quot;margin-top: 0px; font-size: 16px;&quot;&gt;&lt;font style=&quot;font-size: 16px;&quot;&gt;Stream Multiplexing&lt;/font&gt;&lt;/h1&gt;&lt;ul&gt;&lt;li&gt;&lt;span style=&quot;background-color: initial;&quot;&gt;&lt;b&gt;yamux&lt;/b&gt;&amp;nbsp;:&amp;nbsp;&lt;/span&gt;est généralement préférable si vous avez besoin de fonctionnalités avancées de gestion des flux et de priorisation&lt;/li&gt;&lt;li&gt;&lt;span style=&quot;background-color: initial;&quot;&gt;&lt;b&gt;mplex&lt;/b&gt; :&amp;nbsp;&lt;/span&gt;une bonne alternative si la simplicité et la légèreté sont plus importantes pour votre cas d&#39;utilisation.&lt;/li&gt;&lt;li&gt;&lt;span style=&quot;background-color: initial;&quot;&gt;&lt;b&gt;QUIC&lt;/b&gt; :&amp;nbsp;&lt;/span&gt;supporte le multiplexage et les communications sécurisées, QUIC pourrait être une alternative solide, en particulier pour des applications nécessitant une faible latence et une résistance à la congestion.&lt;/li&gt;&lt;ul&gt;&lt;li&gt;&lt;strong&gt;Fonctionnalités Avancées&lt;/strong&gt; : Si vous avez des exigences spécifiques en matière de gestion de flux (comme la priorisation avancée des flux) qui ne sont pas entièrement satisfaites par QUIC, vous pourriez vouloir intégrer un multiplexeur comme &lt;b&gt;Yamux&lt;/b&gt;.&lt;/li&gt;&lt;/ul&gt;&lt;/ul&gt;" style="text;html=1;whiteSpace=wrap;overflow=hidden;rounded=0;" parent="1" vertex="1">
          <mxGeometry x="1230" y="120" width="470" height="210" as="geometry" />
        </mxCell>
        <mxCell id="vDefgXT3XU2eSOZu8Grn-2" value="&lt;b style=&quot;font-size: 16px;&quot;&gt;VPC&lt;br&gt;&lt;/b&gt;&lt;br&gt;&lt;div&gt;Le déploiement d&#39;un nœud (node) sur AWS (Amazon Web Services) nécessite la configuration d&#39;un VPC (Virtual Private Cloud) pour plusieurs raisons essentielles :&lt;br&gt;&lt;br&gt;&lt;ul&gt;&lt;li&gt;&lt;b&gt;Isolation et Sécurité&lt;/b&gt; : Un VPC permet de créer un environnement réseau isolé dans le cloud. Cela signifie que les ressources déployées (comme des instances EC2, des bases de données, etc.) peuvent être isolées des autres utilisateurs AWS, offrant ainsi un niveau de sécurité accru.&lt;/li&gt;&lt;li&gt;&lt;b&gt;Contrôle du Réseau&lt;/b&gt; : Avec un VPC, vous avez un contrôle total sur votre réseau virtuel, y compris la configuration des sous-réseaux (subnets), des adresses IP, des routeurs et des points de terminaison. Vous pouvez également définir des règles de pare-feu pour contrôler l&#39;accès aux ressources.&lt;/li&gt;&lt;li&gt;&lt;b&gt;Flexibilité de Configuration&lt;/b&gt; : Vous pouvez personnaliser le VPC selon vos besoins. Par exemple, vous pouvez choisir la taille de l&#39;adresse IP (CIDR), créer des sous-réseaux publics et privés, et configurer des connexions VPN pour relier votre infrastructure sur site à AWS.&lt;/li&gt;&lt;li&gt;&lt;b&gt;Intégration avec d&#39;autres Services AWS&lt;/b&gt; : Le VPC est souvent intégré avec d&#39;autres services AWS, comme AWS Lambda, Amazon RDS, et Amazon S3. Cela permet une communication fluide entre les services tout en maintenant la sécurité et la séparation des ressources.&lt;/li&gt;&lt;li&gt;&lt;b&gt;Performances et Latence&lt;/b&gt; : En plaçant vos nœuds dans un VPC, vous pouvez optimiser la performance en choisissant des sous-réseaux proches des autres ressources nécessaires, réduisant ainsi la latence et améliorant la réactivité des applications.&lt;/li&gt;&lt;li&gt;&lt;b&gt;Gestion des Accès&lt;/b&gt; : Grâce aux groupes de sécurité et aux ACL (Access Control Lists) que vous pouvez configurer dans un VPC, vous pouvez gérer de manière granulaire qui a accès à quoi, ce qui est essentiel pour les environnements de production sensibles.&lt;/li&gt;&lt;/ul&gt;&lt;br&gt;&lt;/div&gt;" style="text;html=1;whiteSpace=wrap;overflow=hidden;rounded=0;" parent="1" vertex="1">
          <mxGeometry x="-1130" y="38" width="570" height="422" as="geometry" />
        </mxCell>
        <mxCell id="vDefgXT3XU2eSOZu8Grn-3" value="LIBP2P&lt;div style=&quot;font-size: 12px;&quot;&gt;protocoles&lt;/div&gt;" style="text;html=1;align=center;verticalAlign=middle;whiteSpace=wrap;rounded=0;strokeWidth=4;fontSize=29;fillColor=#E6E6E6;" parent="1" vertex="1">
          <mxGeometry x="1225" y="40" width="1635" height="60" as="geometry" />
        </mxCell>
        <mxCell id="vDefgXT3XU2eSOZu8Grn-11" value="Architecture v2" style="text;html=1;align=center;verticalAlign=middle;whiteSpace=wrap;rounded=0;strokeWidth=4;fontSize=29;fillColor=#E6E6E6;" parent="1" vertex="1">
          <mxGeometry x="-360" y="27" width="1180" height="60" as="geometry" />
        </mxCell>
        <mxCell id="vDefgXT3XU2eSOZu8Grn-17" value="&lt;h1 style=&quot;margin-top: 0px;&quot;&gt;Relayer node&lt;/h1&gt;&lt;p&gt;&lt;/p&gt;&lt;ul&gt;&lt;li&gt;&lt;span style=&quot;background-color: initial;&quot;&gt;Génère et distribue les clés partagées MPC/TSS&lt;/span&gt;&lt;/li&gt;&lt;li&gt;Enregistre les noeuds validateurs&lt;/li&gt;&lt;li&gt;Reçoit les signatures partagées des nodes validateurs&lt;/li&gt;&lt;li&gt;Assemble les signatures&lt;/li&gt;&lt;li&gt;Exécute les transactions sur les blockchains&lt;/li&gt;&lt;/ul&gt;&lt;p&gt;&lt;/p&gt;" style="text;html=1;whiteSpace=wrap;overflow=hidden;rounded=0;" parent="1" vertex="1">
          <mxGeometry x="-320" y="560" width="320" height="140" as="geometry" />
        </mxCell>
        <mxCell id="vDefgXT3XU2eSOZu8Grn-26" value="&lt;h1 style=&quot;margin-top: 0px;&quot;&gt;Validator nodes&lt;/h1&gt;&lt;p&gt;&lt;/p&gt;&lt;ul&gt;&lt;li&gt;doit être enregistré sur le relayer node (peer ID)&lt;/li&gt;&lt;li&gt;reçoit une clé partagée pour le MPC/TSS&lt;/li&gt;&lt;li&gt;écoute les évènements émis sur la blockchain&amp;nbsp;&lt;/li&gt;&lt;li&gt;envoie la transaction à valider aux autres nodes&lt;/li&gt;&lt;li&gt;reçoit la transaction à valider des autres nodes (message)&lt;/li&gt;&lt;li&gt;valide et signe la transaction (MPC/TSS : CGGMP21)&lt;/li&gt;&lt;/ul&gt;&lt;p&gt;&lt;/p&gt;" style="text;html=1;whiteSpace=wrap;overflow=hidden;rounded=0;" parent="1" vertex="1">
          <mxGeometry x="405" y="840" width="370" height="140" as="geometry" />
        </mxCell>
        <mxCell id="vDefgXT3XU2eSOZu8Grn-29" value="" style="group" parent="1" vertex="1" connectable="0">
          <mxGeometry x="-340" y="190" width="360" height="354" as="geometry" />
        </mxCell>
        <mxCell id="vDefgXT3XU2eSOZu8Grn-4" value="AWS cloud provider" style="ellipse;shape=cloud;whiteSpace=wrap;html=1;verticalAlign=top;shadow=1;" parent="vDefgXT3XU2eSOZu8Grn-29" vertex="1">
          <mxGeometry width="360" height="354" as="geometry" />
        </mxCell>
        <mxCell id="vDefgXT3XU2eSOZu8Grn-16" value="RPC provider" style="rounded=1;whiteSpace=wrap;html=1;shadow=1;strokeColor=default;align=center;verticalAlign=middle;fontFamily=Helvetica;fontSize=12;fontColor=default;fillColor=#FFCCFF;gradientColor=#FF66B3;" parent="vDefgXT3XU2eSOZu8Grn-29" vertex="1">
          <mxGeometry x="170" y="206" width="120" height="60" as="geometry" />
        </mxCell>
        <mxCell id="vDefgXT3XU2eSOZu8Grn-5" style="edgeStyle=orthogonalEdgeStyle;rounded=0;orthogonalLoop=1;jettySize=auto;html=1;" parent="vDefgXT3XU2eSOZu8Grn-29" source="vDefgXT3XU2eSOZu8Grn-7" target="vDefgXT3XU2eSOZu8Grn-16" edge="1">
          <mxGeometry relative="1" as="geometry">
            <mxPoint x="200" y="220" as="targetPoint" />
          </mxGeometry>
        </mxCell>
        <mxCell id="vDefgXT3XU2eSOZu8Grn-6" style="edgeStyle=orthogonalEdgeStyle;rounded=0;orthogonalLoop=1;jettySize=auto;html=1;" parent="vDefgXT3XU2eSOZu8Grn-29" source="vDefgXT3XU2eSOZu8Grn-7" target="vDefgXT3XU2eSOZu8Grn-9" edge="1">
          <mxGeometry relative="1" as="geometry" />
        </mxCell>
        <mxCell id="vDefgXT3XU2eSOZu8Grn-7" value="Relayer&amp;nbsp;&lt;div&gt;node&lt;/div&gt;" style="rounded=1;whiteSpace=wrap;html=1;gradientColor=#6600CC;strokeColor=#E6E6E6;fillColor=#CCCCFF;shadow=1;fontColor=#FFFFFF;" parent="vDefgXT3XU2eSOZu8Grn-29" vertex="1">
          <mxGeometry x="100" y="100" width="120" height="60" as="geometry" />
        </mxCell>
        <mxCell id="vDefgXT3XU2eSOZu8Grn-9" value="persistent&lt;div&gt;storage&lt;/div&gt;" style="shape=cylinder3;whiteSpace=wrap;html=1;boundedLbl=1;backgroundOutline=1;size=15;shadow=1;strokeColor=default;align=center;verticalAlign=middle;fontFamily=Helvetica;fontSize=12;fontColor=default;fillColor=#CCE5FF;gradientColor=#FF9999;" parent="vDefgXT3XU2eSOZu8Grn-29" vertex="1">
          <mxGeometry x="60" y="206" width="60" height="74" as="geometry" />
        </mxCell>
        <mxCell id="vDefgXT3XU2eSOZu8Grn-10" value="VPC" style="text;html=1;align=center;verticalAlign=middle;whiteSpace=wrap;rounded=0;" parent="vDefgXT3XU2eSOZu8Grn-29" vertex="1">
          <mxGeometry x="120" y="40" width="60" height="30" as="geometry" />
        </mxCell>
        <mxCell id="vDefgXT3XU2eSOZu8Grn-38" value="&lt;h1 style=&quot;margin-top: 0px;&quot;&gt;libp2p protocoles&lt;/h1&gt;&lt;p&gt;&lt;/p&gt;&lt;ul&gt;&lt;li&gt;&lt;b&gt;Transport&lt;/b&gt;: TCP (avec yamux) ou QUIC&lt;/li&gt;&lt;li&gt;&lt;b&gt;Communication&lt;/b&gt;: noise&lt;/li&gt;&lt;li&gt;&lt;b&gt;Routage&lt;/b&gt;: gossipsub&lt;/li&gt;&lt;li&gt;&lt;b&gt;Discover&lt;/b&gt;: kademlia&lt;/li&gt;&lt;/ul&gt;&lt;p&gt;&lt;/p&gt;" style="text;html=1;whiteSpace=wrap;overflow=hidden;rounded=0;" parent="1" vertex="1">
          <mxGeometry x="-320" y="720" width="320" height="120" as="geometry" />
        </mxCell>
        <mxCell id="W-LrozJOCfyRPSNJ4Rq--27" value="&lt;span style=&quot;color: rgb(255, 0, 128); font-family: Helvetica; font-size: 11px; font-style: normal; font-variant-ligatures: normal; font-variant-caps: normal; font-weight: 400; letter-spacing: normal; orphans: 2; text-indent: 0px; text-transform: none; widows: 2; word-spacing: 0px; -webkit-text-stroke-width: 0px; white-space: nowrap; background-color: rgb(255, 255, 255); text-decoration-thickness: initial; text-decoration-style: initial; text-decoration-color: initial; float: none; display: inline !important;&quot;&gt;émet un event&lt;/span&gt;" style="text;whiteSpace=wrap;html=1;align=center;verticalAlign=middle;" parent="1" vertex="1">
          <mxGeometry x="110" y="1200" width="80" height="20" as="geometry" />
        </mxCell>
        <mxCell id="W-LrozJOCfyRPSNJ4Rq--29" value="&lt;span style=&quot;color: rgb(255, 0, 128); font-family: Helvetica; font-size: 11px; font-style: normal; font-variant-ligatures: normal; font-variant-caps: normal; font-weight: 400; letter-spacing: normal; orphans: 2; text-indent: 0px; text-transform: none; widows: 2; word-spacing: 0px; -webkit-text-stroke-width: 0px; white-space: nowrap; background-color: rgb(255, 255, 255); text-decoration-thickness: initial; text-decoration-style: initial; text-decoration-color: initial; float: none; display: inline !important;&quot;&gt;émet un event&lt;/span&gt;" style="text;whiteSpace=wrap;html=1;align=center;verticalAlign=middle;" parent="1" vertex="1">
          <mxGeometry x="110" y="1277" width="80" height="20" as="geometry" />
        </mxCell>
        <mxCell id="ICaWzB2LusAWYeYSK3EQ-19" style="edgeStyle=orthogonalEdgeStyle;rounded=0;orthogonalLoop=1;jettySize=auto;html=1;curved=1;entryX=0.75;entryY=0;entryDx=0;entryDy=0;exitX=0.25;exitY=0;exitDx=0;exitDy=0;startArrow=oval;startFill=1;" parent="1" source="W-LrozJOCfyRPSNJ4Rq--31" target="W-LrozJOCfyRPSNJ4Rq--18" edge="1">
          <mxGeometry relative="1" as="geometry">
            <Array as="points">
              <mxPoint x="550" y="1165" />
              <mxPoint x="330" y="1165" />
            </Array>
          </mxGeometry>
        </mxCell>
        <mxCell id="ICaWzB2LusAWYeYSK3EQ-20" value="Distribution des clés&lt;div&gt;partagées MPC/TSS&lt;/div&gt;" style="edgeLabel;html=1;align=center;verticalAlign=middle;resizable=0;points=[];" parent="ICaWzB2LusAWYeYSK3EQ-19" vertex="1" connectable="0">
          <mxGeometry x="0.1162" y="-1" relative="1" as="geometry">
            <mxPoint x="9" as="offset" />
          </mxGeometry>
        </mxCell>
        <mxCell id="ICaWzB2LusAWYeYSK3EQ-1" value="" style="group" parent="1" vertex="1" connectable="0">
          <mxGeometry x="390" y="120" width="360" height="354" as="geometry" />
        </mxCell>
        <mxCell id="ICaWzB2LusAWYeYSK3EQ-2" value="AWS cloud provider" style="ellipse;shape=cloud;whiteSpace=wrap;html=1;verticalAlign=top;shadow=1;" parent="ICaWzB2LusAWYeYSK3EQ-1" vertex="1">
          <mxGeometry width="360" height="354" as="geometry" />
        </mxCell>
        <mxCell id="ICaWzB2LusAWYeYSK3EQ-4" style="edgeStyle=orthogonalEdgeStyle;rounded=0;orthogonalLoop=1;jettySize=auto;html=1;" parent="ICaWzB2LusAWYeYSK3EQ-1" source="ICaWzB2LusAWYeYSK3EQ-6" target="ICaWzB2LusAWYeYSK3EQ-7" edge="1">
          <mxGeometry relative="1" as="geometry" />
        </mxCell>
        <mxCell id="ICaWzB2LusAWYeYSK3EQ-5" style="edgeStyle=orthogonalEdgeStyle;rounded=0;orthogonalLoop=1;jettySize=auto;html=1;" parent="ICaWzB2LusAWYeYSK3EQ-1" source="ICaWzB2LusAWYeYSK3EQ-6" target="ICaWzB2LusAWYeYSK3EQ-8" edge="1">
          <mxGeometry relative="1" as="geometry" />
        </mxCell>
        <mxCell id="ICaWzB2LusAWYeYSK3EQ-6" value="Validator&amp;nbsp;&lt;div&gt;node&lt;/div&gt;&lt;div&gt;bootstrap&lt;/div&gt;" style="rounded=1;whiteSpace=wrap;html=1;gradientColor=#9933FF;strokeColor=#E6E6E6;fillColor=#99FFFF;shadow=1;" parent="ICaWzB2LusAWYeYSK3EQ-1" vertex="1">
          <mxGeometry x="150" y="200" width="120" height="60" as="geometry" />
        </mxCell>
        <mxCell id="ICaWzB2LusAWYeYSK3EQ-7" value="RPC provider&lt;div&gt;light clients&lt;/div&gt;" style="rounded=1;whiteSpace=wrap;html=1;shadow=1;strokeColor=default;align=center;verticalAlign=middle;fontFamily=Helvetica;fontSize=12;fontColor=default;fillColor=#FFCCFF;gradientColor=#FF66B3;" parent="ICaWzB2LusAWYeYSK3EQ-1" vertex="1">
          <mxGeometry x="80" y="100" width="120" height="60" as="geometry" />
        </mxCell>
        <mxCell id="ICaWzB2LusAWYeYSK3EQ-8" value="persistent&lt;div&gt;storage&lt;/div&gt;" style="shape=cylinder3;whiteSpace=wrap;html=1;boundedLbl=1;backgroundOutline=1;size=15;shadow=1;strokeColor=default;align=center;verticalAlign=middle;fontFamily=Helvetica;fontSize=12;fontColor=default;fillColor=#CCE5FF;gradientColor=#FF9999;" parent="ICaWzB2LusAWYeYSK3EQ-1" vertex="1">
          <mxGeometry x="240" y="86" width="60" height="74" as="geometry" />
        </mxCell>
        <mxCell id="ICaWzB2LusAWYeYSK3EQ-9" value="VPC" style="text;html=1;align=center;verticalAlign=middle;whiteSpace=wrap;rounded=0;" parent="ICaWzB2LusAWYeYSK3EQ-1" vertex="1">
          <mxGeometry x="120" y="40" width="60" height="30" as="geometry" />
        </mxCell>
        <mxCell id="vDefgXT3XU2eSOZu8Grn-27" style="rounded=0;orthogonalLoop=1;jettySize=auto;html=1;startArrow=classic;startFill=1;" parent="1" source="vDefgXT3XU2eSOZu8Grn-7" target="ICaWzB2LusAWYeYSK3EQ-6" edge="1">
          <mxGeometry relative="1" as="geometry">
            <mxPoint x="460" y="230.909090909091" as="targetPoint" />
          </mxGeometry>
        </mxCell>
        <mxCell id="ICaWzB2LusAWYeYSK3EQ-10" value="" style="group" parent="1" vertex="1" connectable="0">
          <mxGeometry x="390" y="480" width="360" height="354" as="geometry" />
        </mxCell>
        <mxCell id="ICaWzB2LusAWYeYSK3EQ-11" value="AWS cloud provider" style="ellipse;shape=cloud;whiteSpace=wrap;html=1;verticalAlign=top;shadow=1;" parent="ICaWzB2LusAWYeYSK3EQ-10" vertex="1">
          <mxGeometry width="360" height="354" as="geometry" />
        </mxCell>
        <mxCell id="ICaWzB2LusAWYeYSK3EQ-12" style="edgeStyle=orthogonalEdgeStyle;rounded=0;orthogonalLoop=1;jettySize=auto;html=1;" parent="ICaWzB2LusAWYeYSK3EQ-10" source="ICaWzB2LusAWYeYSK3EQ-14" target="ICaWzB2LusAWYeYSK3EQ-15" edge="1">
          <mxGeometry relative="1" as="geometry" />
        </mxCell>
        <mxCell id="ICaWzB2LusAWYeYSK3EQ-13" style="edgeStyle=orthogonalEdgeStyle;rounded=0;orthogonalLoop=1;jettySize=auto;html=1;" parent="ICaWzB2LusAWYeYSK3EQ-10" source="ICaWzB2LusAWYeYSK3EQ-14" target="ICaWzB2LusAWYeYSK3EQ-16" edge="1">
          <mxGeometry relative="1" as="geometry" />
        </mxCell>
        <mxCell id="ICaWzB2LusAWYeYSK3EQ-14" value="Validator&amp;nbsp;&lt;div&gt;node&lt;/div&gt;" style="rounded=1;whiteSpace=wrap;html=1;gradientColor=#66FFB3;strokeColor=#E6E6E6;fillColor=#66FFFF;shadow=1;" parent="ICaWzB2LusAWYeYSK3EQ-10" vertex="1">
          <mxGeometry x="150" y="100" width="120" height="60" as="geometry" />
        </mxCell>
        <mxCell id="ICaWzB2LusAWYeYSK3EQ-15" value="RPC provider&lt;div&gt;light clients&lt;/div&gt;" style="rounded=1;whiteSpace=wrap;html=1;shadow=1;fillColor=#FFCCFF;gradientColor=#FF66B3;" parent="ICaWzB2LusAWYeYSK3EQ-10" vertex="1">
          <mxGeometry x="80" y="200" width="120" height="60" as="geometry" />
        </mxCell>
        <mxCell id="ICaWzB2LusAWYeYSK3EQ-16" value="persistent&lt;div&gt;storage&lt;/div&gt;" style="shape=cylinder3;whiteSpace=wrap;html=1;boundedLbl=1;backgroundOutline=1;size=15;shadow=1;gradientColor=#FF9999;fillColor=#CCE5FF;" parent="ICaWzB2LusAWYeYSK3EQ-10" vertex="1">
          <mxGeometry x="260" y="193" width="60" height="74" as="geometry" />
        </mxCell>
        <mxCell id="ICaWzB2LusAWYeYSK3EQ-17" value="VPC" style="text;html=1;align=center;verticalAlign=middle;whiteSpace=wrap;rounded=0;" parent="ICaWzB2LusAWYeYSK3EQ-10" vertex="1">
          <mxGeometry x="120" y="40" width="60" height="30" as="geometry" />
        </mxCell>
        <mxCell id="vDefgXT3XU2eSOZu8Grn-36" style="rounded=0;orthogonalLoop=1;jettySize=auto;html=1;startArrow=classic;startFill=1;" parent="1" source="vDefgXT3XU2eSOZu8Grn-7" target="ICaWzB2LusAWYeYSK3EQ-14" edge="1">
          <mxGeometry relative="1" as="geometry">
            <mxPoint x="460" y="494.5454545454545" as="targetPoint" />
          </mxGeometry>
        </mxCell>
        <mxCell id="W-LrozJOCfyRPSNJ4Rq--32" value="" style="edgeStyle=orthogonalEdgeStyle;rounded=0;orthogonalLoop=1;jettySize=auto;html=1;exitX=1;exitY=0.25;exitDx=0;exitDy=0;entryX=0.992;entryY=0.4;entryDx=0;entryDy=0;entryPerimeter=0;startArrow=oval;startFill=1;" parent="1" source="W-LrozJOCfyRPSNJ4Rq--18" target="ICaWzB2LusAWYeYSK3EQ-18" edge="1">
          <mxGeometry relative="1" as="geometry">
            <Array as="points">
              <mxPoint x="480" y="1235" />
              <mxPoint x="480" y="1254" />
            </Array>
          </mxGeometry>
        </mxCell>
        <mxCell id="W-LrozJOCfyRPSNJ4Rq--35" value="&lt;font color=&quot;#ff8000&quot;&gt;(4) Envoie la transaction&amp;nbsp;&lt;/font&gt;&lt;div&gt;&lt;font color=&quot;#ff8000&quot;&gt;à valider et signer&lt;/font&gt;&lt;/div&gt;" style="edgeLabel;html=1;align=center;verticalAlign=middle;resizable=0;points=[];" parent="W-LrozJOCfyRPSNJ4Rq--32" vertex="1" connectable="0">
          <mxGeometry x="-0.4378" relative="1" as="geometry">
            <mxPoint y="-15" as="offset" />
          </mxGeometry>
        </mxCell>
        <mxCell id="W-LrozJOCfyRPSNJ4Rq--37" style="edgeStyle=orthogonalEdgeStyle;rounded=0;orthogonalLoop=1;jettySize=auto;html=1;exitX=0.5;exitY=1;exitDx=0;exitDy=0;entryX=0.25;entryY=1;entryDx=0;entryDy=0;startArrow=oval;startFill=1;" parent="1" source="W-LrozJOCfyRPSNJ4Rq--31" target="W-LrozJOCfyRPSNJ4Rq--11" edge="1">
          <mxGeometry relative="1" as="geometry">
            <Array as="points">
              <mxPoint x="580" y="1380" />
              <mxPoint x="-2" y="1380" />
            </Array>
          </mxGeometry>
        </mxCell>
        <mxCell id="W-LrozJOCfyRPSNJ4Rq--38" value="&lt;span style=&quot;color: rgb(255, 0, 0);&quot;&gt;(6&#39;) Exécute la transaction&lt;/span&gt;" style="edgeLabel;html=1;align=center;verticalAlign=middle;resizable=0;points=[];" parent="W-LrozJOCfyRPSNJ4Rq--37" vertex="1" connectable="0">
          <mxGeometry x="-0.1946" y="1" relative="1" as="geometry">
            <mxPoint x="5" y="-1" as="offset" />
          </mxGeometry>
        </mxCell>
        <mxCell id="W-LrozJOCfyRPSNJ4Rq--16" value="" style="edgeStyle=orthogonalEdgeStyle;rounded=0;orthogonalLoop=1;jettySize=auto;html=1;exitX=0.5;exitY=0;exitDx=0;exitDy=0;entryX=0.25;entryY=0;entryDx=0;entryDy=0;startArrow=oval;startFill=1;" parent="1" source="W-LrozJOCfyRPSNJ4Rq--31" target="W-LrozJOCfyRPSNJ4Rq--10" edge="1">
          <mxGeometry relative="1" as="geometry">
            <mxPoint x="120" y="1090" as="targetPoint" />
            <Array as="points">
              <mxPoint x="580" y="1120" />
              <mxPoint x="-2" y="1120" />
            </Array>
          </mxGeometry>
        </mxCell>
        <mxCell id="W-LrozJOCfyRPSNJ4Rq--17" value="&lt;div&gt;(6) Exécute la transaction&lt;/div&gt;" style="edgeLabel;html=1;align=center;verticalAlign=middle;resizable=0;points=[];fontColor=#FF0000;" parent="W-LrozJOCfyRPSNJ4Rq--16" vertex="1" connectable="0">
          <mxGeometry x="-0.0865" relative="1" as="geometry">
            <mxPoint x="34" as="offset" />
          </mxGeometry>
        </mxCell>
        <mxCell id="W-LrozJOCfyRPSNJ4Rq--12" style="edgeStyle=orthogonalEdgeStyle;rounded=0;orthogonalLoop=1;jettySize=auto;html=1;entryX=0.5;entryY=0;entryDx=0;entryDy=0;exitX=0.5;exitY=0;exitDx=0;exitDy=0;startArrow=oval;startFill=1;" parent="1" source="W-LrozJOCfyRPSNJ4Rq--18" target="W-LrozJOCfyRPSNJ4Rq--10" edge="1">
          <mxGeometry relative="1" as="geometry" />
        </mxCell>
        <mxCell id="W-LrozJOCfyRPSNJ4Rq--13" value="(3) écoutent les events blockchain source" style="edgeLabel;html=1;align=center;verticalAlign=middle;resizable=0;points=[];fontColor=#4C0099;" parent="W-LrozJOCfyRPSNJ4Rq--12" vertex="1" connectable="0">
          <mxGeometry x="-0.6343" relative="1" as="geometry">
            <mxPoint x="-113" as="offset" />
          </mxGeometry>
        </mxCell>
        <mxCell id="W-LrozJOCfyRPSNJ4Rq--14" style="edgeStyle=orthogonalEdgeStyle;rounded=0;orthogonalLoop=1;jettySize=auto;html=1;entryX=0.5;entryY=1;entryDx=0;entryDy=0;exitX=0.5;exitY=1;exitDx=0;exitDy=0;startArrow=oval;startFill=1;" parent="1" source="W-LrozJOCfyRPSNJ4Rq--18" target="W-LrozJOCfyRPSNJ4Rq--11" edge="1">
          <mxGeometry relative="1" as="geometry" />
        </mxCell>
        <mxCell id="W-LrozJOCfyRPSNJ4Rq--15" value="&lt;span style=&quot;color: rgb(76, 0, 153);&quot;&gt;(3) écoutent les events blockchain destination&lt;/span&gt;" style="edgeLabel;html=1;align=center;verticalAlign=middle;resizable=0;points=[];" parent="W-LrozJOCfyRPSNJ4Rq--14" vertex="1" connectable="0">
          <mxGeometry x="-0.54" y="-1" relative="1" as="geometry">
            <mxPoint x="-111" as="offset" />
          </mxGeometry>
        </mxCell>
        <mxCell id="W-LrozJOCfyRPSNJ4Rq--3" value="" style="rounded=0;orthogonalLoop=1;jettySize=auto;html=1;exitX=1;exitY=0.25;exitDx=0;exitDy=0;startArrow=oval;startFill=1;" parent="1" source="W-LrozJOCfyRPSNJ4Rq--7" target="W-LrozJOCfyRPSNJ4Rq--10" edge="1">
          <mxGeometry relative="1" as="geometry" />
        </mxCell>
        <mxCell id="W-LrozJOCfyRPSNJ4Rq--4" value="(1) blocage des fonds" style="edgeLabel;html=1;align=center;verticalAlign=middle;resizable=0;points=[];labelBackgroundColor=#FFFFFF;fontColor=#3333FF;" parent="W-LrozJOCfyRPSNJ4Rq--3" vertex="1" connectable="0">
          <mxGeometry x="-0.2118" y="2" relative="1" as="geometry">
            <mxPoint x="13" y="-16" as="offset" />
          </mxGeometry>
        </mxCell>
        <mxCell id="W-LrozJOCfyRPSNJ4Rq--5" style="rounded=0;orthogonalLoop=1;jettySize=auto;html=1;entryX=0;entryY=0.5;entryDx=0;entryDy=0;exitX=1;exitY=0.75;exitDx=0;exitDy=0;startArrow=oval;startFill=1;" parent="1" source="W-LrozJOCfyRPSNJ4Rq--7" target="W-LrozJOCfyRPSNJ4Rq--11" edge="1">
          <mxGeometry relative="1" as="geometry" />
        </mxCell>
        <mxCell id="W-LrozJOCfyRPSNJ4Rq--6" value="(1) blocage des fees" style="edgeLabel;html=1;align=center;verticalAlign=middle;resizable=0;points=[];labelBackgroundColor=default;fontColor=#3333FF;" parent="W-LrozJOCfyRPSNJ4Rq--5" vertex="1" connectable="0">
          <mxGeometry x="-0.1725" relative="1" as="geometry">
            <mxPoint x="6" y="22" as="offset" />
          </mxGeometry>
        </mxCell>
        <mxCell id="W-LrozJOCfyRPSNJ4Rq--26" style="edgeStyle=orthogonalEdgeStyle;rounded=0;orthogonalLoop=1;jettySize=auto;html=1;entryX=1;entryY=0.75;entryDx=0;entryDy=0;exitX=1;exitY=0.25;exitDx=0;exitDy=0;startArrow=oval;startFill=1;" parent="1" source="W-LrozJOCfyRPSNJ4Rq--10" target="W-LrozJOCfyRPSNJ4Rq--10" edge="1">
          <mxGeometry relative="1" as="geometry">
            <Array as="points">
              <mxPoint x="190" y="1195" />
              <mxPoint x="190" y="1225" />
            </Array>
          </mxGeometry>
        </mxCell>
        <mxCell id="W-LrozJOCfyRPSNJ4Rq--39" value="&lt;font color=&quot;#ff3399&quot;&gt;(2)&lt;/font&gt;" style="edgeLabel;html=1;align=center;verticalAlign=middle;resizable=0;points=[];" parent="W-LrozJOCfyRPSNJ4Rq--26" vertex="1" connectable="0">
          <mxGeometry x="-0.526" y="1" relative="1" as="geometry">
            <mxPoint as="offset" />
          </mxGeometry>
        </mxCell>
        <mxCell id="W-LrozJOCfyRPSNJ4Rq--28" style="edgeStyle=orthogonalEdgeStyle;rounded=0;orthogonalLoop=1;jettySize=auto;html=1;entryX=1;entryY=0.75;entryDx=0;entryDy=0;exitX=1;exitY=0.25;exitDx=0;exitDy=0;startArrow=oval;startFill=1;" parent="1" source="W-LrozJOCfyRPSNJ4Rq--11" target="W-LrozJOCfyRPSNJ4Rq--11" edge="1">
          <mxGeometry relative="1" as="geometry">
            <Array as="points">
              <mxPoint x="190" y="1275" />
              <mxPoint x="190" y="1305" />
            </Array>
          </mxGeometry>
        </mxCell>
        <mxCell id="W-LrozJOCfyRPSNJ4Rq--40" value="&lt;font color=&quot;#ff0080&quot;&gt;(2)&lt;/font&gt;" style="edgeLabel;html=1;align=center;verticalAlign=middle;resizable=0;points=[];" parent="W-LrozJOCfyRPSNJ4Rq--28" vertex="1" connectable="0">
          <mxGeometry x="-0.6656" y="2" relative="1" as="geometry">
            <mxPoint x="14" as="offset" />
          </mxGeometry>
        </mxCell>
        <mxCell id="W-LrozJOCfyRPSNJ4Rq--34" style="edgeStyle=orthogonalEdgeStyle;rounded=0;orthogonalLoop=1;jettySize=auto;html=1;exitX=0;exitY=0.75;exitDx=0;exitDy=0;entryX=1;entryY=0.75;entryDx=0;entryDy=0;startArrow=classic;startFill=1;endArrow=oval;endFill=1;" parent="1" source="W-LrozJOCfyRPSNJ4Rq--31" target="W-LrozJOCfyRPSNJ4Rq--18" edge="1">
          <mxGeometry relative="1" as="geometry" />
        </mxCell>
        <mxCell id="W-LrozJOCfyRPSNJ4Rq--36" value="&lt;font color=&quot;#00cc66&quot;&gt;(5) Envoie la validation&amp;nbsp;&lt;/font&gt;&lt;div&gt;&lt;font color=&quot;#00cc66&quot;&gt;et la signature&lt;/font&gt;&lt;/div&gt;" style="edgeLabel;html=1;align=center;verticalAlign=middle;resizable=0;points=[];" parent="W-LrozJOCfyRPSNJ4Rq--34" vertex="1" connectable="0">
          <mxGeometry x="0.2103" y="-1" relative="1" as="geometry">
            <mxPoint x="17" y="16" as="offset" />
          </mxGeometry>
        </mxCell>
        <mxCell id="W-LrozJOCfyRPSNJ4Rq--31" value="Relayer node" style="rounded=1;whiteSpace=wrap;html=1;strokeColor=#3333FF;shadow=1;" parent="1" vertex="1">
          <mxGeometry x="520" y="1220" width="120" height="60" as="geometry" />
        </mxCell>
        <mxCell id="W-LrozJOCfyRPSNJ4Rq--18" value="Validator nodes" style="rounded=1;whiteSpace=wrap;html=1;strokeColor=#3333FF;shadow=1;" parent="1" vertex="1">
          <mxGeometry x="240" y="1220" width="120" height="60" as="geometry" />
        </mxCell>
        <mxCell id="W-LrozJOCfyRPSNJ4Rq--7" value="Utilisateur initie un transfert via UI" style="rounded=1;whiteSpace=wrap;html=1;strokeColor=#3333FF;shadow=1;" parent="1" vertex="1">
          <mxGeometry x="-290" y="1220" width="120" height="60" as="geometry" />
        </mxCell>
        <mxCell id="W-LrozJOCfyRPSNJ4Rq--10" value="blockchain source&lt;div&gt;via rpc node&lt;/div&gt;" style="rounded=1;whiteSpace=wrap;html=1;strokeColor=#3333FF;shadow=1;" parent="1" vertex="1">
          <mxGeometry x="-40" y="1180" width="150" height="60" as="geometry" />
        </mxCell>
        <mxCell id="W-LrozJOCfyRPSNJ4Rq--11" value="blockchain destination&lt;div&gt;via rpc node&lt;/div&gt;" style="rounded=1;whiteSpace=wrap;html=1;strokeColor=#3333FF;shadow=1;" parent="1" vertex="1">
          <mxGeometry x="-40" y="1260" width="150" height="60" as="geometry" />
        </mxCell>
        <mxCell id="Fckn5052eSNRIyKG2kAJ-1" style="rounded=0;orthogonalLoop=1;jettySize=auto;html=1;startArrow=classic;startFill=1;" parent="1" source="ICaWzB2LusAWYeYSK3EQ-14" target="ICaWzB2LusAWYeYSK3EQ-6" edge="1">
          <mxGeometry relative="1" as="geometry" />
        </mxCell>
      </root>
    </mxGraphModel>
  </diagram>
  <diagram id="hntU9_2onttO2MsAoAjP" name="network p2p seq">
    <mxGraphModel dx="2655" dy="2279" grid="1" gridSize="10" guides="1" tooltips="1" connect="1" arrows="1" fold="1" page="1" pageScale="1" pageWidth="1169" pageHeight="827" math="0" shadow="0">
      <root>
        <mxCell id="0" />
        <mxCell id="1" parent="0" />
        <mxCell id="GcPbjXmmJTmlnTDwwUxD-28" value="Add new node" style="rounded=0;whiteSpace=wrap;html=1;opacity=30;fillColor=#d5e8d4;strokeColor=#82b366;align=left;verticalAlign=top;spacingLeft=21;spacingBottom=0;spacingTop=12;" vertex="1" parent="1">
          <mxGeometry x="90" y="-660" width="890" height="710" as="geometry" />
        </mxCell>
        <mxCell id="4dVtaYlEnEpUs7oNt0Pb-1" value="Bootstrap Node" style="shape=umlLifeline;perimeter=lifelinePerimeter;whiteSpace=wrap;container=1;dropTarget=0;collapsible=0;recursiveResize=0;outlineConnect=0;portConstraint=eastwest;newEdgeStyle={&quot;edgeStyle&quot;:&quot;elbowEdgeStyle&quot;,&quot;elbow&quot;:&quot;vertical&quot;,&quot;curved&quot;:0,&quot;rounded&quot;:0};size=65;shadow=1;rounded=1;strokeColor=#B3B3B3;align=center;verticalAlign=middle;fontFamily=Helvetica;fontSize=12;fontColor=default;fillColor=#99FFFF;gradientColor=#9933FF;" vertex="1" parent="1">
          <mxGeometry x="40" y="-800" width="150" height="1920" as="geometry" />
        </mxCell>
        <mxCell id="4dVtaYlEnEpUs7oNt0Pb-2" value="Node 1" style="shape=umlLifeline;perimeter=lifelinePerimeter;whiteSpace=wrap;container=1;dropTarget=0;collapsible=0;recursiveResize=0;outlineConnect=0;portConstraint=eastwest;newEdgeStyle={&quot;edgeStyle&quot;:&quot;elbowEdgeStyle&quot;,&quot;elbow&quot;:&quot;vertical&quot;,&quot;curved&quot;:0,&quot;rounded&quot;:0};size=65;shadow=1;rounded=1;strokeColor=#B3B3B3;align=center;verticalAlign=middle;fontFamily=Helvetica;fontSize=12;fontColor=default;fillColor=#66FFFF;gradientColor=#66FFB3;" vertex="1" parent="1">
          <mxGeometry x="276" y="-800" width="150" height="1920" as="geometry" />
        </mxCell>
        <mxCell id="4dVtaYlEnEpUs7oNt0Pb-3" value="Node 2..n" style="shape=umlLifeline;perimeter=lifelinePerimeter;whiteSpace=wrap;container=1;dropTarget=0;collapsible=0;recursiveResize=0;outlineConnect=0;portConstraint=eastwest;newEdgeStyle={&quot;edgeStyle&quot;:&quot;elbowEdgeStyle&quot;,&quot;elbow&quot;:&quot;vertical&quot;,&quot;curved&quot;:0,&quot;rounded&quot;:0};size=65;shadow=1;rounded=1;strokeColor=#B3B3B3;align=center;verticalAlign=middle;fontFamily=Helvetica;fontSize=12;fontColor=default;fillColor=#66FFFF;gradientColor=#66FFB3;" vertex="1" parent="1">
          <mxGeometry x="476" y="-800" width="150" height="1920" as="geometry" />
        </mxCell>
        <mxCell id="4dVtaYlEnEpUs7oNt0Pb-4" value="Kademlia Protocol" style="shape=umlLifeline;perimeter=lifelinePerimeter;whiteSpace=wrap;container=1;dropTarget=0;collapsible=0;recursiveResize=0;outlineConnect=0;portConstraint=eastwest;newEdgeStyle={&quot;edgeStyle&quot;:&quot;elbowEdgeStyle&quot;,&quot;elbow&quot;:&quot;vertical&quot;,&quot;curved&quot;:0,&quot;rounded&quot;:0};size=65;shadow=1;rounded=1;gradientColor=#CCCCFF;fillColor=#FFCCE6;strokeColor=#B3B3B3;" vertex="1" parent="1">
          <mxGeometry x="697" y="-800" width="150" height="1920" as="geometry" />
        </mxCell>
        <mxCell id="4dVtaYlEnEpUs7oNt0Pb-5" value="Connect to Bootstrap" style="verticalAlign=bottom;edgeStyle=elbowEdgeStyle;elbow=vertical;curved=0;rounded=0;endArrow=block;startArrow=oval;startFill=1;" edge="1" parent="1">
          <mxGeometry relative="1" as="geometry">
            <Array as="points">
              <mxPoint x="245" y="-450" />
            </Array>
            <mxPoint x="350.5" y="-450" as="sourcePoint" />
            <mxPoint x="114.5" y="-450" as="targetPoint" />
          </mxGeometry>
        </mxCell>
        <mxCell id="4dVtaYlEnEpUs7oNt0Pb-6" value="ConnectionEstablished Event" style="curved=1;endArrow=block;rounded=0;" edge="1" parent="1">
          <mxGeometry relative="1" as="geometry">
            <Array as="points">
              <mxPoint x="166" y="-420" />
              <mxPoint x="166" y="-390" />
            </Array>
            <mxPoint x="114.63043478260875" y="-420" as="sourcePoint" />
            <mxPoint x="114.5" y="-390" as="targetPoint" />
          </mxGeometry>
        </mxCell>
        <mxCell id="4dVtaYlEnEpUs7oNt0Pb-13" value="Can now discover N2" style="verticalAlign=bottom;edgeStyle=elbowEdgeStyle;elbow=vertical;curved=0;rounded=0;endArrow=block;startArrow=oval;startFill=1;" edge="1" parent="1">
          <mxGeometry relative="1" as="geometry">
            <Array as="points">
              <mxPoint x="570" y="585" />
            </Array>
            <mxPoint x="350.63043478260875" y="585" as="sourcePoint" />
            <mxPoint x="771.5" y="585" as="targetPoint" />
          </mxGeometry>
        </mxCell>
        <mxCell id="4dVtaYlEnEpUs7oNt0Pb-14" value="Can now discover N1" style="verticalAlign=bottom;edgeStyle=elbowEdgeStyle;elbow=vertical;curved=0;rounded=0;endArrow=block;startArrow=oval;startFill=1;" edge="1" parent="1">
          <mxGeometry relative="1" as="geometry">
            <Array as="points">
              <mxPoint x="670" y="623" />
            </Array>
            <mxPoint x="550.6304347826087" y="623" as="sourcePoint" />
            <mxPoint x="771.5" y="623" as="targetPoint" />
          </mxGeometry>
        </mxCell>
        <mxCell id="4dVtaYlEnEpUs7oNt0Pb-15" value="Init listening + set Kademlia Mode Server " style="fillColor=#99FFFF;strokeColor=#9E916F;shadow=1;rounded=1;gradientColor=#FFFFCC;" vertex="1" parent="1">
          <mxGeometry x="93.5" y="-720" width="479.5" height="49" as="geometry" />
        </mxCell>
        <mxCell id="4dVtaYlEnEpUs7oNt0Pb-16" value="Bootstrap Node is now part of DHT" style="fillColor=#99FFFF;strokeColor=#9E916F;shadow=1;rounded=1;align=center;verticalAlign=middle;fontFamily=Helvetica;fontSize=12;fontColor=default;gradientColor=#FFFFCC;" vertex="1" parent="1">
          <mxGeometry x="90" y="60" width="707" height="49" as="geometry" />
        </mxCell>
        <mxCell id="4dVtaYlEnEpUs7oNt0Pb-17" value="Direct communication possible&#xa;even if Bootstrap Node fails" style="fillColor=#99FFFF;strokeColor=#9E916F;shadow=1;rounded=1;align=center;verticalAlign=middle;fontFamily=Helvetica;fontSize=12;fontColor=default;gradientColor=#FFFFCC;" vertex="1" parent="1">
          <mxGeometry x="90" y="657" width="486" height="67" as="geometry" />
        </mxCell>
        <mxCell id="4dVtaYlEnEpUs7oNt0Pb-22" value="" style="endArrow=classic;html=1;rounded=0;startArrow=oval;startFill=1;" edge="1" parent="1">
          <mxGeometry width="50" height="50" relative="1" as="geometry">
            <mxPoint x="114.5" y="-369" as="sourcePoint" />
            <mxPoint x="350.5" y="-369" as="targetPoint" />
          </mxGeometry>
        </mxCell>
        <mxCell id="4dVtaYlEnEpUs7oNt0Pb-23" value="Send Identify info" style="edgeLabel;html=1;align=center;verticalAlign=middle;resizable=0;points=[];" vertex="1" connectable="0" parent="4dVtaYlEnEpUs7oNt0Pb-22">
          <mxGeometry x="-0.1144" y="2" relative="1" as="geometry">
            <mxPoint as="offset" />
          </mxGeometry>
        </mxCell>
        <mxCell id="4dVtaYlEnEpUs7oNt0Pb-32" value="Gossipsub Protocol" style="shape=umlLifeline;perimeter=lifelinePerimeter;whiteSpace=wrap;container=1;dropTarget=0;collapsible=0;recursiveResize=0;outlineConnect=0;portConstraint=eastwest;newEdgeStyle={&quot;edgeStyle&quot;:&quot;elbowEdgeStyle&quot;,&quot;elbow&quot;:&quot;vertical&quot;,&quot;curved&quot;:0,&quot;rounded&quot;:0};size=65;shadow=1;rounded=1;gradientColor=#CCFFCC;fillColor=#FFFFCC;strokeColor=#B3B3B3;" vertex="1" parent="1">
          <mxGeometry x="893" y="-800" width="150" height="1350" as="geometry" />
        </mxCell>
        <mxCell id="4dVtaYlEnEpUs7oNt0Pb-33" value="" style="endArrow=block;html=1;rounded=0;dashed=1;endFill=1;strokeWidth=1;startArrow=oval;startFill=1;" edge="1" parent="1">
          <mxGeometry width="50" height="50" relative="1" as="geometry">
            <mxPoint x="351" y="-600" as="sourcePoint" />
            <mxPoint x="968.5000000000002" y="-600" as="targetPoint" />
          </mxGeometry>
        </mxCell>
        <mxCell id="4dVtaYlEnEpUs7oNt0Pb-34" value="create &amp;amp; subscribe topic" style="edgeLabel;html=1;align=center;verticalAlign=middle;resizable=0;points=[];" vertex="1" connectable="0" parent="4dVtaYlEnEpUs7oNt0Pb-33">
          <mxGeometry x="-0.7914" y="1" relative="1" as="geometry">
            <mxPoint x="37" as="offset" />
          </mxGeometry>
        </mxCell>
        <mxCell id="4dVtaYlEnEpUs7oNt0Pb-46" value="IdentifyReceived Event" style="curved=1;endArrow=block;rounded=0;" edge="1" parent="1">
          <mxGeometry relative="1" as="geometry">
            <Array as="points">
              <mxPoint x="167.5" y="-230" />
              <mxPoint x="167.5" y="-200" />
            </Array>
            <mxPoint x="116.12962962962962" y="-230" as="sourcePoint" />
            <mxPoint x="116" y="-200" as="targetPoint" />
          </mxGeometry>
        </mxCell>
        <mxCell id="4dVtaYlEnEpUs7oNt0Pb-51" value="KademliaRoutingUpdated Event" style="curved=1;endArrow=block;rounded=0;" edge="1" parent="1">
          <mxGeometry relative="1" as="geometry">
            <Array as="points">
              <mxPoint x="166.5" y="-121" />
              <mxPoint x="166.5" y="-91" />
            </Array>
            <mxPoint x="115.12962962962962" y="-121" as="sourcePoint" />
            <mxPoint x="115" y="-91" as="targetPoint" />
          </mxGeometry>
        </mxCell>
        <mxCell id="4dVtaYlEnEpUs7oNt0Pb-52" value="" style="endArrow=block;html=1;rounded=0;dashed=1;endFill=1;strokeWidth=1;startArrow=oval;startFill=1;" edge="1" parent="1" source="4dVtaYlEnEpUs7oNt0Pb-2">
          <mxGeometry width="50" height="50" relative="1" as="geometry">
            <mxPoint x="352.9996296296296" y="-642" as="sourcePoint" />
            <mxPoint x="771.5" y="-642" as="targetPoint" />
          </mxGeometry>
        </mxCell>
        <mxCell id="4dVtaYlEnEpUs7oNt0Pb-53" value="Add Bootstrap Node&amp;nbsp;&lt;div&gt;[peer id + address] to DHT&lt;/div&gt;" style="edgeLabel;html=1;align=center;verticalAlign=middle;resizable=0;points=[];" vertex="1" connectable="0" parent="4dVtaYlEnEpUs7oNt0Pb-52">
          <mxGeometry x="-0.7914" y="1" relative="1" as="geometry">
            <mxPoint x="62" as="offset" />
          </mxGeometry>
        </mxCell>
        <mxCell id="GcPbjXmmJTmlnTDwwUxD-1" value="" style="endArrow=block;html=1;rounded=0;dashed=1;endFill=1;strokeWidth=1;startArrow=oval;startFill=1;" edge="1" parent="1" target="4dVtaYlEnEpUs7oNt0Pb-4">
          <mxGeometry width="50" height="50" relative="1" as="geometry">
            <mxPoint x="350.9996296296296" y="-520" as="sourcePoint" />
            <mxPoint x="769.5" y="-520" as="targetPoint" />
          </mxGeometry>
        </mxCell>
        <mxCell id="GcPbjXmmJTmlnTDwwUxD-2" value="Get closest peers" style="edgeLabel;html=1;align=center;verticalAlign=middle;resizable=0;points=[];" vertex="1" connectable="0" parent="GcPbjXmmJTmlnTDwwUxD-1">
          <mxGeometry x="-0.7914" y="1" relative="1" as="geometry">
            <mxPoint x="62" as="offset" />
          </mxGeometry>
        </mxCell>
        <mxCell id="GcPbjXmmJTmlnTDwwUxD-3" value="KademliaRoutingUpdated Event" style="curved=1;endArrow=block;rounded=0;" edge="1" parent="1">
          <mxGeometry x="-0.0052" relative="1" as="geometry">
            <Array as="points">
              <mxPoint x="402.5" y="-571" />
              <mxPoint x="402.5" y="-541" />
            </Array>
            <mxPoint x="351.1296296296296" y="-571" as="sourcePoint" />
            <mxPoint x="351" y="-541" as="targetPoint" />
            <mxPoint as="offset" />
          </mxGeometry>
        </mxCell>
        <mxCell id="GcPbjXmmJTmlnTDwwUxD-4" value="NewListenAddr Event" style="curved=1;endArrow=block;rounded=0;" edge="1" parent="1">
          <mxGeometry x="-0.0052" relative="1" as="geometry">
            <Array as="points">
              <mxPoint x="402.5" y="-501" />
              <mxPoint x="402.5" y="-471" />
            </Array>
            <mxPoint x="351.1296296296296" y="-501" as="sourcePoint" />
            <mxPoint x="351" y="-471" as="targetPoint" />
            <mxPoint as="offset" />
          </mxGeometry>
        </mxCell>
        <mxCell id="GcPbjXmmJTmlnTDwwUxD-5" value="ConnectionEstablished Event" style="curved=1;endArrow=block;rounded=0;" edge="1" parent="1">
          <mxGeometry relative="1" as="geometry">
            <Array as="points">
              <mxPoint x="402" y="-440" />
              <mxPoint x="402" y="-410" />
            </Array>
            <mxPoint x="350.63043478260875" y="-440" as="sourcePoint" />
            <mxPoint x="350.5" y="-410" as="targetPoint" />
          </mxGeometry>
        </mxCell>
        <mxCell id="GcPbjXmmJTmlnTDwwUxD-6" value="IdentifyReceived Event" style="curved=1;endArrow=block;rounded=0;" edge="1" parent="1">
          <mxGeometry relative="1" as="geometry">
            <Array as="points">
              <mxPoint x="402.5" y="-360" />
              <mxPoint x="402.5" y="-330" />
            </Array>
            <mxPoint x="351.1296296296296" y="-360" as="sourcePoint" />
            <mxPoint x="351" y="-330" as="targetPoint" />
          </mxGeometry>
        </mxCell>
        <mxCell id="GcPbjXmmJTmlnTDwwUxD-7" value="" style="endArrow=block;html=1;rounded=0;dashed=1;endFill=1;strokeWidth=1;startArrow=oval;startFill=1;" edge="1" parent="1" target="4dVtaYlEnEpUs7oNt0Pb-4">
          <mxGeometry width="50" height="50" relative="1" as="geometry">
            <mxPoint x="351.9996296296296" y="-310" as="sourcePoint" />
            <mxPoint x="770.5" y="-310" as="targetPoint" />
          </mxGeometry>
        </mxCell>
        <mxCell id="GcPbjXmmJTmlnTDwwUxD-8" value="Add Bootstrap Node&lt;div&gt;peer id + addresses to DHT&lt;/div&gt;" style="edgeLabel;html=1;align=center;verticalAlign=middle;resizable=0;points=[];" vertex="1" connectable="0" parent="GcPbjXmmJTmlnTDwwUxD-7">
          <mxGeometry x="-0.7914" y="1" relative="1" as="geometry">
            <mxPoint x="62" as="offset" />
          </mxGeometry>
        </mxCell>
        <mxCell id="GcPbjXmmJTmlnTDwwUxD-9" value="" style="endArrow=block;html=1;rounded=0;dashed=1;endFill=1;strokeWidth=1;startArrow=oval;startFill=1;" edge="1" parent="1">
          <mxGeometry width="50" height="50" relative="1" as="geometry">
            <mxPoint x="351.9996296296296" y="-270" as="sourcePoint" />
            <mxPoint x="967.4999999999998" y="-270" as="targetPoint" />
          </mxGeometry>
        </mxCell>
        <mxCell id="GcPbjXmmJTmlnTDwwUxD-10" value="Add Bootstrap Node&lt;div&gt;to Gossipsub&lt;/div&gt;" style="edgeLabel;html=1;align=center;verticalAlign=middle;resizable=0;points=[];" vertex="1" connectable="0" parent="GcPbjXmmJTmlnTDwwUxD-9">
          <mxGeometry x="-0.7914" y="1" relative="1" as="geometry">
            <mxPoint x="62" as="offset" />
          </mxGeometry>
        </mxCell>
        <mxCell id="GcPbjXmmJTmlnTDwwUxD-11" value="" style="endArrow=classic;html=1;rounded=0;startArrow=oval;startFill=1;" edge="1" parent="1">
          <mxGeometry width="50" height="50" relative="1" as="geometry">
            <mxPoint x="350" y="-250" as="sourcePoint" />
            <mxPoint x="114.875" y="-250" as="targetPoint" />
          </mxGeometry>
        </mxCell>
        <mxCell id="GcPbjXmmJTmlnTDwwUxD-12" value="Send Identify info" style="edgeLabel;html=1;align=center;verticalAlign=middle;resizable=0;points=[];" vertex="1" connectable="0" parent="GcPbjXmmJTmlnTDwwUxD-11">
          <mxGeometry x="-0.0053" y="-1" relative="1" as="geometry">
            <mxPoint as="offset" />
          </mxGeometry>
        </mxCell>
        <mxCell id="GcPbjXmmJTmlnTDwwUxD-13" value="" style="endArrow=block;html=1;rounded=0;dashed=1;endFill=1;strokeWidth=1;startArrow=oval;startFill=1;" edge="1" parent="1" source="4dVtaYlEnEpUs7oNt0Pb-1">
          <mxGeometry width="50" height="50" relative="1" as="geometry">
            <mxPoint x="351.9996296296296" y="-180" as="sourcePoint" />
            <mxPoint x="772" y="-180" as="targetPoint" />
          </mxGeometry>
        </mxCell>
        <mxCell id="GcPbjXmmJTmlnTDwwUxD-14" value="Add Node 1&lt;div&gt;peer id + addresses to DHT&lt;/div&gt;" style="edgeLabel;html=1;align=center;verticalAlign=middle;resizable=0;points=[];" vertex="1" connectable="0" parent="GcPbjXmmJTmlnTDwwUxD-13">
          <mxGeometry x="-0.7914" y="1" relative="1" as="geometry">
            <mxPoint x="62" as="offset" />
          </mxGeometry>
        </mxCell>
        <mxCell id="GcPbjXmmJTmlnTDwwUxD-15" value="" style="endArrow=block;html=1;rounded=0;dashed=1;endFill=1;strokeWidth=1;startArrow=oval;startFill=1;" edge="1" parent="1">
          <mxGeometry width="50" height="50" relative="1" as="geometry">
            <mxPoint x="114.875" y="-140" as="sourcePoint" />
            <mxPoint x="967.4999999999998" y="-140" as="targetPoint" />
          </mxGeometry>
        </mxCell>
        <mxCell id="GcPbjXmmJTmlnTDwwUxD-16" value="Add Node 1&lt;div&gt;to Gossipsub&lt;/div&gt;" style="edgeLabel;html=1;align=center;verticalAlign=middle;resizable=0;points=[];" vertex="1" connectable="0" parent="GcPbjXmmJTmlnTDwwUxD-15">
          <mxGeometry x="-0.7914" y="1" relative="1" as="geometry">
            <mxPoint x="26" as="offset" />
          </mxGeometry>
        </mxCell>
        <mxCell id="GcPbjXmmJTmlnTDwwUxD-17" value="" style="endArrow=block;html=1;rounded=0;dashed=1;endFill=1;strokeWidth=1;startArrow=oval;startFill=1;" edge="1" parent="1">
          <mxGeometry width="50" height="50" relative="1" as="geometry">
            <mxPoint x="114.875" y="-51" as="sourcePoint" />
            <mxPoint x="772" y="-51" as="targetPoint" />
          </mxGeometry>
        </mxCell>
        <mxCell id="GcPbjXmmJTmlnTDwwUxD-18" value="Get closest peers" style="edgeLabel;html=1;align=center;verticalAlign=middle;resizable=0;points=[];" vertex="1" connectable="0" parent="GcPbjXmmJTmlnTDwwUxD-17">
          <mxGeometry x="-0.7914" y="1" relative="1" as="geometry">
            <mxPoint x="62" as="offset" />
          </mxGeometry>
        </mxCell>
        <mxCell id="GcPbjXmmJTmlnTDwwUxD-19" value="GetClosestPeers Event" style="curved=1;endArrow=block;rounded=0;" edge="1" parent="1">
          <mxGeometry relative="1" as="geometry">
            <Array as="points">
              <mxPoint x="166.5" y="-37" />
              <mxPoint x="166.5" y="-7" />
            </Array>
            <mxPoint x="115.12962962962962" y="-37" as="sourcePoint" />
            <mxPoint x="115" y="-7" as="targetPoint" />
          </mxGeometry>
        </mxCell>
        <mxCell id="GcPbjXmmJTmlnTDwwUxD-20" value="GetClosestPeers Event" style="curved=1;endArrow=block;rounded=0;" edge="1" parent="1">
          <mxGeometry relative="1" as="geometry">
            <Array as="points">
              <mxPoint x="402.5" y="-93" />
              <mxPoint x="402.5" y="-63" />
            </Array>
            <mxPoint x="351.1296296296296" y="-93" as="sourcePoint" />
            <mxPoint x="351" y="-63" as="targetPoint" />
          </mxGeometry>
        </mxCell>
        <mxCell id="GcPbjXmmJTmlnTDwwUxD-21" value="Bootstrap Event" style="curved=1;endArrow=block;rounded=0;" edge="1" parent="1">
          <mxGeometry relative="1" as="geometry">
            <Array as="points">
              <mxPoint x="401.5" y="-40" />
              <mxPoint x="401.5" y="-10" />
            </Array>
            <mxPoint x="350.1296296296296" y="-40" as="sourcePoint" />
            <mxPoint x="350" y="-10" as="targetPoint" />
          </mxGeometry>
        </mxCell>
        <mxCell id="GcPbjXmmJTmlnTDwwUxD-22" value="Bootstrap Event" style="curved=1;endArrow=block;rounded=0;" edge="1" parent="1">
          <mxGeometry relative="1" as="geometry">
            <Array as="points">
              <mxPoint x="166.5" y="10" />
              <mxPoint x="166.5" y="40" />
            </Array>
            <mxPoint x="115.12962962962962" y="10" as="sourcePoint" />
            <mxPoint x="115" y="40" as="targetPoint" />
          </mxGeometry>
        </mxCell>
        <mxCell id="GcPbjXmmJTmlnTDwwUxD-29" value="&lt;span style=&quot;text-align: left;&quot;&gt;Add new node&lt;/span&gt;" style="rounded=0;whiteSpace=wrap;html=1;opacity=35;fillColor=#d5e8d4;strokeColor=#82b366;" vertex="1" parent="1">
          <mxGeometry x="510" y="130" width="305" height="100" as="geometry" />
        </mxCell>
        <mxCell id="GcPbjXmmJTmlnTDwwUxD-30" value="" style="endArrow=classic;html=1;rounded=0;startArrow=oval;startFill=1;" edge="1" parent="1">
          <mxGeometry width="50" height="50" relative="1" as="geometry">
            <mxPoint x="552" y="250" as="sourcePoint" />
            <mxPoint x="350" y="250" as="targetPoint" />
          </mxGeometry>
        </mxCell>
        <mxCell id="GcPbjXmmJTmlnTDwwUxD-31" value="Send Identify info" style="edgeLabel;html=1;align=center;verticalAlign=middle;resizable=0;points=[];" vertex="1" connectable="0" parent="GcPbjXmmJTmlnTDwwUxD-30">
          <mxGeometry x="-0.0053" y="-1" relative="1" as="geometry">
            <mxPoint as="offset" />
          </mxGeometry>
        </mxCell>
        <mxCell id="GcPbjXmmJTmlnTDwwUxD-32" value="IdentifyReceived Event" style="curved=1;endArrow=block;rounded=0;" edge="1" parent="1">
          <mxGeometry relative="1" as="geometry">
            <Array as="points">
              <mxPoint x="401.5" y="270" />
              <mxPoint x="401.5" y="300" />
            </Array>
            <mxPoint x="350.1296296296296" y="270" as="sourcePoint" />
            <mxPoint x="350" y="300" as="targetPoint" />
          </mxGeometry>
        </mxCell>
        <mxCell id="GcPbjXmmJTmlnTDwwUxD-33" value="IdentifyReceived Event" style="curved=1;endArrow=block;rounded=0;" edge="1" parent="1">
          <mxGeometry relative="1" as="geometry">
            <Array as="points">
              <mxPoint x="601.5" y="390" />
              <mxPoint x="601.5" y="420" />
            </Array>
            <mxPoint x="550.1296296296296" y="390" as="sourcePoint" />
            <mxPoint x="550" y="420" as="targetPoint" />
          </mxGeometry>
        </mxCell>
        <mxCell id="GcPbjXmmJTmlnTDwwUxD-34" value="" style="endArrow=block;html=1;rounded=0;dashed=1;endFill=1;strokeWidth=1;startArrow=oval;startFill=1;" edge="1" parent="1">
          <mxGeometry width="50" height="50" relative="1" as="geometry">
            <mxPoint x="352" y="320" as="sourcePoint" />
            <mxPoint x="770" y="320" as="targetPoint" />
          </mxGeometry>
        </mxCell>
        <mxCell id="GcPbjXmmJTmlnTDwwUxD-35" value="Add Node 2&lt;div&gt;peer id + addresses to DHT&lt;/div&gt;" style="edgeLabel;html=1;align=center;verticalAlign=middle;resizable=0;points=[];" vertex="1" connectable="0" parent="GcPbjXmmJTmlnTDwwUxD-34">
          <mxGeometry x="-0.7914" y="1" relative="1" as="geometry">
            <mxPoint x="62" as="offset" />
          </mxGeometry>
        </mxCell>
        <mxCell id="GcPbjXmmJTmlnTDwwUxD-36" value="" style="endArrow=block;html=1;rounded=0;dashed=1;endFill=1;strokeWidth=1;startArrow=oval;startFill=1;" edge="1" parent="1">
          <mxGeometry width="50" height="50" relative="1" as="geometry">
            <mxPoint x="351" y="350" as="sourcePoint" />
            <mxPoint x="968.4999999999998" y="350" as="targetPoint" />
          </mxGeometry>
        </mxCell>
        <mxCell id="GcPbjXmmJTmlnTDwwUxD-37" value="Add Node 2&lt;div&gt;to Gossipsub&lt;/div&gt;" style="edgeLabel;html=1;align=center;verticalAlign=middle;resizable=0;points=[];" vertex="1" connectable="0" parent="GcPbjXmmJTmlnTDwwUxD-36">
          <mxGeometry x="-0.7914" y="1" relative="1" as="geometry">
            <mxPoint x="26" as="offset" />
          </mxGeometry>
        </mxCell>
        <mxCell id="GcPbjXmmJTmlnTDwwUxD-38" value="" style="endArrow=block;html=1;rounded=0;dashed=1;endFill=1;strokeWidth=1;startArrow=oval;startFill=1;" edge="1" parent="1">
          <mxGeometry width="50" height="50" relative="1" as="geometry">
            <mxPoint x="550" y="440" as="sourcePoint" />
            <mxPoint x="770" y="440" as="targetPoint" />
          </mxGeometry>
        </mxCell>
        <mxCell id="GcPbjXmmJTmlnTDwwUxD-39" value="Add Node 1&lt;div&gt;peer id + addresses to DHT&lt;/div&gt;" style="edgeLabel;html=1;align=center;verticalAlign=middle;resizable=0;points=[];" vertex="1" connectable="0" parent="GcPbjXmmJTmlnTDwwUxD-38">
          <mxGeometry x="-0.7914" y="1" relative="1" as="geometry">
            <mxPoint x="62" as="offset" />
          </mxGeometry>
        </mxCell>
        <mxCell id="GcPbjXmmJTmlnTDwwUxD-40" value="" style="endArrow=block;html=1;rounded=0;dashed=1;endFill=1;strokeWidth=1;startArrow=oval;startFill=1;" edge="1" parent="1" source="4dVtaYlEnEpUs7oNt0Pb-3">
          <mxGeometry width="50" height="50" relative="1" as="geometry">
            <mxPoint x="351" y="470" as="sourcePoint" />
            <mxPoint x="968.4999999999998" y="470" as="targetPoint" />
          </mxGeometry>
        </mxCell>
        <mxCell id="GcPbjXmmJTmlnTDwwUxD-41" value="Add Node 1&lt;div&gt;to Gossipsub&lt;/div&gt;" style="edgeLabel;html=1;align=center;verticalAlign=middle;resizable=0;points=[];" vertex="1" connectable="0" parent="GcPbjXmmJTmlnTDwwUxD-40">
          <mxGeometry x="-0.7914" y="1" relative="1" as="geometry">
            <mxPoint x="26" as="offset" />
          </mxGeometry>
        </mxCell>
        <mxCell id="GcPbjXmmJTmlnTDwwUxD-42" value="" style="endArrow=classic;html=1;rounded=0;startArrow=oval;startFill=1;" edge="1" parent="1" source="4dVtaYlEnEpUs7oNt0Pb-2">
          <mxGeometry width="50" height="50" relative="1" as="geometry">
            <mxPoint x="342" y="377" as="sourcePoint" />
            <mxPoint x="550.5" y="377" as="targetPoint" />
          </mxGeometry>
        </mxCell>
        <mxCell id="GcPbjXmmJTmlnTDwwUxD-43" value="Send Identify info" style="edgeLabel;html=1;align=center;verticalAlign=middle;resizable=0;points=[];" vertex="1" connectable="0" parent="GcPbjXmmJTmlnTDwwUxD-42">
          <mxGeometry x="-0.0053" y="-1" relative="1" as="geometry">
            <mxPoint as="offset" />
          </mxGeometry>
        </mxCell>
        <mxCell id="GcPbjXmmJTmlnTDwwUxD-45" value="Bootstrap Event" style="curved=1;endArrow=block;rounded=0;" edge="1" parent="1">
          <mxGeometry relative="1" as="geometry">
            <Array as="points">
              <mxPoint x="400.5" y="410" />
              <mxPoint x="400.5" y="440" />
            </Array>
            <mxPoint x="349.1296296296296" y="410" as="sourcePoint" />
            <mxPoint x="349" y="440" as="targetPoint" />
          </mxGeometry>
        </mxCell>
        <mxCell id="GcPbjXmmJTmlnTDwwUxD-46" value="Bootstrap Event" style="curved=1;endArrow=block;rounded=0;" edge="1" parent="1">
          <mxGeometry relative="1" as="geometry">
            <Array as="points">
              <mxPoint x="600.5" y="500" />
              <mxPoint x="600.5" y="530" />
            </Array>
            <mxPoint x="549.1296296296296" y="500" as="sourcePoint" />
            <mxPoint x="549" y="530" as="targetPoint" />
          </mxGeometry>
        </mxCell>
      </root>
    </mxGraphModel>
  </diagram>
  <diagram id="Au1UpUFk1vavp90-H6la" name="bridge use case">
    <mxGraphModel dx="2522" dy="1379" grid="1" gridSize="10" guides="1" tooltips="1" connect="1" arrows="1" fold="1" page="1" pageScale="1" pageWidth="1169" pageHeight="827" math="0" shadow="0">
      <root>
        <mxCell id="0" />
        <mxCell id="1" parent="0" />
        <mxCell id="Y1DRwermlii_i61IxdnQ-3" style="edgeStyle=orthogonalEdgeStyle;rounded=0;orthogonalLoop=1;jettySize=auto;html=1;" parent="1" source="Y1DRwermlii_i61IxdnQ-1" target="Y1DRwermlii_i61IxdnQ-2" edge="1">
          <mxGeometry relative="1" as="geometry" />
        </mxCell>
        <mxCell id="Y1DRwermlii_i61IxdnQ-1" value="Actor" style="shape=umlActor;verticalLabelPosition=bottom;verticalAlign=top;html=1;outlineConnect=0;" parent="1" vertex="1">
          <mxGeometry x="65" y="120" width="30" height="60" as="geometry" />
        </mxCell>
        <mxCell id="Y1DRwermlii_i61IxdnQ-2" value="Blockchain" style="rounded=1;whiteSpace=wrap;html=1;" parent="1" vertex="1">
          <mxGeometry x="20" y="300" width="120" height="60" as="geometry" />
        </mxCell>
        <mxCell id="Y1DRwermlii_i61IxdnQ-16" style="edgeStyle=orthogonalEdgeStyle;rounded=0;orthogonalLoop=1;jettySize=auto;html=1;" parent="1" source="Y1DRwermlii_i61IxdnQ-4" target="Y1DRwermlii_i61IxdnQ-15" edge="1">
          <mxGeometry relative="1" as="geometry" />
        </mxCell>
        <mxCell id="Y1DRwermlii_i61IxdnQ-4" value="&lt;b&gt;1. Initiation de la Transaction (Partie On-Chain sur la Blockchain Source)&lt;/b&gt;&lt;div&gt;&lt;ul&gt;&lt;li&gt;&lt;b&gt;Hachage&lt;/b&gt; de la transaction pour l&#39;identification unique.&lt;/li&gt;&lt;li&gt;&lt;b&gt;Signature&lt;/b&gt; par l’utilisateur pour autoriser l’envoi.&lt;/li&gt;&lt;/ul&gt;&lt;/div&gt;" style="text;html=1;align=left;verticalAlign=middle;whiteSpace=wrap;rounded=0;" parent="1" vertex="1">
          <mxGeometry x="90" y="210" width="420" height="70" as="geometry" />
        </mxCell>
        <mxCell id="Y1DRwermlii_i61IxdnQ-6" style="edgeStyle=orthogonalEdgeStyle;rounded=0;orthogonalLoop=1;jettySize=auto;html=1;exitX=0.5;exitY=0;exitDx=0;exitDy=0;" parent="1" source="Y1DRwermlii_i61IxdnQ-5" target="Y1DRwermlii_i61IxdnQ-2" edge="1">
          <mxGeometry relative="1" as="geometry" />
        </mxCell>
        <mxCell id="Y1DRwermlii_i61IxdnQ-10" value="" style="edgeStyle=orthogonalEdgeStyle;rounded=0;orthogonalLoop=1;jettySize=auto;html=1;exitX=0.5;exitY=1;exitDx=0;exitDy=0;" parent="1" source="Y1DRwermlii_i61IxdnQ-5" target="Y1DRwermlii_i61IxdnQ-9" edge="1">
          <mxGeometry relative="1" as="geometry" />
        </mxCell>
        <mxCell id="Y1DRwermlii_i61IxdnQ-14" style="edgeStyle=orthogonalEdgeStyle;rounded=0;orthogonalLoop=1;jettySize=auto;html=1;" parent="1" source="Y1DRwermlii_i61IxdnQ-7" target="Y1DRwermlii_i61IxdnQ-13" edge="1">
          <mxGeometry relative="1" as="geometry" />
        </mxCell>
        <mxCell id="Y1DRwermlii_i61IxdnQ-7" value="&lt;b&gt;2. Surveillance et validation de Tx par les validateurs&amp;nbsp;(Partie Off-Chain)&lt;/b&gt;&lt;div&gt;&lt;b&gt;&lt;br&gt;&lt;/b&gt;&lt;div&gt;&lt;li style=&quot;&quot;&gt;&lt;strong&gt;Chiffrement&lt;/strong&gt; des communications entre validateurs.&lt;/li&gt;&lt;li style=&quot;&quot;&gt;&lt;strong&gt;Hachage&lt;/strong&gt; pour vérifier l&#39;intégrité des données échangées.&lt;/li&gt;&lt;li style=&quot;&quot;&gt;&lt;strong&gt;Signature&lt;/strong&gt; collective par les validateurs pour approuver la transaction.&lt;/li&gt;&lt;/div&gt;&lt;/div&gt;" style="text;html=1;align=left;verticalAlign=middle;whiteSpace=wrap;rounded=0;" parent="1" vertex="1">
          <mxGeometry x="95" y="374.75" width="425" height="78.5" as="geometry" />
        </mxCell>
        <mxCell id="Y1DRwermlii_i61IxdnQ-20" value="" style="edgeStyle=orthogonalEdgeStyle;rounded=0;orthogonalLoop=1;jettySize=auto;html=1;" parent="1" source="Y1DRwermlii_i61IxdnQ-9" target="Y1DRwermlii_i61IxdnQ-19" edge="1">
          <mxGeometry relative="1" as="geometry" />
        </mxCell>
        <mxCell id="Y1DRwermlii_i61IxdnQ-9" value="Relayer" style="whiteSpace=wrap;html=1;rounded=1;" parent="1" vertex="1">
          <mxGeometry x="20" y="670" width="120" height="60" as="geometry" />
        </mxCell>
        <mxCell id="Y1DRwermlii_i61IxdnQ-11" value="" style="group" parent="1" vertex="1" connectable="0">
          <mxGeometry x="20" y="470" width="130" height="70" as="geometry" />
        </mxCell>
        <mxCell id="Y1DRwermlii_i61IxdnQ-8" value="Off-chain&lt;div&gt;Node&lt;/div&gt;" style="rounded=1;whiteSpace=wrap;html=1;" parent="Y1DRwermlii_i61IxdnQ-11" vertex="1">
          <mxGeometry x="10" y="10" width="120" height="60" as="geometry" />
        </mxCell>
        <mxCell id="Y1DRwermlii_i61IxdnQ-5" value="Nodes validateurs" style="rounded=1;whiteSpace=wrap;html=1;" parent="Y1DRwermlii_i61IxdnQ-11" vertex="1">
          <mxGeometry width="120" height="60" as="geometry" />
        </mxCell>
        <mxCell id="Y1DRwermlii_i61IxdnQ-18" value="" style="edgeStyle=orthogonalEdgeStyle;rounded=0;orthogonalLoop=1;jettySize=auto;html=1;" parent="1" source="Y1DRwermlii_i61IxdnQ-12" target="Y1DRwermlii_i61IxdnQ-17" edge="1">
          <mxGeometry relative="1" as="geometry" />
        </mxCell>
        <mxCell id="Y1DRwermlii_i61IxdnQ-12" value="&lt;div&gt;&lt;span style=&quot;background-color: initial;&quot;&gt;&lt;b&gt;3. Création de la Preuve de Validation (Partie Off-Chain)&lt;/b&gt;&lt;/span&gt;&lt;/div&gt;&lt;div&gt;&lt;span style=&quot;background-color: initial;&quot;&gt;&lt;br&gt;&lt;/span&gt;&lt;/div&gt;&lt;div&gt;&lt;li&gt;&lt;strong&gt;Chiffrement&lt;/strong&gt; pour transmettre la preuve de manière sécurisée.&lt;/li&gt;&lt;li&gt;&lt;strong&gt;Hachage&lt;/strong&gt; de la preuve pour vérification d&#39;intégrité.&lt;/li&gt;&lt;li&gt;&lt;strong&gt;Signature&lt;/strong&gt; collective de la preuve par les validateurs.&lt;/li&gt;&lt;/div&gt;" style="text;html=1;align=left;verticalAlign=middle;whiteSpace=wrap;rounded=0;" parent="1" vertex="1">
          <mxGeometry x="100" y="560" width="380" height="80" as="geometry" />
        </mxCell>
        <mxCell id="Y1DRwermlii_i61IxdnQ-13" value="&lt;p&gt;&lt;strong&gt;Objectif&lt;/strong&gt; : Les validateurs &lt;em&gt;off-chain&lt;/em&gt; observent la blockchain source pour détecter la transaction et la valider avant de transférer les informations vers la blockchain de destination.&lt;/p&gt;&lt;ul&gt;&lt;li&gt;&lt;strong&gt;Chiffrement&lt;/strong&gt; : Les validateurs communiquent entre eux de façon sécurisée en utilisant des canaux chiffrés pour éviter que des tiers n’interceptent les informations sur les transactions observées.&lt;/li&gt;&lt;li&gt;&lt;strong&gt;Hachage&lt;/strong&gt; : Chaque validateur peut générer un hachage des données de la transaction observée. Ces hachages permettent de vérifier l’intégrité des données échangées entre les validateurs lors du processus de validation.&lt;/li&gt;&lt;li&gt;&lt;strong&gt;Signature&lt;/strong&gt; : Les validateurs utilisent leurs clés pour signer leur validation de la transaction. Si un protocole de calcul multi-parties avec signature de seuil (MPC TSS) est utilisé, les validateurs peuvent coopérer pour produire une signature collective de validation sans divulguer leurs clés individuelles.&lt;/li&gt;&lt;/ul&gt;" style="text;html=1;align=left;verticalAlign=middle;whiteSpace=wrap;rounded=0;" parent="1" vertex="1">
          <mxGeometry x="560" y="309" width="730" height="210" as="geometry" />
        </mxCell>
        <mxCell id="Y1DRwermlii_i61IxdnQ-15" value="&lt;p&gt;&lt;strong&gt;Objectif&lt;/strong&gt; : Un utilisateur initie un transfert de tokens sur la blockchain source en envoyant les fonds au contrat de bridge de cette blockchain.&lt;/p&gt;&lt;ul&gt;&lt;li&gt;&lt;strong&gt;Chiffrement&lt;/strong&gt; : Les données de la transaction (montant, adresse de destination) ne sont pas nécessairement chiffrées dans le cadre du bridge, car elles sont enregistrées sur la blockchain, qui est publique.&lt;/li&gt;&lt;li&gt;&lt;strong&gt;Hachage&lt;/strong&gt; : Le contrat peut générer un hachage de la transaction (ou une empreinte) qui servira d&#39;identifiant unique pour cette transaction. Ce hachage permet d’identifier de façon unique et immuable la transaction sur la blockchain source.&lt;/li&gt;&lt;li&gt;&lt;strong&gt;Signature&lt;/strong&gt; : L&#39;utilisateur signe la transaction avec sa clé privée pour autoriser l&#39;envoi des fonds. La signature garantit que l&#39;expéditeur est bien l’utilisateur légitime.&lt;/li&gt;&lt;/ul&gt;" style="text;html=1;align=left;verticalAlign=middle;whiteSpace=wrap;rounded=0;" parent="1" vertex="1">
          <mxGeometry x="560" y="185" width="780" height="120" as="geometry" />
        </mxCell>
        <mxCell id="Y1DRwermlii_i61IxdnQ-17" value="&lt;p&gt;&lt;strong&gt;Objectif&lt;/strong&gt; : Après validation, les validateurs créent une preuve que la transaction a bien été validée, preuve qui sera transmise et utilisée sur la blockchain de destination.&lt;/p&gt;&lt;ul&gt;&lt;li&gt;&lt;strong&gt;Chiffrement&lt;/strong&gt; : La preuve est transmise à travers un canal sécurisé pour éviter toute interception.&lt;/li&gt;&lt;li&gt;&lt;strong&gt;Hachage&lt;/strong&gt; : La preuve elle-même peut inclure des hachages de la transaction d’origine pour garantir son intégrité. Chaque étape de validation peut être hachée pour garder un historique des actions des validateurs.&lt;/li&gt;&lt;li&gt;&lt;strong&gt;Signature&lt;/strong&gt; : La preuve est signée de manière collective par les validateurs (ou par un mécanisme TSS) pour garantir que la validation est authentique et provient bien du consensus des validateurs.&lt;/li&gt;&lt;/ul&gt;" style="text;html=1;align=left;verticalAlign=middle;whiteSpace=wrap;rounded=0;" parent="1" vertex="1">
          <mxGeometry x="560" y="540" width="800" height="120" as="geometry" />
        </mxCell>
        <mxCell id="Y1DRwermlii_i61IxdnQ-19" value="Blockchain" style="whiteSpace=wrap;html=1;rounded=1;" parent="1" vertex="1">
          <mxGeometry x="20" y="880" width="120" height="60" as="geometry" />
        </mxCell>
        <mxCell id="Y1DRwermlii_i61IxdnQ-23" value="" style="edgeStyle=orthogonalEdgeStyle;rounded=0;orthogonalLoop=1;jettySize=auto;html=1;" parent="1" source="Y1DRwermlii_i61IxdnQ-21" target="Y1DRwermlii_i61IxdnQ-22" edge="1">
          <mxGeometry relative="1" as="geometry" />
        </mxCell>
        <mxCell id="Y1DRwermlii_i61IxdnQ-21" value="&lt;b&gt;4. Transmission de la Preuve vers la Blockchain de Destination (Partie Off-Chain vers On-Chain)&lt;br&gt;&lt;/b&gt;&lt;ul&gt;&lt;li&gt;&lt;b&gt;Chiffrement&lt;/b&gt; des données transmises vers la blockchain de destination.&lt;/li&gt;&lt;li&gt;&lt;b&gt;Hachage&lt;/b&gt; de la transaction pour la vérification de la preuve.&lt;/li&gt;&lt;li&gt;&lt;b&gt;Vérification&lt;/b&gt; de la signature des validateurs pour l’authentification.&lt;/li&gt;&lt;/ul&gt;" style="text;html=1;align=left;verticalAlign=middle;whiteSpace=wrap;rounded=0;" parent="1" vertex="1">
          <mxGeometry x="95" y="740" width="430" height="103" as="geometry" />
        </mxCell>
        <mxCell id="Y1DRwermlii_i61IxdnQ-22" value="&lt;p&gt;&lt;strong&gt;Objectif&lt;/strong&gt; : La preuve est envoyée au contrat de bridge sur la blockchain de destination pour initier le transfert des tokens.&lt;/p&gt;&lt;ul&gt;&lt;li&gt;&lt;strong&gt;Chiffrement&lt;/strong&gt; : Les informations transmises entre le relais off-chain et la blockchain de destination peuvent être chiffrées pour sécuriser les données en transit.&lt;/li&gt;&lt;li&gt;&lt;strong&gt;Hachage&lt;/strong&gt; : Le contrat de bridge sur la blockchain de destination peut vérifier la preuve en comparant le hachage de la transaction d’origine avec le hachage contenu dans la preuve.&lt;/li&gt;&lt;li&gt;&lt;strong&gt;Signature&lt;/strong&gt; : La signature des validateurs est vérifiée sur la blockchain de destination pour s’assurer que la preuve est authentique et bien approuvée par le bridge.&lt;/li&gt;&lt;/ul&gt;" style="text;html=1;align=left;verticalAlign=middle;whiteSpace=wrap;rounded=0;" parent="1" vertex="1">
          <mxGeometry x="560" y="711.5" width="755" height="160" as="geometry" />
        </mxCell>
        <mxCell id="Y1DRwermlii_i61IxdnQ-28" value="" style="edgeStyle=orthogonalEdgeStyle;rounded=0;orthogonalLoop=1;jettySize=auto;html=1;" parent="1" source="Y1DRwermlii_i61IxdnQ-24" target="Y1DRwermlii_i61IxdnQ-27" edge="1">
          <mxGeometry relative="1" as="geometry" />
        </mxCell>
        <mxCell id="Y1DRwermlii_i61IxdnQ-24" value="&lt;b&gt;5. Émission des Actifs sur la Blockchain de Destination (Partie On-Chain sur la Blockchain de Destination)&lt;br&gt;&lt;/b&gt;&lt;ul&gt;&lt;li&gt;&lt;b&gt;Hachage&lt;/b&gt; pour le suivi et la vérification de l’intégrité de la transaction.&lt;/li&gt;&lt;/ul&gt;" style="text;html=1;align=left;verticalAlign=middle;whiteSpace=wrap;rounded=0;" parent="1" vertex="1">
          <mxGeometry x="100" y="960" width="410" height="90" as="geometry" />
        </mxCell>
        <mxCell id="Y1DRwermlii_i61IxdnQ-25" value="Actor" style="shape=umlActor;verticalLabelPosition=bottom;verticalAlign=top;html=1;outlineConnect=0;" parent="1" vertex="1">
          <mxGeometry x="65" y="1050" width="30" height="60" as="geometry" />
        </mxCell>
        <mxCell id="Y1DRwermlii_i61IxdnQ-26" style="edgeStyle=orthogonalEdgeStyle;rounded=0;orthogonalLoop=1;jettySize=auto;html=1;entryX=0.5;entryY=0;entryDx=0;entryDy=0;entryPerimeter=0;" parent="1" source="Y1DRwermlii_i61IxdnQ-19" target="Y1DRwermlii_i61IxdnQ-25" edge="1">
          <mxGeometry relative="1" as="geometry" />
        </mxCell>
        <mxCell id="Y1DRwermlii_i61IxdnQ-27" value="&lt;p&gt;&lt;strong&gt;Objectif&lt;/strong&gt; : Si la preuve est valide, le contrat de bridge de la blockchain de destination émet les tokens (ou leur équivalent) à l’utilisateur de destination.&lt;/p&gt;&lt;ul&gt;&lt;li&gt;&lt;strong&gt;Chiffrement&lt;/strong&gt; : Généralement, à cette étape, le chiffrement n’est plus nécessaire, car les informations sont sur la blockchain publique.&lt;/li&gt;&lt;li&gt;&lt;strong&gt;Hachage&lt;/strong&gt; : Un hachage de la transaction émise est souvent créé pour garder une trace immuable de l’opération.&lt;/li&gt;&lt;li&gt;&lt;strong&gt;Signature&lt;/strong&gt; : Le contrat de bridge lui-même n&#39;a pas besoin de signature ici, mais si l&#39;utilisateur de destination souhaite dépenser ou transférer ces tokens, il devra signer cette nouvelle transaction avec sa propre clé privée.&lt;/li&gt;&lt;/ul&gt;" style="text;html=1;align=left;verticalAlign=middle;whiteSpace=wrap;rounded=0;" parent="1" vertex="1">
          <mxGeometry x="560" y="915" width="700" height="180" as="geometry" />
        </mxCell>
        <mxCell id="O9v79pGSa2CK9C8vqLnJ-3" style="rounded=0;orthogonalLoop=1;jettySize=auto;html=1;strokeColor=#3333FF;" parent="1" source="O9v79pGSa2CK9C8vqLnJ-5" target="O9v79pGSa2CK9C8vqLnJ-15" edge="1">
          <mxGeometry relative="1" as="geometry" />
        </mxCell>
        <mxCell id="O9v79pGSa2CK9C8vqLnJ-4" style="rounded=0;orthogonalLoop=1;jettySize=auto;html=1;strokeColor=#3333FF;" parent="1" source="O9v79pGSa2CK9C8vqLnJ-5" target="O9v79pGSa2CK9C8vqLnJ-16" edge="1">
          <mxGeometry relative="1" as="geometry" />
        </mxCell>
        <mxCell id="O9v79pGSa2CK9C8vqLnJ-5" value="Node 1&lt;div&gt;bootstrap&lt;/div&gt;" style="rounded=1;whiteSpace=wrap;html=1;gradientColor=#CCCCCC;strokeColor=#CCCCCC;" parent="1" vertex="1">
          <mxGeometry x="1680" y="120" width="120" height="60" as="geometry" />
        </mxCell>
        <mxCell id="O9v79pGSa2CK9C8vqLnJ-6" style="rounded=0;orthogonalLoop=1;jettySize=auto;html=1;strokeColor=#3333FF;" parent="1" source="O9v79pGSa2CK9C8vqLnJ-9" target="O9v79pGSa2CK9C8vqLnJ-16" edge="1">
          <mxGeometry relative="1" as="geometry" />
        </mxCell>
        <mxCell id="O9v79pGSa2CK9C8vqLnJ-7" style="rounded=0;orthogonalLoop=1;jettySize=auto;html=1;strokeColor=#3333FF;" parent="1" source="O9v79pGSa2CK9C8vqLnJ-9" target="O9v79pGSa2CK9C8vqLnJ-15" edge="1">
          <mxGeometry relative="1" as="geometry" />
        </mxCell>
        <mxCell id="O9v79pGSa2CK9C8vqLnJ-8" style="rounded=0;orthogonalLoop=1;jettySize=auto;html=1;dashed=1;dashPattern=8 8;startArrow=classic;startFill=1;" parent="1" source="O9v79pGSa2CK9C8vqLnJ-9" target="O9v79pGSa2CK9C8vqLnJ-5" edge="1">
          <mxGeometry relative="1" as="geometry" />
        </mxCell>
        <mxCell id="O9v79pGSa2CK9C8vqLnJ-9" value="Node 2" style="rounded=1;whiteSpace=wrap;html=1;gradientColor=#CCCCCC;strokeColor=#CCCCCC;" parent="1" vertex="1">
          <mxGeometry x="1760" y="240" width="120" height="60" as="geometry" />
        </mxCell>
        <mxCell id="O9v79pGSa2CK9C8vqLnJ-10" style="rounded=0;orthogonalLoop=1;jettySize=auto;html=1;strokeColor=#3333FF;" parent="1" source="O9v79pGSa2CK9C8vqLnJ-14" target="O9v79pGSa2CK9C8vqLnJ-15" edge="1">
          <mxGeometry relative="1" as="geometry" />
        </mxCell>
        <mxCell id="O9v79pGSa2CK9C8vqLnJ-11" style="rounded=0;orthogonalLoop=1;jettySize=auto;html=1;strokeColor=#3333FF;" parent="1" source="O9v79pGSa2CK9C8vqLnJ-14" target="O9v79pGSa2CK9C8vqLnJ-16" edge="1">
          <mxGeometry relative="1" as="geometry" />
        </mxCell>
        <mxCell id="O9v79pGSa2CK9C8vqLnJ-12" style="rounded=0;orthogonalLoop=1;jettySize=auto;html=1;dashed=1;dashPattern=8 8;startArrow=classic;startFill=1;" parent="1" source="O9v79pGSa2CK9C8vqLnJ-14" target="O9v79pGSa2CK9C8vqLnJ-9" edge="1">
          <mxGeometry relative="1" as="geometry" />
        </mxCell>
        <mxCell id="O9v79pGSa2CK9C8vqLnJ-13" style="rounded=0;orthogonalLoop=1;jettySize=auto;html=1;dashed=1;dashPattern=8 8;startArrow=classic;startFill=1;" parent="1" source="O9v79pGSa2CK9C8vqLnJ-14" target="O9v79pGSa2CK9C8vqLnJ-5" edge="1">
          <mxGeometry relative="1" as="geometry" />
        </mxCell>
        <mxCell id="O9v79pGSa2CK9C8vqLnJ-14" value="Node n" style="rounded=1;whiteSpace=wrap;html=1;gradientColor=#CCCCCC;strokeColor=#CCCCCC;" parent="1" vertex="1">
          <mxGeometry x="1640" y="360" width="120" height="60" as="geometry" />
        </mxCell>
        <mxCell id="O9v79pGSa2CK9C8vqLnJ-15" value="blockchain&lt;div&gt;A&lt;/div&gt;" style="ellipse;shape=cloud;whiteSpace=wrap;html=1;gradientColor=#CCCCCC;" parent="1" vertex="1">
          <mxGeometry x="1440" y="230" width="120" height="80" as="geometry" />
        </mxCell>
        <mxCell id="O9v79pGSa2CK9C8vqLnJ-16" value="blockchain&lt;div&gt;B&lt;/div&gt;" style="ellipse;shape=cloud;whiteSpace=wrap;html=1;gradientColor=#CCCCCC;" parent="1" vertex="1">
          <mxGeometry x="1960" y="230" width="120" height="80" as="geometry" />
        </mxCell>
        <mxCell id="O9v79pGSa2CK9C8vqLnJ-17" value="1. &lt;b&gt;Génération et Gestion Distribuée des Clés Privées (MPC)&lt;/b&gt;&lt;div&gt;&lt;ul&gt;&lt;li&gt;&lt;font color=&quot;#ff3333&quot;&gt;l&lt;/font&gt;&lt;span style=&quot;&quot;&gt;&lt;font color=&quot;#ff3333&quot;&gt;a clé privée est générée&lt;/font&gt;&amp;nbsp;par le relayer&amp;nbsp;&lt;/span&gt;&lt;/li&gt;&lt;li&gt;la clé privée est découpée et&amp;nbsp;&lt;strong style=&quot;&quot;&gt;partagée entre plusieurs noeuds validateurs&lt;/strong&gt;&lt;span style=&quot;&quot;&gt; via le protocole MPC&lt;/span&gt;&lt;/li&gt;&lt;/ul&gt;&lt;div&gt;&lt;div&gt;2.&amp;nbsp;&lt;span style=&quot;&quot;&gt;&lt;b&gt;Signatures Distribuées pour Exécuter les Transactions&lt;/b&gt;&lt;/span&gt;&lt;/div&gt;&lt;div&gt;&lt;ul&gt;&lt;li&gt;Lorsqu’un utilisateur initie un transfert, les smart contracts émettent un event qui est lu par les noeuds validateurs demandant de valider et signer la transaction.&lt;/li&gt;&lt;li&gt;&lt;span style=&quot;&quot;&gt;MPC permet aux noeuds validateurs de signer collectivement la transaction&lt;/span&gt;&lt;span style=&quot;&quot;&gt; requise sur chaque blockchain (A et B) sans jamais révéler la clé privée complète.&lt;/span&gt;&lt;/li&gt;&lt;li&gt;&lt;span style=&quot;&quot;&gt;Un nombre minimum de noeuds (&lt;b&gt;T-of-N&lt;/b&gt;, seuil cryptographique) est requis pour générer une signature valide. Cela garantit que même si certains noeuds sont compromis ou hors ligne, le système reste opérationnel et sécurisé.&lt;/span&gt;&lt;/li&gt;&lt;/ul&gt;&lt;/div&gt;&lt;/div&gt;&lt;/div&gt;&lt;div&gt;&lt;span style=&quot;&quot;&gt;3.&amp;nbsp;&lt;/span&gt;&lt;span style=&quot;&quot;&gt;&lt;b&gt;Validation et Exécution des Transactions Cross-Chain&lt;/b&gt;&lt;/span&gt;&lt;/div&gt;&lt;div&gt;&lt;ul&gt;&lt;li&gt;&lt;span style=&quot;&quot;&gt;Une fois les transactions signées via MPC, &lt;b&gt;&lt;font color=&quot;#ff3333&quot;&gt;les noeuds soumettent&lt;/font&gt;&lt;/b&gt;&amp;nbsp;les signatures partagées aux relayer qui va exécuter la transaction sur la blockchain d’origine (chaîne A) pour signaler le blocage des fonds, et la blockchain cible (chaîne B) pour débloquer les fonds ou effectuer d&#39;autres opérations comme le paiement des frais de gas.&lt;/span&gt;&lt;/li&gt;&lt;li&gt;MPC assure que cette signature distribuée est sécurisée et empêche qu’un seul relayer ne prenne le contrôle du processus.&lt;/li&gt;&lt;/ul&gt;&lt;/div&gt;&lt;div&gt;&lt;h3&gt;&lt;strong style=&quot;font-size: 12px;&quot;&gt;4. Tolérance aux Pannes et Sécurité Renforcée&lt;/strong&gt; :&lt;/h3&gt;&lt;ul&gt;&lt;li&gt;Grâce à la structure &lt;strong&gt;T-of-N&lt;/strong&gt; (où T est le nombre minimum de noeuds nécessaires pour générer une signature), le système est tolérant aux pannes. Même si certains noeuds deviennent malveillants ou inopérants, le processus de signature et d&#39;exécution peut toujours avoir lieu tant que T relayers collaborent.&lt;/li&gt;&lt;li&gt;Cela assure une décentralisation robuste, où le transfert inter-chaînes peut être complété de manière sécurisée sans avoir besoin de faire confiance à une seule entité.&lt;/li&gt;&lt;/ul&gt;&lt;/div&gt;&lt;div&gt;&lt;span style=&quot;&quot;&gt;5. &lt;/span&gt;&lt;strong style=&quot;&quot;&gt;Élimination des Risques de Compromission de Clé Privée&lt;/strong&gt;&lt;span style=&quot;&quot;&gt; :&lt;/span&gt;&lt;br&gt;&lt;/div&gt;&lt;div&gt;&lt;ul&gt;&lt;li&gt;Puisque la clé privée n&#39;est jamais reconstruite en entier à un seul endroit, même si un noeud est compromis, il est impossible pour l’attaquant de voler la clé ou de contrôler les transactions à lui seul.&lt;/li&gt;&lt;li&gt;Le protocole MPC réduit ainsi considérablement le risque de compromission, par rapport à un modèle où un seul acteur détient une clé privée complète.&lt;/li&gt;&lt;/ul&gt;&lt;/div&gt;" style="text;html=1;align=left;verticalAlign=top;whiteSpace=wrap;rounded=0;labelBackgroundColor=default;shadow=1;fillColor=default;" parent="1" vertex="1">
          <mxGeometry x="1460" y="440" width="800" height="510" as="geometry" />
        </mxCell>
        <mxCell id="ODwVIl-_mF-_i42jSCfe-2" style="rounded=0;orthogonalLoop=1;jettySize=auto;html=1;strokeColor=#FF0080;" parent="1" source="ODwVIl-_mF-_i42jSCfe-1" target="O9v79pGSa2CK9C8vqLnJ-15" edge="1">
          <mxGeometry relative="1" as="geometry" />
        </mxCell>
        <mxCell id="ODwVIl-_mF-_i42jSCfe-3" style="rounded=0;orthogonalLoop=1;jettySize=auto;html=1;strokeColor=#FF0080;" parent="1" source="ODwVIl-_mF-_i42jSCfe-1" target="O9v79pGSa2CK9C8vqLnJ-16" edge="1">
          <mxGeometry relative="1" as="geometry" />
        </mxCell>
        <mxCell id="ODwVIl-_mF-_i42jSCfe-1" value="Relayer" style="rounded=1;whiteSpace=wrap;html=1;gradientColor=#CCCCCC;strokeColor=#CCCCCC;" parent="1" vertex="1">
          <mxGeometry x="1680" y="20" width="120" height="60" as="geometry" />
        </mxCell>
      </root>
    </mxGraphModel>
  </diagram>
  <diagram id="-MVFNlVRRJke6gck5DoJ" name="p2p node">
    <mxGraphModel dx="1018" dy="1379" grid="1" gridSize="10" guides="1" tooltips="1" connect="1" arrows="1" fold="1" page="1" pageScale="1" pageWidth="1169" pageHeight="827" math="0" shadow="0">
      <root>
        <mxCell id="0" />
        <mxCell id="1" parent="0" />
        <mxCell id="bkcv-cmdeJel5F8IjrhD-1" value="" style="edgeStyle=orthogonalEdgeStyle;rounded=0;orthogonalLoop=1;jettySize=auto;html=1;" edge="1" parent="1" source="bkcv-cmdeJel5F8IjrhD-3" target="bkcv-cmdeJel5F8IjrhD-8">
          <mxGeometry relative="1" as="geometry" />
        </mxCell>
        <mxCell id="bkcv-cmdeJel5F8IjrhD-2" value="" style="edgeStyle=orthogonalEdgeStyle;rounded=0;orthogonalLoop=1;jettySize=auto;html=1;" edge="1" parent="1" source="bkcv-cmdeJel5F8IjrhD-3" target="bkcv-cmdeJel5F8IjrhD-12">
          <mxGeometry relative="1" as="geometry" />
        </mxCell>
        <mxCell id="bkcv-cmdeJel5F8IjrhD-3" value="node" style="rounded=1;whiteSpace=wrap;html=1;" vertex="1" parent="1">
          <mxGeometry x="500" y="80" width="120" height="60" as="geometry" />
        </mxCell>
        <mxCell id="bkcv-cmdeJel5F8IjrhD-4" value="" style="edgeStyle=orthogonalEdgeStyle;rounded=0;orthogonalLoop=1;jettySize=auto;html=1;exitX=0.25;exitY=1;exitDx=0;exitDy=0;" edge="1" parent="1" source="bkcv-cmdeJel5F8IjrhD-8" target="bkcv-cmdeJel5F8IjrhD-13">
          <mxGeometry relative="1" as="geometry" />
        </mxCell>
        <mxCell id="bkcv-cmdeJel5F8IjrhD-5" value="" style="edgeStyle=orthogonalEdgeStyle;rounded=0;orthogonalLoop=1;jettySize=auto;html=1;exitX=0.75;exitY=1;exitDx=0;exitDy=0;" edge="1" parent="1" source="bkcv-cmdeJel5F8IjrhD-8" target="bkcv-cmdeJel5F8IjrhD-14">
          <mxGeometry relative="1" as="geometry" />
        </mxCell>
        <mxCell id="bkcv-cmdeJel5F8IjrhD-6" style="edgeStyle=orthogonalEdgeStyle;rounded=0;orthogonalLoop=1;jettySize=auto;html=1;exitX=0.75;exitY=1;exitDx=0;exitDy=0;" edge="1" parent="1" source="bkcv-cmdeJel5F8IjrhD-8" target="bkcv-cmdeJel5F8IjrhD-15">
          <mxGeometry relative="1" as="geometry" />
        </mxCell>
        <mxCell id="bkcv-cmdeJel5F8IjrhD-7" style="edgeStyle=orthogonalEdgeStyle;rounded=0;orthogonalLoop=1;jettySize=auto;html=1;exitX=0.75;exitY=1;exitDx=0;exitDy=0;" edge="1" parent="1" source="bkcv-cmdeJel5F8IjrhD-8" target="bkcv-cmdeJel5F8IjrhD-16">
          <mxGeometry relative="1" as="geometry" />
        </mxCell>
        <mxCell id="bkcv-cmdeJel5F8IjrhD-8" value="relayer" style="whiteSpace=wrap;html=1;rounded=1;" vertex="1" parent="1">
          <mxGeometry x="400" y="200" width="120" height="60" as="geometry" />
        </mxCell>
        <mxCell id="bkcv-cmdeJel5F8IjrhD-9" style="edgeStyle=orthogonalEdgeStyle;rounded=0;orthogonalLoop=1;jettySize=auto;html=1;exitX=0.5;exitY=1;exitDx=0;exitDy=0;" edge="1" parent="1" source="bkcv-cmdeJel5F8IjrhD-12" target="bkcv-cmdeJel5F8IjrhD-16">
          <mxGeometry relative="1" as="geometry" />
        </mxCell>
        <mxCell id="bkcv-cmdeJel5F8IjrhD-10" style="edgeStyle=orthogonalEdgeStyle;rounded=0;orthogonalLoop=1;jettySize=auto;html=1;" edge="1" parent="1" source="bkcv-cmdeJel5F8IjrhD-12" target="bkcv-cmdeJel5F8IjrhD-15">
          <mxGeometry relative="1" as="geometry" />
        </mxCell>
        <mxCell id="bkcv-cmdeJel5F8IjrhD-11" style="edgeStyle=orthogonalEdgeStyle;rounded=0;orthogonalLoop=1;jettySize=auto;html=1;exitX=0.5;exitY=1;exitDx=0;exitDy=0;" edge="1" parent="1" source="bkcv-cmdeJel5F8IjrhD-12" target="bkcv-cmdeJel5F8IjrhD-14">
          <mxGeometry relative="1" as="geometry" />
        </mxCell>
        <mxCell id="bkcv-cmdeJel5F8IjrhD-12" value="validator" style="whiteSpace=wrap;html=1;rounded=1;" vertex="1" parent="1">
          <mxGeometry x="600" y="200" width="120" height="60" as="geometry" />
        </mxCell>
        <mxCell id="bkcv-cmdeJel5F8IjrhD-13" value="JSON-RPC server" style="whiteSpace=wrap;html=1;rounded=1;" vertex="1" parent="1">
          <mxGeometry x="280" y="320" width="120" height="60" as="geometry" />
        </mxCell>
        <mxCell id="bkcv-cmdeJel5F8IjrhD-14" value="Kademlia DHT" style="whiteSpace=wrap;html=1;rounded=1;" vertex="1" parent="1">
          <mxGeometry x="440" y="320" width="120" height="60" as="geometry" />
        </mxCell>
        <mxCell id="bkcv-cmdeJel5F8IjrhD-15" value="gossipsub" style="whiteSpace=wrap;html=1;rounded=1;" vertex="1" parent="1">
          <mxGeometry x="560" y="320" width="120" height="60" as="geometry" />
        </mxCell>
        <mxCell id="bkcv-cmdeJel5F8IjrhD-16" value="QUIC" style="whiteSpace=wrap;html=1;rounded=1;" vertex="1" parent="1">
          <mxGeometry x="680" y="320" width="120" height="60" as="geometry" />
        </mxCell>
      </root>
    </mxGraphModel>
  </diagram>
  <diagram id="wG_yRxlY0Jdt2i3VAH8u" name="Authorize node">
    <mxGraphModel dx="1018" dy="546" grid="1" gridSize="10" guides="1" tooltips="1" connect="1" arrows="1" fold="1" page="1" pageScale="1" pageWidth="1169" pageHeight="827" math="0" shadow="0">
      <root>
        <mxCell id="0" />
        <mxCell id="1" parent="0" />
        <mxCell id="nn7APUXod1xwGkL6qqji-1" value="Validator Team" style="shape=umlLifeline;perimeter=lifelinePerimeter;whiteSpace=wrap;container=1;dropTarget=0;collapsible=0;recursiveResize=0;outlineConnect=0;portConstraint=eastwest;newEdgeStyle={&quot;edgeStyle&quot;:&quot;elbowEdgeStyle&quot;,&quot;elbow&quot;:&quot;vertical&quot;,&quot;curved&quot;:0,&quot;rounded&quot;:0};size=65;rounded=1;shadow=1;strokeColor=#B3B3B3;align=center;verticalAlign=middle;fontFamily=Helvetica;fontSize=12;fontColor=default;fillColor=#FF8000;gradientColor=#FFFFCC;" vertex="1" parent="1">
          <mxGeometry x="20" y="20" width="150" height="874" as="geometry" />
        </mxCell>
        <mxCell id="nn7APUXod1xwGkL6qqji-2" value="Validator Node" style="shape=umlLifeline;perimeter=lifelinePerimeter;whiteSpace=wrap;container=1;dropTarget=0;collapsible=0;recursiveResize=0;outlineConnect=0;portConstraint=eastwest;newEdgeStyle={&quot;edgeStyle&quot;:&quot;elbowEdgeStyle&quot;,&quot;elbow&quot;:&quot;vertical&quot;,&quot;curved&quot;:0,&quot;rounded&quot;:0};size=65;rounded=1;shadow=1;strokeColor=#B3B3B3;align=center;verticalAlign=middle;fontFamily=Helvetica;fontSize=12;fontColor=default;fillColor=#FFB366;gradientColor=#FFE6CC;" vertex="1" parent="1">
          <mxGeometry x="220" y="20" width="150" height="874" as="geometry" />
        </mxCell>
        <mxCell id="nn7APUXod1xwGkL6qqji-3" value="Relayer Node" style="shape=umlLifeline;perimeter=lifelinePerimeter;whiteSpace=wrap;container=1;dropTarget=0;collapsible=0;recursiveResize=0;outlineConnect=0;portConstraint=eastwest;newEdgeStyle={&quot;edgeStyle&quot;:&quot;elbowEdgeStyle&quot;,&quot;elbow&quot;:&quot;vertical&quot;,&quot;curved&quot;:0,&quot;rounded&quot;:0};size=65;rounded=1;shadow=1;strokeColor=#B3B3B3;align=center;verticalAlign=middle;fontFamily=Helvetica;fontSize=12;fontColor=default;fillColor=#99FFFF;gradientColor=#9933FF;" vertex="1" parent="1">
          <mxGeometry x="482" y="20" width="150" height="874" as="geometry" />
        </mxCell>
        <mxCell id="nn7APUXod1xwGkL6qqji-4" value="Blockchain" style="shape=umlLifeline;perimeter=lifelinePerimeter;whiteSpace=wrap;container=1;dropTarget=0;collapsible=0;recursiveResize=0;outlineConnect=0;portConstraint=eastwest;newEdgeStyle={&quot;edgeStyle&quot;:&quot;elbowEdgeStyle&quot;,&quot;elbow&quot;:&quot;vertical&quot;,&quot;curved&quot;:0,&quot;rounded&quot;:0};size=65;rounded=1;shadow=1;strokeColor=#B3B3B3;align=center;verticalAlign=middle;fontFamily=Helvetica;fontSize=12;fontColor=default;fillColor=#66FFFF;gradientColor=#99CCFF;" vertex="1" parent="1">
          <mxGeometry x="787" y="20" width="150" height="874" as="geometry" />
        </mxCell>
        <mxCell id="nn7APUXod1xwGkL6qqji-5" value="Existing Validator Nodes" style="shape=umlLifeline;perimeter=lifelinePerimeter;whiteSpace=wrap;container=1;dropTarget=0;collapsible=0;recursiveResize=0;outlineConnect=0;portConstraint=eastwest;newEdgeStyle={&quot;edgeStyle&quot;:&quot;elbowEdgeStyle&quot;,&quot;elbow&quot;:&quot;vertical&quot;,&quot;curved&quot;:0,&quot;rounded&quot;:0};size=65;rounded=1;shadow=1;strokeColor=#B3B3B3;align=center;verticalAlign=middle;fontFamily=Helvetica;fontSize=12;fontColor=default;fillColor=#66FFFF;gradientColor=#66FFB3;" vertex="1" parent="1">
          <mxGeometry x="987" y="20" width="196" height="874" as="geometry" />
        </mxCell>
        <mxCell id="nn7APUXod1xwGkL6qqji-6" value="par" style="shape=umlFrame;dashed=1;pointerEvents=0;dropTarget=0;strokeColor=#d6b656;height=20;width=30;fillColor=#fff2cc;" vertex="1" parent="1">
          <mxGeometry x="284" y="373" width="812" height="141" as="geometry" />
        </mxCell>
        <mxCell id="nn7APUXod1xwGkL6qqji-7" value="[Broadcast to all validators]" style="text;strokeColor=none;fillColor=none;align=center;verticalAlign=middle;whiteSpace=wrap;" vertex="1" parent="nn7APUXod1xwGkL6qqji-6">
          <mxGeometry x="30" width="782" height="20" as="geometry" />
        </mxCell>
        <mxCell id="nn7APUXod1xwGkL6qqji-8" value="par" style="shape=umlFrame;dashed=1;pointerEvents=0;dropTarget=0;strokeColor=#b85450;height=20;width=30;fillColor=#f8cecc;" vertex="1" parent="1">
          <mxGeometry x="284" y="591" width="812" height="141" as="geometry" />
        </mxCell>
        <mxCell id="nn7APUXod1xwGkL6qqji-9" value="[Distribute MPC TSS keys]" style="text;strokeColor=none;fillColor=none;align=center;verticalAlign=middle;whiteSpace=wrap;" vertex="1" parent="nn7APUXod1xwGkL6qqji-8">
          <mxGeometry x="30" width="782" height="20" as="geometry" />
        </mxCell>
        <mxCell id="nn7APUXod1xwGkL6qqji-10" value="Submit authorization request (peer_id, IP, port, domain)" style="verticalAlign=bottom;edgeStyle=elbowEdgeStyle;elbow=vertical;curved=0;rounded=0;endArrow=block;" edge="1" parent="1" source="nn7APUXod1xwGkL6qqji-1" target="nn7APUXod1xwGkL6qqji-3">
          <mxGeometry relative="1" as="geometry">
            <Array as="points">
              <mxPoint x="335" y="123" />
            </Array>
          </mxGeometry>
        </mxCell>
        <mxCell id="nn7APUXod1xwGkL6qqji-11" value="Register validator node on-chain" style="verticalAlign=bottom;edgeStyle=elbowEdgeStyle;elbow=vertical;curved=0;rounded=0;endArrow=block;" edge="1" parent="1" source="nn7APUXod1xwGkL6qqji-3" target="nn7APUXod1xwGkL6qqji-4">
          <mxGeometry relative="1" as="geometry">
            <Array as="points">
              <mxPoint x="718" y="238" />
            </Array>
          </mxGeometry>
        </mxCell>
        <mxCell id="nn7APUXod1xwGkL6qqji-12" value="Emit ValidatorAdded event" style="verticalAlign=bottom;edgeStyle=elbowEdgeStyle;elbow=vertical;curved=0;rounded=0;dashed=1;dashPattern=2 3;endArrow=block;" edge="1" parent="1" source="nn7APUXod1xwGkL6qqji-4" target="nn7APUXod1xwGkL6qqji-3">
          <mxGeometry relative="1" as="geometry">
            <Array as="points">
              <mxPoint x="721" y="286" />
            </Array>
          </mxGeometry>
        </mxCell>
        <mxCell id="nn7APUXod1xwGkL6qqji-13" value="Distribute updated authorized nodes list" style="verticalAlign=bottom;edgeStyle=elbowEdgeStyle;elbow=vertical;curved=0;rounded=0;endArrow=block;" edge="1" parent="1" source="nn7APUXod1xwGkL6qqji-3" target="nn7APUXod1xwGkL6qqji-5">
          <mxGeometry relative="1" as="geometry">
            <Array as="points">
              <mxPoint x="830" y="446" />
            </Array>
          </mxGeometry>
        </mxCell>
        <mxCell id="nn7APUXod1xwGkL6qqji-14" value="Send authorized nodes list" style="verticalAlign=bottom;edgeStyle=elbowEdgeStyle;elbow=vertical;curved=0;rounded=0;endArrow=block;" edge="1" parent="1" source="nn7APUXod1xwGkL6qqji-3" target="nn7APUXod1xwGkL6qqji-2">
          <mxGeometry relative="1" as="geometry">
            <Array as="points">
              <mxPoint x="438" y="494" />
            </Array>
          </mxGeometry>
        </mxCell>
        <mxCell id="nn7APUXod1xwGkL6qqji-15" value="Send new MPC TSS key shares" style="verticalAlign=bottom;edgeStyle=elbowEdgeStyle;elbow=vertical;curved=0;rounded=0;endArrow=block;" edge="1" parent="1" source="nn7APUXod1xwGkL6qqji-3" target="nn7APUXod1xwGkL6qqji-5">
          <mxGeometry relative="1" as="geometry">
            <Array as="points">
              <mxPoint x="830" y="664" />
            </Array>
          </mxGeometry>
        </mxCell>
        <mxCell id="nn7APUXod1xwGkL6qqji-16" value="Send MPC TSS key share" style="verticalAlign=bottom;edgeStyle=elbowEdgeStyle;elbow=vertical;curved=0;rounded=0;endArrow=block;" edge="1" parent="1" source="nn7APUXod1xwGkL6qqji-3" target="nn7APUXod1xwGkL6qqji-2">
          <mxGeometry relative="1" as="geometry">
            <Array as="points">
              <mxPoint x="438" y="712" />
            </Array>
          </mxGeometry>
        </mxCell>
        <mxCell id="nn7APUXod1xwGkL6qqji-17" value="Manual validation&#xa;of team credentials" style="fillColor=#99FFFF;strokeColor=#9E916F;rounded=1;gradientColor=#FFFFCC;shadow=1;align=center;verticalAlign=middle;fontFamily=Helvetica;fontSize=12;fontColor=default;" vertex="1" parent="1">
          <mxGeometry x="478" y="143" width="159" height="67" as="geometry" />
        </mxCell>
        <mxCell id="nn7APUXod1xwGkL6qqji-18" value="Update internal&#xa;authorized nodes list" style="fillColor=#99FFFF;strokeColor=#9E916F;rounded=1;gradientColor=#FFFFCC;shadow=1;align=center;verticalAlign=middle;fontFamily=Helvetica;fontSize=12;fontColor=default;" vertex="1" parent="1">
          <mxGeometry x="472" y="306" width="171" height="67" as="geometry" />
        </mxCell>
        <mxCell id="nn7APUXod1xwGkL6qqji-19" value="Trigger MPC TSS&#xa;key generation" style="fillColor=#99FFFF;strokeColor=#9E916F;rounded=1;gradientColor=#FFFFCC;shadow=1;align=center;verticalAlign=middle;fontFamily=Helvetica;fontSize=12;fontColor=default;" vertex="1" parent="1">
          <mxGeometry x="482" y="524" width="150" height="67" as="geometry" />
        </mxCell>
        <mxCell id="nn7APUXod1xwGkL6qqji-20" value="Node fully authorized&#xa;and operational" style="fillColor=#99FFFF;strokeColor=#9E916F;rounded=1;gradientColor=#FFFFCC;shadow=1;align=center;verticalAlign=middle;fontFamily=Helvetica;fontSize=12;fontColor=default;" vertex="1" parent="1">
          <mxGeometry x="208" y="742" width="175" height="67" as="geometry" />
        </mxCell>
      </root>
    </mxGraphModel>
  </diagram>
  <diagram id="MDElBqP2lpWPvXwxVSmA" name="Restrict node">
    <mxGraphModel dx="1018" dy="546" grid="1" gridSize="10" guides="1" tooltips="1" connect="1" arrows="1" fold="1" page="1" pageScale="1" pageWidth="1169" pageHeight="827" math="0" shadow="0">
      <root>
        <mxCell id="0" />
        <mxCell id="1" parent="0" />
        <mxCell id="EwXbFlimkvMC_y4t27dY-1" value="Unauthorized Node" style="shape=umlLifeline;perimeter=lifelinePerimeter;whiteSpace=wrap;container=1;dropTarget=0;collapsible=0;recursiveResize=0;outlineConnect=0;portConstraint=eastwest;newEdgeStyle={&quot;edgeStyle&quot;:&quot;elbowEdgeStyle&quot;,&quot;elbow&quot;:&quot;vertical&quot;,&quot;curved&quot;:0,&quot;rounded&quot;:0};size=65;rounded=1;strokeColor=default;align=center;verticalAlign=middle;fontFamily=Helvetica;fontSize=12;fontColor=default;fillColor=#FF3333;gradientColor=#FFCCCC;" vertex="1" parent="1">
          <mxGeometry x="57" y="20" width="161" height="1025" as="geometry" />
        </mxCell>
        <mxCell id="EwXbFlimkvMC_y4t27dY-2" value="Relayer Node" style="shape=umlLifeline;perimeter=lifelinePerimeter;whiteSpace=wrap;container=1;dropTarget=0;collapsible=0;recursiveResize=0;outlineConnect=0;portConstraint=eastwest;newEdgeStyle={&quot;edgeStyle&quot;:&quot;elbowEdgeStyle&quot;,&quot;elbow&quot;:&quot;vertical&quot;,&quot;curved&quot;:0,&quot;rounded&quot;:0};size=65;rounded=1;shadow=1;strokeColor=#B3B3B3;align=center;verticalAlign=middle;fontFamily=Helvetica;fontSize=12;fontColor=default;fillColor=#99FFFF;gradientColor=#9933FF;" vertex="1" parent="1">
          <mxGeometry x="307" y="20" width="150" height="1025" as="geometry" />
        </mxCell>
        <mxCell id="EwXbFlimkvMC_y4t27dY-3" value="Validator Node" style="shape=umlLifeline;perimeter=lifelinePerimeter;whiteSpace=wrap;container=1;dropTarget=0;collapsible=0;recursiveResize=0;outlineConnect=0;portConstraint=eastwest;newEdgeStyle={&quot;edgeStyle&quot;:&quot;elbowEdgeStyle&quot;,&quot;elbow&quot;:&quot;vertical&quot;,&quot;curved&quot;:0,&quot;rounded&quot;:0};size=65;rounded=1;shadow=1;strokeColor=#B3B3B3;align=center;verticalAlign=middle;fontFamily=Helvetica;fontSize=12;fontColor=default;fillColor=#66FFFF;gradientColor=#66FFB3;" vertex="1" parent="1">
          <mxGeometry x="507" y="20" width="150" height="1025" as="geometry" />
        </mxCell>
        <mxCell id="EwXbFlimkvMC_y4t27dY-4" value="alt" style="shape=umlFrame;dashed=1;pointerEvents=0;dropTarget=0;strokeColor=#B3B3B3;height=20;width=30" vertex="1" parent="1">
          <mxGeometry x="127" y="334" width="266" height="93" as="geometry" />
        </mxCell>
        <mxCell id="EwXbFlimkvMC_y4t27dY-5" value="[peer_id not authorized]" style="text;strokeColor=none;fillColor=none;align=center;verticalAlign=middle;whiteSpace=wrap;" vertex="1" parent="EwXbFlimkvMC_y4t27dY-4">
          <mxGeometry x="30" width="236" height="20" as="geometry" />
        </mxCell>
        <mxCell id="EwXbFlimkvMC_y4t27dY-6" value="alt" style="shape=umlFrame;dashed=1;pointerEvents=0;dropTarget=0;strokeColor=#B3B3B3;height=20;width=30" vertex="1" parent="1">
          <mxGeometry x="127" y="627" width="466" height="93" as="geometry" />
        </mxCell>
        <mxCell id="EwXbFlimkvMC_y4t27dY-7" value="[peer_id not authorized]" style="text;strokeColor=none;fillColor=none;align=center;verticalAlign=middle;whiteSpace=wrap;" vertex="1" parent="EwXbFlimkvMC_y4t27dY-6">
          <mxGeometry x="30" width="436" height="20" as="geometry" />
        </mxCell>
        <mxCell id="EwXbFlimkvMC_y4t27dY-8" value="par" style="shape=umlFrame;dashed=1;pointerEvents=0;dropTarget=0;strokeColor=#B3B3B3;height=20;width=30" vertex="1" parent="1">
          <mxGeometry x="117" y="144" width="557" height="586" as="geometry" />
        </mxCell>
        <mxCell id="EwXbFlimkvMC_y4t27dY-9" value="[Connection attempt to Relayer]" style="text;strokeColor=none;fillColor=none;align=center;verticalAlign=middle;whiteSpace=wrap;" vertex="1" parent="EwXbFlimkvMC_y4t27dY-8">
          <mxGeometry x="30" width="527" height="20" as="geometry" />
        </mxCell>
        <mxCell id="EwXbFlimkvMC_y4t27dY-10" value="[Connection attempt to Validator]" style="shape=line;dashed=1;whiteSpace=wrap;verticalAlign=top;labelPosition=center;verticalLabelPosition=middle;align=center;strokeColor=#B3B3B3;" vertex="1" parent="EwXbFlimkvMC_y4t27dY-8">
          <mxGeometry y="298" width="557" height="4" as="geometry" />
        </mxCell>
        <mxCell id="EwXbFlimkvMC_y4t27dY-11" value="" style="shape=umlFrame;dashed=1;pointerEvents=0;dropTarget=0;strokeColor=#B3B3B3;height=20;width=0" vertex="1" parent="1">
          <mxGeometry x="20" y="807" width="236" height="143" as="geometry" />
        </mxCell>
        <mxCell id="EwXbFlimkvMC_y4t27dY-12" value="" style="text;strokeColor=none;fillColor=none;align=center;verticalAlign=middle;whiteSpace=wrap;" vertex="1" parent="EwXbFlimkvMC_y4t27dY-11">
          <mxGeometry width="236" height="20" as="geometry" />
        </mxCell>
        <mxCell id="EwXbFlimkvMC_y4t27dY-13" value="Connect to relayer node" style="verticalAlign=bottom;edgeStyle=elbowEdgeStyle;elbow=vertical;curved=0;rounded=0;endArrow=block;" edge="1" parent="1" source="EwXbFlimkvMC_y4t27dY-1" target="EwXbFlimkvMC_y4t27dY-2">
          <mxGeometry relative="1" as="geometry">
            <Array as="points">
              <mxPoint x="268" y="217" />
            </Array>
          </mxGeometry>
        </mxCell>
        <mxCell id="EwXbFlimkvMC_y4t27dY-14" value="Check peer_id against&#xa;authorized list" style="curved=1;endArrow=block;rounded=0;" edge="1" parent="1" source="EwXbFlimkvMC_y4t27dY-2" target="EwXbFlimkvMC_y4t27dY-2">
          <mxGeometry relative="1" as="geometry">
            <Array as="points">
              <mxPoint x="433" y="284" />
              <mxPoint x="433" y="314" />
            </Array>
          </mxGeometry>
        </mxCell>
        <mxCell id="EwXbFlimkvMC_y4t27dY-15" value="Connection rejected" style="verticalAlign=bottom;edgeStyle=elbowEdgeStyle;elbow=vertical;curved=0;rounded=0;dashed=1;dashPattern=2 3;endArrow=block;" edge="1" parent="1" source="EwXbFlimkvMC_y4t27dY-2" target="EwXbFlimkvMC_y4t27dY-1">
          <mxGeometry relative="1" as="geometry">
            <Array as="points">
              <mxPoint x="271" y="407" />
            </Array>
          </mxGeometry>
        </mxCell>
        <mxCell id="EwXbFlimkvMC_y4t27dY-16" value="Connect to validator node" style="verticalAlign=bottom;edgeStyle=elbowEdgeStyle;elbow=vertical;curved=0;rounded=0;endArrow=block;" edge="1" parent="1" source="EwXbFlimkvMC_y4t27dY-1" target="EwXbFlimkvMC_y4t27dY-3">
          <mxGeometry relative="1" as="geometry">
            <Array as="points">
              <mxPoint x="368" y="510" />
            </Array>
          </mxGeometry>
        </mxCell>
        <mxCell id="EwXbFlimkvMC_y4t27dY-17" value="Check peer_id against&#xa;authorized list" style="curved=1;endArrow=block;rounded=0;" edge="1" parent="1" source="EwXbFlimkvMC_y4t27dY-3" target="EwXbFlimkvMC_y4t27dY-3">
          <mxGeometry relative="1" as="geometry">
            <Array as="points">
              <mxPoint x="633" y="577" />
              <mxPoint x="633" y="607" />
            </Array>
          </mxGeometry>
        </mxCell>
        <mxCell id="EwXbFlimkvMC_y4t27dY-18" value="Connection rejected" style="verticalAlign=bottom;edgeStyle=elbowEdgeStyle;elbow=vertical;curved=0;rounded=0;dashed=1;dashPattern=2 3;endArrow=block;" edge="1" parent="1" source="EwXbFlimkvMC_y4t27dY-3" target="EwXbFlimkvMC_y4t27dY-1">
          <mxGeometry relative="1" as="geometry">
            <Array as="points">
              <mxPoint x="371" y="700" />
            </Array>
          </mxGeometry>
        </mxCell>
        <mxCell id="EwXbFlimkvMC_y4t27dY-19" value="Attempt to join network via any node" style="fillColor=#99FFFF;strokeColor=#9E916F;rounded=1;shadow=1;align=center;verticalAlign=middle;fontFamily=Helvetica;fontSize=12;fontColor=default;gradientColor=#FFFFCC;" vertex="1" parent="1">
          <mxGeometry x="113" y="95" width="494" height="49" as="geometry" />
        </mxCell>
        <mxCell id="EwXbFlimkvMC_y4t27dY-20" value="All nodes maintain and enforce&#xa;the same authorized nodes list" style="fillColor=#99FFFF;strokeColor=#9E916F;rounded=1;shadow=1;align=center;verticalAlign=middle;fontFamily=Helvetica;fontSize=12;fontColor=default;gradientColor=#FFFFCC;" vertex="1" parent="1">
          <mxGeometry x="113" y="740" width="494" height="67" as="geometry" />
        </mxCell>
        <mxCell id="EwXbFlimkvMC_y4t27dY-21" value="Node cannot participate in:&#xa;1. P2P communication&#xa;2. MPC TSS signing&#xa;3. Transaction validation&#xa;4. Gossip protocol" style="fillColor=#99FFFF;strokeColor=#9E916F;rounded=1;shadow=1;align=center;verticalAlign=middle;fontFamily=Helvetica;fontSize=12;fontColor=default;gradientColor=#FFFFCC;" vertex="1" parent="1">
          <mxGeometry x="30" y="827" width="216" height="123" as="geometry" />
        </mxCell>
      </root>
    </mxGraphModel>
  </diagram>
  <diagram id="XqlG5_4xo7B-MSpXsijN" name="Page-8">
    <mxGraphModel dx="1018" dy="546" grid="1" gridSize="10" guides="1" tooltips="1" connect="1" arrows="1" fold="1" page="1" pageScale="1" pageWidth="1169" pageHeight="827" math="0" shadow="0">
      <root>
        <mxCell id="0" />
        <mxCell id="1" parent="0" />
        <mxCell id="-970liNOZ6OXvrFeg7yn-3" value="" style="edgeStyle=orthogonalEdgeStyle;rounded=0;orthogonalLoop=1;jettySize=auto;html=1;" edge="1" parent="1" source="-970liNOZ6OXvrFeg7yn-1" target="-970liNOZ6OXvrFeg7yn-2">
          <mxGeometry relative="1" as="geometry" />
        </mxCell>
        <mxCell id="-970liNOZ6OXvrFeg7yn-4" value="connect" style="edgeLabel;html=1;align=center;verticalAlign=middle;resizable=0;points=[];" vertex="1" connectable="0" parent="-970liNOZ6OXvrFeg7yn-3">
          <mxGeometry x="-0.25" y="1" relative="1" as="geometry">
            <mxPoint x="15" y="1" as="offset" />
          </mxGeometry>
        </mxCell>
        <mxCell id="-970liNOZ6OXvrFeg7yn-1" value="node" style="rounded=1;whiteSpace=wrap;html=1;" vertex="1" parent="1">
          <mxGeometry x="260" y="120" width="120" height="60" as="geometry" />
        </mxCell>
        <mxCell id="-970liNOZ6OXvrFeg7yn-6" value="" style="edgeStyle=orthogonalEdgeStyle;rounded=0;orthogonalLoop=1;jettySize=auto;html=1;" edge="1" parent="1" source="-970liNOZ6OXvrFeg7yn-2" target="-970liNOZ6OXvrFeg7yn-5">
          <mxGeometry relative="1" as="geometry" />
        </mxCell>
        <mxCell id="-970liNOZ6OXvrFeg7yn-2" value="node" style="whiteSpace=wrap;html=1;rounded=1;" vertex="1" parent="1">
          <mxGeometry x="530" y="120" width="120" height="60" as="geometry" />
        </mxCell>
        <mxCell id="-970liNOZ6OXvrFeg7yn-8" value="" style="edgeStyle=orthogonalEdgeStyle;rounded=0;orthogonalLoop=1;jettySize=auto;html=1;" edge="1" parent="1" source="-970liNOZ6OXvrFeg7yn-5" target="-970liNOZ6OXvrFeg7yn-7">
          <mxGeometry relative="1" as="geometry" />
        </mxCell>
        <mxCell id="-970liNOZ6OXvrFeg7yn-12" value="" style="edgeStyle=orthogonalEdgeStyle;rounded=0;orthogonalLoop=1;jettySize=auto;html=1;entryX=0;entryY=0.5;entryDx=0;entryDy=0;" edge="1" parent="1" source="-970liNOZ6OXvrFeg7yn-5" target="-970liNOZ6OXvrFeg7yn-9">
          <mxGeometry relative="1" as="geometry" />
        </mxCell>
        <mxCell id="-970liNOZ6OXvrFeg7yn-14" style="edgeStyle=orthogonalEdgeStyle;rounded=0;orthogonalLoop=1;jettySize=auto;html=1;entryX=0;entryY=0.5;entryDx=0;entryDy=0;" edge="1" parent="1" source="-970liNOZ6OXvrFeg7yn-5" target="-970liNOZ6OXvrFeg7yn-13">
          <mxGeometry relative="1" as="geometry" />
        </mxCell>
        <mxCell id="-970liNOZ6OXvrFeg7yn-5" value="SwarmEvent::&lt;div&gt;ConnectionEstablished&lt;/div&gt;" style="whiteSpace=wrap;html=1;rounded=0;fillColor=#dae8fc;strokeColor=#6c8ebf;" vertex="1" parent="1">
          <mxGeometry x="530" y="240" width="120" height="60" as="geometry" />
        </mxCell>
        <mxCell id="-970liNOZ6OXvrFeg7yn-7" value="peer_id&lt;div&gt;addr&lt;/div&gt;" style="whiteSpace=wrap;html=1;rounded=0;fillColor=#f5f5f5;strokeColor=#666666;fontColor=#333333;" vertex="1" parent="1">
          <mxGeometry x="530" y="340" width="120" height="60" as="geometry" />
        </mxCell>
        <mxCell id="-970liNOZ6OXvrFeg7yn-18" value="" style="edgeStyle=orthogonalEdgeStyle;rounded=0;orthogonalLoop=1;jettySize=auto;html=1;" edge="1" parent="1" source="-970liNOZ6OXvrFeg7yn-9" target="-970liNOZ6OXvrFeg7yn-17">
          <mxGeometry relative="1" as="geometry" />
        </mxCell>
        <mxCell id="-970liNOZ6OXvrFeg7yn-9" value="kademlia&lt;div&gt;add_address&lt;/div&gt;" style="whiteSpace=wrap;html=1;rounded=1;" vertex="1" parent="1">
          <mxGeometry x="720" y="120" width="120" height="60" as="geometry" />
        </mxCell>
        <mxCell id="-970liNOZ6OXvrFeg7yn-13" value="gossipsub&lt;div&gt;add_explicit_peer&lt;/div&gt;" style="whiteSpace=wrap;html=1;rounded=1;" vertex="1" parent="1">
          <mxGeometry x="720" y="354" width="120" height="60" as="geometry" />
        </mxCell>
        <mxCell id="-970liNOZ6OXvrFeg7yn-17" value="Event&lt;div&gt;RoutingUpdated&lt;/div&gt;" style="whiteSpace=wrap;html=1;rounded=0;fillColor=#dae8fc;strokeColor=#6c8ebf;" vertex="1" parent="1">
          <mxGeometry x="720" y="210" width="120" height="60" as="geometry" />
        </mxCell>
      </root>
    </mxGraphModel>
  </diagram>
  <diagram id="-ZR6ssj016qZ30--AJcr" name="Page-9">
    <mxGraphModel dx="1018" dy="1379" grid="1" gridSize="10" guides="1" tooltips="1" connect="1" arrows="1" fold="1" page="1" pageScale="1" pageWidth="1169" pageHeight="827" math="0" shadow="0">
      <root>
        <mxCell id="0" />
        <mxCell id="1" parent="0" />
        <mxCell id="UQKPgQagHGY5u5vujpKG-1" value="Contrat (Chain)" style="shape=umlLifeline;perimeter=lifelinePerimeter;whiteSpace=wrap;container=1;dropTarget=0;collapsible=0;recursiveResize=0;outlineConnect=0;portConstraint=eastwest;newEdgeStyle={&quot;edgeStyle&quot;:&quot;elbowEdgeStyle&quot;,&quot;elbow&quot;:&quot;vertical&quot;,&quot;curved&quot;:0,&quot;rounded&quot;:0};size=65;" vertex="1" parent="1">
          <mxGeometry x="20" y="20" width="150" height="2006" as="geometry" />
        </mxCell>
        <mxCell id="UQKPgQagHGY5u5vujpKG-2" value="Relayer (Admin)" style="shape=umlLifeline;perimeter=lifelinePerimeter;whiteSpace=wrap;container=1;dropTarget=0;collapsible=0;recursiveResize=0;outlineConnect=0;portConstraint=eastwest;newEdgeStyle={&quot;edgeStyle&quot;:&quot;elbowEdgeStyle&quot;,&quot;elbow&quot;:&quot;vertical&quot;,&quot;curved&quot;:0,&quot;rounded&quot;:0};size=65;" vertex="1" parent="1">
          <mxGeometry x="350" y="20" width="150" height="2006" as="geometry" />
        </mxCell>
        <mxCell id="UQKPgQagHGY5u5vujpKG-3" value="Validator Node" style="shape=umlLifeline;perimeter=lifelinePerimeter;whiteSpace=wrap;container=1;dropTarget=0;collapsible=0;recursiveResize=0;outlineConnect=0;portConstraint=eastwest;newEdgeStyle={&quot;edgeStyle&quot;:&quot;elbowEdgeStyle&quot;,&quot;elbow&quot;:&quot;vertical&quot;,&quot;curved&quot;:0,&quot;rounded&quot;:0};size=65;" vertex="1" parent="1">
          <mxGeometry x="798" y="20" width="150" height="2006" as="geometry" />
        </mxCell>
        <mxCell id="UQKPgQagHGY5u5vujpKG-4" value="Bootstrap/Other Node" style="shape=umlLifeline;perimeter=lifelinePerimeter;whiteSpace=wrap;container=1;dropTarget=0;collapsible=0;recursiveResize=0;outlineConnect=0;portConstraint=eastwest;newEdgeStyle={&quot;edgeStyle&quot;:&quot;elbowEdgeStyle&quot;,&quot;elbow&quot;:&quot;vertical&quot;,&quot;curved&quot;:0,&quot;rounded&quot;:0};size=65;" vertex="1" parent="1">
          <mxGeometry x="1277" y="20" width="180" height="2006" as="geometry" />
        </mxCell>
        <mxCell id="UQKPgQagHGY5u5vujpKG-5" value="alt" style="shape=umlFrame;dashed=1;pointerEvents=0;dropTarget=0;strokeColor=#B3B3B3;height=20;width=30" vertex="1" parent="1">
          <mxGeometry x="414" y="589" width="964" height="141" as="geometry" />
        </mxCell>
        <mxCell id="UQKPgQagHGY5u5vujpKG-6" value="[Peer list not found or outdated]" style="text;strokeColor=none;fillColor=none;align=center;verticalAlign=middle;whiteSpace=wrap;" vertex="1" parent="UQKPgQagHGY5u5vujpKG-5">
          <mxGeometry x="30" width="934" height="20" as="geometry" />
        </mxCell>
        <mxCell id="UQKPgQagHGY5u5vujpKG-7" value="alt" style="shape=umlFrame;dashed=1;pointerEvents=0;dropTarget=0;strokeColor=#B3B3B3;height=20;width=30" vertex="1" parent="1">
          <mxGeometry x="789" y="818" width="590" height="498" as="geometry" />
        </mxCell>
        <mxCell id="UQKPgQagHGY5u5vujpKG-8" value="[Authorization successful]" style="text;strokeColor=none;fillColor=none;align=center;verticalAlign=middle;whiteSpace=wrap;" vertex="1" parent="UQKPgQagHGY5u5vujpKG-7">
          <mxGeometry x="30" width="560" height="20" as="geometry" />
        </mxCell>
        <mxCell id="UQKPgQagHGY5u5vujpKG-9" value="[Authorization failed]" style="shape=line;dashed=1;whiteSpace=wrap;verticalAlign=top;labelPosition=center;verticalLabelPosition=middle;align=center;strokeColor=#B3B3B3;" vertex="1" parent="UQKPgQagHGY5u5vujpKG-7">
          <mxGeometry y="302" width="590" height="4" as="geometry" />
        </mxCell>
        <mxCell id="UQKPgQagHGY5u5vujpKG-10" value="alt" style="shape=umlFrame;dashed=1;pointerEvents=0;dropTarget=0;strokeColor=#B3B3B3;height=20;width=30" vertex="1" parent="1">
          <mxGeometry x="84" y="1468" width="1370" height="453" as="geometry" />
        </mxCell>
        <mxCell id="UQKPgQagHGY5u5vujpKG-11" value="[Changes detected]" style="text;strokeColor=none;fillColor=none;align=center;verticalAlign=middle;whiteSpace=wrap;" vertex="1" parent="UQKPgQagHGY5u5vujpKG-10">
          <mxGeometry x="30" width="1340" height="20" as="geometry" />
        </mxCell>
        <mxCell id="UQKPgQagHGY5u5vujpKG-12" value="loop" style="shape=umlFrame;dashed=1;pointerEvents=0;dropTarget=0;strokeColor=#B3B3B3;height=20;width=40" vertex="1" parent="1">
          <mxGeometry x="74" y="1375" width="1390" height="556" as="geometry" />
        </mxCell>
        <mxCell id="UQKPgQagHGY5u5vujpKG-13" value="[Regular interval]" style="text;strokeColor=none;fillColor=none;align=center;verticalAlign=middle;whiteSpace=wrap;" vertex="1" parent="UQKPgQagHGY5u5vujpKG-12">
          <mxGeometry x="40" width="1350" height="20" as="geometry" />
        </mxCell>
        <mxCell id="UQKPgQagHGY5u5vujpKG-14" value="Event: PeerAuthorized/PeerRevoked" style="verticalAlign=bottom;edgeStyle=elbowEdgeStyle;elbow=vertical;curved=0;rounded=0;endArrow=block;" edge="1" parent="1" source="UQKPgQagHGY5u5vujpKG-1" target="UQKPgQagHGY5u5vujpKG-2">
          <mxGeometry relative="1" as="geometry">
            <Array as="points">
              <mxPoint x="269" y="172" />
            </Array>
          </mxGeometry>
        </mxCell>
        <mxCell id="UQKPgQagHGY5u5vujpKG-15" value="Update Merkle Tree" style="curved=1;endArrow=block;rounded=0;" edge="1" parent="1" source="UQKPgQagHGY5u5vujpKG-2" target="UQKPgQagHGY5u5vujpKG-2">
          <mxGeometry relative="1" as="geometry">
            <Array as="points">
              <mxPoint x="476" y="220" />
              <mxPoint x="476" y="250" />
            </Array>
          </mxGeometry>
        </mxCell>
        <mxCell id="UQKPgQagHGY5u5vujpKG-16" value="Broadcast UpdatePeerList (Merkle Tree + Signature)" style="verticalAlign=bottom;edgeStyle=elbowEdgeStyle;elbow=vertical;curved=0;rounded=0;endArrow=block;" edge="1" parent="1" source="UQKPgQagHGY5u5vujpKG-2" target="UQKPgQagHGY5u5vujpKG-4">
          <mxGeometry relative="1" as="geometry">
            <Array as="points">
              <mxPoint x="905" y="298" />
            </Array>
          </mxGeometry>
        </mxCell>
        <mxCell id="UQKPgQagHGY5u5vujpKG-17" value="Broadcast UpdatePeerList (Merkle Tree + Signature)" style="verticalAlign=bottom;edgeStyle=elbowEdgeStyle;elbow=vertical;curved=0;rounded=0;endArrow=block;" edge="1" parent="1" source="UQKPgQagHGY5u5vujpKG-2" target="UQKPgQagHGY5u5vujpKG-3">
          <mxGeometry relative="1" as="geometry">
            <Array as="points">
              <mxPoint x="658" y="346" />
            </Array>
          </mxGeometry>
        </mxCell>
        <mxCell id="UQKPgQagHGY5u5vujpKG-18" value="Connection attempt" style="verticalAlign=bottom;edgeStyle=elbowEdgeStyle;elbow=vertical;curved=0;rounded=0;endArrow=block;" edge="1" parent="1" source="UQKPgQagHGY5u5vujpKG-3" target="UQKPgQagHGY5u5vujpKG-4">
          <mxGeometry relative="1" as="geometry">
            <Array as="points">
              <mxPoint x="1129" y="443" />
            </Array>
          </mxGeometry>
        </mxCell>
        <mxCell id="UQKPgQagHGY5u5vujpKG-19" value="AuthRequest (PeerId + Signature)" style="verticalAlign=bottom;edgeStyle=elbowEdgeStyle;elbow=vertical;curved=0;rounded=0;endArrow=block;" edge="1" parent="1" source="UQKPgQagHGY5u5vujpKG-3" target="UQKPgQagHGY5u5vujpKG-4">
          <mxGeometry relative="1" as="geometry">
            <Array as="points">
              <mxPoint x="1129" y="491" />
            </Array>
          </mxGeometry>
        </mxCell>
        <mxCell id="UQKPgQagHGY5u5vujpKG-20" value="Check local authorized peers list" style="curved=1;endArrow=block;rounded=0;" edge="1" parent="1" source="UQKPgQagHGY5u5vujpKG-4" target="UQKPgQagHGY5u5vujpKG-4">
          <mxGeometry relative="1" as="geometry">
            <Array as="points">
              <mxPoint x="1418" y="539" />
              <mxPoint x="1418" y="569" />
            </Array>
          </mxGeometry>
        </mxCell>
        <mxCell id="UQKPgQagHGY5u5vujpKG-21" value="Request latest peer list" style="verticalAlign=bottom;edgeStyle=elbowEdgeStyle;elbow=vertical;curved=0;rounded=0;endArrow=block;" edge="1" parent="1" source="UQKPgQagHGY5u5vujpKG-4" target="UQKPgQagHGY5u5vujpKG-2">
          <mxGeometry relative="1" as="geometry">
            <Array as="points">
              <mxPoint x="908" y="662" />
            </Array>
          </mxGeometry>
        </mxCell>
        <mxCell id="UQKPgQagHGY5u5vujpKG-22" value="Send UpdatePeerList" style="verticalAlign=bottom;edgeStyle=elbowEdgeStyle;elbow=vertical;curved=0;rounded=0;endArrow=block;" edge="1" parent="1" source="UQKPgQagHGY5u5vujpKG-2" target="UQKPgQagHGY5u5vujpKG-4">
          <mxGeometry relative="1" as="geometry">
            <Array as="points">
              <mxPoint x="905" y="710" />
            </Array>
          </mxGeometry>
        </mxCell>
        <mxCell id="UQKPgQagHGY5u5vujpKG-23" value="Verify PeerId in Merkle Tree" style="curved=1;endArrow=block;rounded=0;" edge="1" parent="1" source="UQKPgQagHGY5u5vujpKG-4" target="UQKPgQagHGY5u5vujpKG-4">
          <mxGeometry relative="1" as="geometry">
            <Array as="points">
              <mxPoint x="1418" y="768" />
              <mxPoint x="1418" y="798" />
            </Array>
          </mxGeometry>
        </mxCell>
        <mxCell id="UQKPgQagHGY5u5vujpKG-24" value="AuthResponse (Success + MerkleTree + Proof + Signature)" style="verticalAlign=bottom;edgeStyle=elbowEdgeStyle;elbow=vertical;curved=0;rounded=0;endArrow=block;" edge="1" parent="1" source="UQKPgQagHGY5u5vujpKG-4" target="UQKPgQagHGY5u5vujpKG-3">
          <mxGeometry relative="1" as="geometry">
            <Array as="points">
              <mxPoint x="1132" y="891" />
            </Array>
          </mxGeometry>
        </mxCell>
        <mxCell id="UQKPgQagHGY5u5vujpKG-25" value="Verify Merkle proof" style="curved=1;endArrow=block;rounded=0;" edge="1" parent="1" source="UQKPgQagHGY5u5vujpKG-3" target="UQKPgQagHGY5u5vujpKG-3">
          <mxGeometry relative="1" as="geometry">
            <Array as="points">
              <mxPoint x="924" y="939" />
              <mxPoint x="924" y="969" />
            </Array>
          </mxGeometry>
        </mxCell>
        <mxCell id="UQKPgQagHGY5u5vujpKG-26" value="Store peer list locally" style="curved=1;endArrow=block;rounded=0;" edge="1" parent="1" source="UQKPgQagHGY5u5vujpKG-3" target="UQKPgQagHGY5u5vujpKG-3">
          <mxGeometry relative="1" as="geometry">
            <Array as="points">
              <mxPoint x="924" y="1017" />
              <mxPoint x="924" y="1047" />
            </Array>
          </mxGeometry>
        </mxCell>
        <mxCell id="UQKPgQagHGY5u5vujpKG-27" value="Continue connection process" style="verticalAlign=bottom;edgeStyle=elbowEdgeStyle;elbow=vertical;curved=0;rounded=0;endArrow=block;" edge="1" parent="1" source="UQKPgQagHGY5u5vujpKG-3" target="UQKPgQagHGY5u5vujpKG-4">
          <mxGeometry relative="1" as="geometry">
            <Array as="points">
              <mxPoint x="1129" y="1095" />
            </Array>
          </mxGeometry>
        </mxCell>
        <mxCell id="UQKPgQagHGY5u5vujpKG-28" value="AuthResponse (Failure + Signature)" style="verticalAlign=bottom;edgeStyle=elbowEdgeStyle;elbow=vertical;curved=0;rounded=0;endArrow=block;" edge="1" parent="1" source="UQKPgQagHGY5u5vujpKG-4" target="UQKPgQagHGY5u5vujpKG-3">
          <mxGeometry relative="1" as="geometry">
            <Array as="points">
              <mxPoint x="1132" y="1188" />
            </Array>
          </mxGeometry>
        </mxCell>
        <mxCell id="UQKPgQagHGY5u5vujpKG-29" value="Disconnect and exit" style="curved=1;endArrow=block;rounded=0;" edge="1" parent="1" source="UQKPgQagHGY5u5vujpKG-3" target="UQKPgQagHGY5u5vujpKG-3">
          <mxGeometry relative="1" as="geometry">
            <Array as="points">
              <mxPoint x="924" y="1236" />
              <mxPoint x="924" y="1266" />
            </Array>
          </mxGeometry>
        </mxCell>
        <mxCell id="UQKPgQagHGY5u5vujpKG-30" value="Check for auth changes" style="verticalAlign=bottom;edgeStyle=elbowEdgeStyle;elbow=vertical;curved=0;rounded=0;endArrow=block;" edge="1" parent="1" source="UQKPgQagHGY5u5vujpKG-2" target="UQKPgQagHGY5u5vujpKG-1">
          <mxGeometry relative="1" as="geometry">
            <Array as="points">
              <mxPoint x="272" y="1448" />
            </Array>
          </mxGeometry>
        </mxCell>
        <mxCell id="UQKPgQagHGY5u5vujpKG-31" value="New authorization event" style="verticalAlign=bottom;edgeStyle=elbowEdgeStyle;elbow=vertical;curved=0;rounded=0;endArrow=block;" edge="1" parent="1" source="UQKPgQagHGY5u5vujpKG-1" target="UQKPgQagHGY5u5vujpKG-2">
          <mxGeometry relative="1" as="geometry">
            <Array as="points">
              <mxPoint x="269" y="1541" />
            </Array>
          </mxGeometry>
        </mxCell>
        <mxCell id="UQKPgQagHGY5u5vujpKG-32" value="Update Merkle Tree" style="curved=1;endArrow=block;rounded=0;" edge="1" parent="1" source="UQKPgQagHGY5u5vujpKG-2" target="UQKPgQagHGY5u5vujpKG-2">
          <mxGeometry relative="1" as="geometry">
            <Array as="points">
              <mxPoint x="476" y="1589" />
              <mxPoint x="476" y="1619" />
            </Array>
          </mxGeometry>
        </mxCell>
        <mxCell id="UQKPgQagHGY5u5vujpKG-33" value="Broadcast UpdatePeerList" style="verticalAlign=bottom;edgeStyle=elbowEdgeStyle;elbow=vertical;curved=0;rounded=0;endArrow=block;" edge="1" parent="1" source="UQKPgQagHGY5u5vujpKG-2" target="UQKPgQagHGY5u5vujpKG-3">
          <mxGeometry relative="1" as="geometry">
            <Array as="points">
              <mxPoint x="658" y="1667" />
            </Array>
          </mxGeometry>
        </mxCell>
        <mxCell id="UQKPgQagHGY5u5vujpKG-34" value="Broadcast UpdatePeerList" style="verticalAlign=bottom;edgeStyle=elbowEdgeStyle;elbow=vertical;curved=0;rounded=0;endArrow=block;" edge="1" parent="1" source="UQKPgQagHGY5u5vujpKG-2" target="UQKPgQagHGY5u5vujpKG-4">
          <mxGeometry relative="1" as="geometry">
            <Array as="points">
              <mxPoint x="905" y="1715" />
            </Array>
          </mxGeometry>
        </mxCell>
        <mxCell id="UQKPgQagHGY5u5vujpKG-35" value="Verify still authorized" style="curved=1;endArrow=block;rounded=0;" edge="1" parent="1" source="UQKPgQagHGY5u5vujpKG-3" target="UQKPgQagHGY5u5vujpKG-3">
          <mxGeometry relative="1" as="geometry">
            <Array as="points">
              <mxPoint x="924" y="1763" />
              <mxPoint x="924" y="1793" />
            </Array>
          </mxGeometry>
        </mxCell>
        <mxCell id="UQKPgQagHGY5u5vujpKG-36" value="Verify still authorized" style="curved=1;endArrow=block;rounded=0;" edge="1" parent="1" source="UQKPgQagHGY5u5vujpKG-4" target="UQKPgQagHGY5u5vujpKG-4">
          <mxGeometry relative="1" as="geometry">
            <Array as="points">
              <mxPoint x="1418" y="1841" />
              <mxPoint x="1418" y="1871" />
            </Array>
          </mxGeometry>
        </mxCell>
        <mxCell id="UQKPgQagHGY5u5vujpKG-37" value="Phase 1: Mise à jour de la liste d&#39;autorisation" style="fillColor=#ffff88;strokeColor=#9E916F;" vertex="1" parent="1">
          <mxGeometry x="70" y="95" width="1322" height="49" as="geometry" />
        </mxCell>
        <mxCell id="UQKPgQagHGY5u5vujpKG-38" value="Phase 2: Tentative de connexion d&#39;un Validator" style="fillColor=#ffff88;strokeColor=#9E916F;" vertex="1" parent="1">
          <mxGeometry x="848" y="366" width="544" height="49" as="geometry" />
        </mxCell>
        <mxCell id="UQKPgQagHGY5u5vujpKG-39" value="Phase 3: Surveillance continue" style="fillColor=#ffff88;strokeColor=#9E916F;" vertex="1" parent="1">
          <mxGeometry x="848" y="1326" width="544" height="49" as="geometry" />
        </mxCell>
      </root>
    </mxGraphModel>
  </diagram>
</mxfile>
